<svg width="702.343" height="752.322" viewBox="112.929 1.89308 526.757 564.241" xmlns="http://www.w3.org/2000/svg" xmlns:xlink="http://www.w3.org/1999/xlink" overflow="hidden"><g transform="matrix(1 0 0 -1 0 841)"><g stroke="#000000" stroke-linecap="round" stroke-linejoin="round" stroke-miterlimit="3" fill="none" fill-rule="evenodd" font-weight="400" baseline-shift="0"><g transform="matrix(0.75 0 0 0.75 0 841.65)"><g font-family="CalibriUnicode" font-size="13" transform="scale(1.00148 -1.00411)"><rect x="161" y="14" width="680" height="728" stroke="#9A8484"/><rect x="184" y="344" width="294" height="157" stroke="none" fill="#D0D0D0"/><rect x="181" y="341" width="293" height="156" stroke="none" stroke-width="2" fill="#CCFFFF"/><rect x="181" y="341" width="293" height="157" stroke="#9A8484" stroke-width="2"/><rect x="181" y="341" width="293" height="156" stroke="#9A8484" stroke-width="2"/><text stroke="none" fill="#000000" transform="translate(292 347)"><tspan x="0" y="12" dx="0">«</tspan><tspan x="6" y="12" dx="0">O</tspan><tspan x="15" y="12" dx="0">b</tspan><tspan x="22" y="12" dx="0">j</tspan><tspan x="25" y="12" dx="0">e</tspan><tspan x="32" y="12" dx="0">c</tspan><tspan x="38" y="12" dx="0 0">tt</tspan><tspan x="46" y="12" dx="0">y</tspan><tspan x="51" y="12" dx="0">p</tspan><tspan x="58" y="12" dx="0">e</tspan><tspan x="66" y="12" dx="0">»</tspan></text><text stroke="none" fill="#000000" font-weight="700" transform="translate(303 362)"><tspan x="0" y="12" dx="0">Tekstdeel</tspan></text><path d="M181 382 474 382" stroke="#9A8484" stroke-width="2"/><text stroke="none" fill="#000000" transform="translate(194 390)"><tspan x="0" y="12" dx="0">«</tspan><tspan x="6" y="12" dx="0">A</tspan><tspan x="14" y="12" dx="0 0">tt</tspan><tspan x="22" y="12" dx="0">r</tspan><tspan x="26" y="12" dx="0">i</tspan><tspan x="30" y="12" dx="0">b</tspan><tspan x="38" y="12" dx="0">u</tspan><tspan x="45" y="12" dx="0">u</tspan><tspan x="52" y="12" dx="0">t</tspan><tspan x="56" y="12" dx="0">s</tspan><tspan x="63" y="12" dx="0">o</tspan><tspan x="70" y="12" dx="0">o</tspan><tspan x="77" y="12" dx="0">r</tspan><tspan x="81" y="12" dx="0">t</tspan><tspan x="86" y="12" dx="0">»</tspan></text><text stroke="none" fill="#66413F" transform="translate(186 405)"><tspan x="0" y="12" dx="0">+</tspan></text><text stroke="none" fill="#66413F" transform="translate(207 405)"><tspan x="0" y="12" dx="0">i</tspan><tspan x="4" y="12" dx="0">d</tspan><tspan x="11" y="12" dx="0">e</tspan><tspan x="19" y="12" dx="0">n</tspan><tspan x="26" y="12" dx="0 0">ti</tspan><tspan x="34" y="12" dx="0 0">fi</tspan><tspan x="43" y="12" dx="0">c</tspan><tspan x="48" y="12" dx="0">a</tspan><tspan x="55" y="12" dx="0 0">ti</tspan><tspan x="64" y="12" dx="0">e</tspan><tspan x="71" y="12" dx="0">:</tspan><tspan x="74" y="12" dx="0"> </tspan><tspan x="77" y="12" dx="0">N</tspan><tspan x="86" y="12" dx="0">E</tspan><tspan x="92" y="12" dx="0">N</tspan><tspan x="100" y="12" dx="0">3</tspan><tspan x="106" y="12" dx="0">6</tspan><tspan x="113" y="12" dx="0">1</tspan><tspan x="119" y="12" dx="0">0</tspan><tspan x="125" y="12" dx="0">I</tspan><tspan x="129" y="12" dx="0">D</tspan><tspan x="138" y="12" dx="0"> </tspan><tspan x="141" y="12" dx="0">{</tspan><tspan x="145" y="12" dx="0">i</tspan><tspan x="149" y="12" dx="0">d</tspan><tspan x="156" y="12" dx="0">}</tspan></text><text stroke="none" fill="#66413F" transform="translate(186 420)"><tspan x="0" y="12" dx="0">+</tspan></text><text stroke="none" fill="#66413F" transform="translate(207 420)"><tspan x="0" y="12" dx="0">i</tspan><tspan x="4" y="12" dx="0">d</tspan><tspan x="11" y="12" dx="0">e</tspan><tspan x="19" y="12" dx="0">a</tspan><tspan x="26" y="12" dx="0">l</tspan><tspan x="30" y="12" dx="0">i</tspan><tspan x="34" y="12" dx="0">s</tspan><tspan x="41" y="12" dx="0">a</tspan><tspan x="48" y="12" dx="0 0">ti</tspan><tspan x="56" y="12" dx="0">e</tspan><tspan x="64" y="12" dx="0">:</tspan><tspan x="67" y="12" dx="0"> </tspan><tspan x="70" y="12" dx="0">I</tspan><tspan x="74" y="12" dx="0">d</tspan><tspan x="81" y="12" dx="0">e</tspan><tspan x="89" y="12" dx="0">a</tspan><tspan x="96" y="12" dx="0">l</tspan><tspan x="100" y="12" dx="0">i</tspan><tspan x="104" y="12" dx="0">s</tspan><tspan x="111" y="12" dx="0">a</tspan><tspan x="118" y="12" dx="0 0">ti</tspan><tspan x="126" y="12" dx="0">e</tspan><tspan x="133" y="12" dx="0"> </tspan><tspan x="137" y="12" dx="0">[</tspan><tspan x="141" y="12" dx="0">0</tspan><tspan x="147" y="12" dx="0">.</tspan><tspan x="150" y="12" dx="0">.</tspan><tspan x="153" y="12" dx="0">1</tspan><tspan x="160" y="12" dx="0">]</tspan></text><text stroke="none" fill="#66413F" transform="translate(186 435)"><tspan x="0" y="12" dx="0">+</tspan></text><text stroke="none" fill="#66413F" transform="translate(207 435)"><tspan x="0" y="12" dx="0">thema: Thema [0..*]</tspan></text><path d="M181 454 474 454" stroke="#9A8484" stroke-width="2"/><text stroke="none" fill="#000000" font-style="italic" transform="translate(299 458)"><tspan x="0" y="12" dx="0">constraints</tspan></text><text stroke="none" fill="#000000" transform="translate(186 473)"><tspan x="0" y="12" dx="0">{</tspan><tspan x="4" y="12" dx="0">i</tspan><tspan x="8" y="12" dx="0">d</tspan><tspan x="16" y="12" dx="0">e</tspan><tspan x="23" y="12" dx="0">a</tspan><tspan x="30" y="12" dx="0">l</tspan><tspan x="34" y="12" dx="0">i</tspan><tspan x="39" y="12" dx="0">s</tspan><tspan x="45" y="12" dx="0">a</tspan><tspan x="52" y="12" dx="0 0">ti</tspan><tspan x="60" y="12" dx="0">e</tspan><tspan x="68" y="12" dx="0"> </tspan><tspan x="71" y="12" dx="0">v</tspan><tspan x="76" y="12" dx="0">e</tspan><tspan x="83" y="12" dx="0">r</tspan><tspan x="88" y="12" dx="0">p</tspan><tspan x="95" y="12" dx="0">l</tspan><tspan x="99" y="12" dx="0">i</tspan></text><text stroke="none" fill="#000000" transform="translate(289 473)"><tspan x="0" y="12" dx="0">c</tspan><tspan x="5" y="12" dx="0">h</tspan><tspan x="11" y="12" dx="0">t</tspan><tspan x="15" y="12" dx="0"> </tspan><tspan x="18" y="12" dx="0">a</tspan><tspan x="24" y="12" dx="0">l</tspan><tspan x="28" y="12" dx="0">s</tspan><tspan x="34" y="12" dx="0"> </tspan><tspan x="37" y="12" dx="0">t</tspan><tspan x="41" y="12" dx="0">e</tspan><tspan x="47" y="12" dx="0">k</tspan><tspan x="52" y="12" dx="0">s</tspan><tspan x="57" y="12" dx="0">t</tspan><tspan x="61" y="12" dx="0">d</tspan><tspan x="67" y="12" dx="0">e</tspan><tspan x="73" y="12" dx="0">e</tspan><tspan x="79" y="12" dx="0">l</tspan><tspan x="83" y="12" dx="0"> </tspan><tspan x="86" y="12" dx="0">e</tspan><tspan x="92" y="12" dx="0">e</tspan><tspan x="98" y="12" dx="0">n</tspan><tspan x="105" y="12" dx="0"> </tspan><tspan x="108" y="12" dx="0">l</tspan><tspan x="112" y="12" dx="0">o</tspan><tspan x="118" y="12" dx="0">c</tspan><tspan x="122" y="12" dx="0">a</tspan><tspan x="128" y="12" dx="0 0">ti</tspan><tspan x="136" y="12" dx="0">e</tspan><tspan x="143" y="12" dx="0"> </tspan><tspan x="146" y="12" dx="0">h</tspan><tspan x="152" y="12" dx="0">e</tspan><tspan x="158" y="12" dx="0">e</tspan><tspan x="164" y="12" dx="0 0">ft</tspan><tspan x="171" y="12" dx="0">}</tspan></text><rect x="180" y="27" width="234" height="102" stroke="none" fill="#D0D0D0"/><rect x="177" y="24" width="233" height="101" stroke="none" fill="#99CCFF"/><rect x="177" y="24" width="233" height="102" stroke="#9A8484"/><rect x="177" y="24" width="233" height="101" stroke="#9A8484"/><text stroke="none" fill="#000000" transform="translate(258 30)"><tspan x="0" y="12" dx="0">«</tspan><tspan x="6" y="12" dx="0">O</tspan><tspan x="15" y="12" dx="0">b</tspan><tspan x="22" y="12" dx="0">j</tspan><tspan x="25" y="12" dx="0">e</tspan><tspan x="32" y="12" dx="0">c</tspan><tspan x="38" y="12" dx="0 0">tt</tspan><tspan x="46" y="12" dx="0">y</tspan><tspan x="51" y="12" dx="0">p</tspan><tspan x="58" y="12" dx="0">e</tspan><tspan x="66" y="12" dx="0">»</tspan></text><text stroke="none" fill="#000000" font-weight="700" transform="translate(276 45)"><tspan x="0" y="12" dx="0">Divisie</tspan></text><path d="M177 65 410 65" stroke="#9A8484"/><text stroke="none" fill="#000000" transform="translate(190 73)"><tspan x="0" y="12" dx="0">«</tspan><tspan x="6" y="12" dx="0">A</tspan><tspan x="14" y="12" dx="0 0">tt</tspan><tspan x="22" y="12" dx="0">r</tspan><tspan x="26" y="12" dx="0">i</tspan><tspan x="30" y="12" dx="0">b</tspan><tspan x="38" y="12" dx="0">u</tspan><tspan x="45" y="12" dx="0">u</tspan><tspan x="52" y="12" dx="0">t</tspan><tspan x="56" y="12" dx="0">s</tspan><tspan x="63" y="12" dx="0">o</tspan><tspan x="70" y="12" dx="0">o</tspan><tspan x="77" y="12" dx="0">r</tspan><tspan x="81" y="12" dx="0">t</tspan><tspan x="86" y="12" dx="0">»</tspan></text><text stroke="none" fill="#66413F" transform="translate(182 88)"><tspan x="0" y="12" dx="0">+</tspan></text><text stroke="none" fill="#66413F" transform="translate(203 88)"><tspan x="0" y="12" dx="0">i</tspan><tspan x="4" y="12" dx="0">d</tspan><tspan x="11" y="12" dx="0">e</tspan><tspan x="19" y="12" dx="0">n</tspan><tspan x="26" y="12" dx="0 0">ti</tspan><tspan x="34" y="12" dx="0 0">fi</tspan><tspan x="43" y="12" dx="0">c</tspan><tspan x="48" y="12" dx="0">a</tspan><tspan x="55" y="12" dx="0 0">ti</tspan><tspan x="64" y="12" dx="0">e</tspan><tspan x="71" y="12" dx="0">:</tspan><tspan x="74" y="12" dx="0"> </tspan><tspan x="77" y="12" dx="0">N</tspan><tspan x="86" y="12" dx="0">E</tspan><tspan x="92" y="12" dx="0">N</tspan><tspan x="100" y="12" dx="0">3</tspan><tspan x="106" y="12" dx="0">6</tspan><tspan x="113" y="12" dx="0">1</tspan><tspan x="119" y="12" dx="0">0</tspan><tspan x="125" y="12" dx="0">I</tspan><tspan x="129" y="12" dx="0">D</tspan><tspan x="138" y="12" dx="0"> </tspan><tspan x="141" y="12" dx="0">{</tspan><tspan x="145" y="12" dx="0">i</tspan><tspan x="149" y="12" dx="0">d</tspan><tspan x="156" y="12" dx="0">}</tspan></text><rect x="184" y="579" width="234" height="147" stroke="none" fill="#D0D0D0"/><rect x="181" y="576" width="233" height="146" stroke="none" stroke-width="2" fill="#CCFFCC"/><rect x="181" y="576" width="233" height="147" stroke="#9A8484" stroke-width="2"/><rect x="181" y="576" width="233" height="146" stroke="#9A8484" stroke-width="2"/><text stroke="none" fill="#000000" transform="translate(262 582)"><tspan x="0" y="12" dx="0">«</tspan><tspan x="6" y="12" dx="0">O</tspan><tspan x="15" y="12" dx="0">b</tspan><tspan x="22" y="12" dx="0">j</tspan><tspan x="25" y="12" dx="0">e</tspan><tspan x="32" y="12" dx="0">c</tspan><tspan x="38" y="12" dx="0 0">tt</tspan><tspan x="46" y="12" dx="0">y</tspan><tspan x="51" y="12" dx="0">p</tspan><tspan x="58" y="12" dx="0">e</tspan><tspan x="66" y="12" dx="0">»</tspan></text><text stroke="none" fill="#000000" font-weight="700" transform="translate(249 597)"><tspan x="0" y="12" dx="0">Gebiedsaanwijzing</tspan></text><rect x="645" y="290" width="139" height="101" stroke="none" fill="#D0D0D0"/><rect x="642" y="287" width="138" height="100" stroke="none" stroke-width="2" fill="#CCFFFF"/><rect x="642" y="287" width="138" height="101" stroke="#9A8484" stroke-width="2"/><rect x="642" y="287" width="138" height="100" stroke="#9A8484" stroke-width="2"/><text stroke="none" fill="#000000" transform="translate(675 293)"><tspan x="0" y="12" dx="0">«</tspan><tspan x="6" y="12" dx="0">O</tspan><tspan x="15" y="12" dx="0">b</tspan><tspan x="22" y="12" dx="0">j</tspan><tspan x="25" y="12" dx="0">e</tspan><tspan x="32" y="12" dx="0">c</tspan><tspan x="38" y="12" dx="0 0">tt</tspan><tspan x="46" y="12" dx="0">y</tspan><tspan x="51" y="12" dx="0">p</tspan><tspan x="58" y="12" dx="0">e</tspan><tspan x="66" y="12" dx="0">»</tspan></text><text stroke="none" fill="#000000" font-weight="700" transform="translate(688 308)"><tspan x="0" y="12" dx="0">Hoofdlijn</tspan></text><rect x="593" y="579" width="212" height="146" stroke="none" fill="#D0D0D0"/><rect x="590" y="576" width="211" height="145" stroke="none" stroke-width="2" fill="#FFE4E1"/><rect x="590" y="576" width="211" height="146" stroke="#9A8484" stroke-width="2"/><rect x="590" y="576" width="211" height="145" stroke="#9A8484" stroke-width="2"/><text stroke="none" fill="#000000" transform="translate(660 582)"><tspan x="0" y="12" dx="0">«</tspan><tspan x="6" y="12" dx="0">O</tspan><tspan x="15" y="12" dx="0">b</tspan><tspan x="22" y="12" dx="0">j</tspan><tspan x="25" y="12" dx="0">e</tspan><tspan x="32" y="12" dx="0">c</tspan><tspan x="38" y="12" dx="0 0">tt</tspan><tspan x="46" y="12" dx="0">y</tspan><tspan x="51" y="12" dx="0">p</tspan><tspan x="58" y="12" dx="0">e</tspan><tspan x="66" y="12" dx="0">»</tspan></text><text stroke="none" fill="#000000" font-style="italic" font-weight="700" transform="translate(677 597)"><tspan x="0" y="12" dx="0">L</tspan><tspan x="5" y="12" dx="0">o</tspan><tspan x="11" y="12" dx="0">c</tspan><tspan x="17" y="12" dx="0">a</tspan><tspan x="23" y="12" dx="0 0">ti</tspan><tspan x="30" y="12" dx="0">e</tspan></text><path d="M590 617 801 617" stroke="#9A8484" stroke-width="2"/><text stroke="none" fill="#000000" transform="translate(603 625)"><tspan x="0" y="12" dx="0">«</tspan><tspan x="6" y="12" dx="0">A</tspan><tspan x="14" y="12" dx="0 0">tt</tspan><tspan x="22" y="12" dx="0">r</tspan><tspan x="26" y="12" dx="0">i</tspan><tspan x="30" y="12" dx="0">b</tspan><tspan x="38" y="12" dx="0">u</tspan><tspan x="45" y="12" dx="0">u</tspan><tspan x="52" y="12" dx="0">t</tspan><tspan x="56" y="12" dx="0">s</tspan><tspan x="63" y="12" dx="0">o</tspan><tspan x="70" y="12" dx="0">o</tspan><tspan x="77" y="12" dx="0">r</tspan><tspan x="81" y="12" dx="0">t</tspan><tspan x="86" y="12" dx="0">»</tspan></text><text stroke="none" fill="#66413F" transform="translate(595 640)"><tspan x="0" y="12" dx="0">+</tspan></text><text stroke="none" fill="#66413F" transform="translate(616 640)"><tspan x="0" y="12" dx="0">i</tspan><tspan x="4" y="12" dx="0">d</tspan><tspan x="11" y="12" dx="0">e</tspan><tspan x="19" y="12" dx="0">n</tspan><tspan x="26" y="12" dx="0 0">ti</tspan><tspan x="34" y="12" dx="0 0">fi</tspan><tspan x="43" y="12" dx="0">c</tspan><tspan x="48" y="12" dx="0">a</tspan><tspan x="55" y="12" dx="0 0">ti</tspan><tspan x="64" y="12" dx="0">e</tspan><tspan x="71" y="12" dx="0">:</tspan><tspan x="74" y="12" dx="0"> </tspan><tspan x="77" y="12" dx="0">N</tspan><tspan x="86" y="12" dx="0">E</tspan><tspan x="92" y="12" dx="0">N</tspan><tspan x="100" y="12" dx="0">3</tspan><tspan x="106" y="12" dx="0">6</tspan><tspan x="113" y="12" dx="0">1</tspan><tspan x="119" y="12" dx="0">0</tspan><tspan x="125" y="12" dx="0">I</tspan><tspan x="129" y="12" dx="0">D</tspan><tspan x="138" y="12" dx="0">_</tspan><tspan x="144" y="12" dx="0">L</tspan></text><text stroke="none" fill="#66413F" transform="translate(765 640)"><tspan x="0" y="12" dx="0">o</tspan><tspan x="7" y="12" dx="0">c</tspan><tspan x="11" y="12" dx="0">a</tspan><tspan x="17" y="12" dx="0 0">ti</tspan><tspan x="25" y="12" dx="0">e</tspan></text><text stroke="none" fill="#66413F" transform="translate(595 655)"><tspan x="0" y="12" dx="0">+</tspan></text><text stroke="none" fill="#66413F" transform="translate(616 655)"><tspan x="0" y="12" dx="0">noemer: CharacterString [0..1]</tspan></text><rect x="570" y="53" width="218" height="95" stroke="none" fill="#D0D0D0"/><rect x="567" y="50" width="217" height="94" stroke="none" fill="#87CEFA"/><rect x="567" y="50" width="217" height="95" stroke="#9A8484"/><rect x="567" y="50" width="217" height="94" stroke="#9A8484"/><text stroke="none" fill="#000000" transform="translate(640 56)"><tspan x="0" y="12" dx="0">«</tspan><tspan x="6" y="12" dx="0">O</tspan><tspan x="15" y="12" dx="0">b</tspan><tspan x="22" y="12" dx="0">j</tspan><tspan x="25" y="12" dx="0">e</tspan><tspan x="32" y="12" dx="0">c</tspan><tspan x="38" y="12" dx="0 0">tt</tspan><tspan x="46" y="12" dx="0">y</tspan><tspan x="51" y="12" dx="0">p</tspan><tspan x="58" y="12" dx="0">e</tspan><tspan x="66" y="12" dx="0">»</tspan></text><text stroke="none" fill="#000000" font-weight="700" transform="translate(645 71)"><tspan x="0" y="12" dx="0">Divisietekst</tspan></text><path d="M567 91 784 91" stroke="#9A8484"/><text stroke="none" fill="#000000" transform="translate(580 99)"><tspan x="0" y="12" dx="0">«</tspan><tspan x="6" y="12" dx="0">A</tspan><tspan x="14" y="12" dx="0 0">tt</tspan><tspan x="22" y="12" dx="0">r</tspan><tspan x="26" y="12" dx="0">i</tspan><tspan x="30" y="12" dx="0">b</tspan><tspan x="38" y="12" dx="0">u</tspan><tspan x="45" y="12" dx="0">u</tspan><tspan x="52" y="12" dx="0">t</tspan><tspan x="56" y="12" dx="0">s</tspan><tspan x="63" y="12" dx="0">o</tspan><tspan x="70" y="12" dx="0">o</tspan><tspan x="77" y="12" dx="0">r</tspan><tspan x="81" y="12" dx="0">t</tspan><tspan x="86" y="12" dx="0">»</tspan></text><text stroke="none" fill="#66413F" transform="translate(572 114)"><tspan x="0" y="12" dx="0">+</tspan></text><text stroke="none" fill="#66413F" transform="translate(593 114)"><tspan x="0" y="12" dx="0">i</tspan><tspan x="4" y="12" dx="0">d</tspan><tspan x="11" y="12" dx="0">e</tspan><tspan x="19" y="12" dx="0">n</tspan><tspan x="26" y="12" dx="0 0">ti</tspan><tspan x="34" y="12" dx="0 0">fi</tspan><tspan x="43" y="12" dx="0">c</tspan><tspan x="48" y="12" dx="0">a</tspan><tspan x="55" y="12" dx="0 0">ti</tspan><tspan x="64" y="12" dx="0">e</tspan><tspan x="71" y="12" dx="0">:</tspan><tspan x="74" y="12" dx="0"> </tspan><tspan x="77" y="12" dx="0">N</tspan><tspan x="86" y="12" dx="0">E</tspan><tspan x="92" y="12" dx="0">N</tspan><tspan x="100" y="12" dx="0">3</tspan><tspan x="106" y="12" dx="0">6</tspan><tspan x="113" y="12" dx="0">1</tspan><tspan x="119" y="12" dx="0">0</tspan><tspan x="125" y="12" dx="0">I</tspan><tspan x="129" y="12" dx="0">D</tspan><tspan x="138" y="12" dx="0"> </tspan><tspan x="141" y="12" dx="0">{</tspan><tspan x="145" y="12" dx="0">i</tspan><tspan x="149" y="12" dx="0">d</tspan><tspan x="156" y="12" dx="0">}</tspan></text><rect x="189" y="221" width="284" height="44" stroke="none" fill="#D0D0D0"/><rect x="186" y="218" width="283" height="43" stroke="none" fill="#CCFFFF"/><rect x="186" y="218" width="283" height="44" stroke="#9A8484"/><rect x="186" y="218" width="283" height="43" stroke="#9A8484"/><text stroke="none" fill="#595959" transform="translate(305 224)"><tspan x="0" y="12" dx="0">«Keuze»</tspan></text><text stroke="none" fill="#595959" font-weight="700" transform="translate(273 239)"><tspan x="0" y="12" dx="0">DivisieOfDivisietekst</tspan></text><rect x="641" y="195" width="147" height="60" stroke="none" fill="#D0D0D0"/><rect x="638" y="192" width="146" height="59" stroke="none" fill="#FFFE99"/><rect x="638" y="192" width="146" height="60" stroke="#9A8484"/><rect x="638" y="192" width="146" height="59" stroke="#9A8484"/><text stroke="none" fill="#000000" transform="translate(675 198)"><tspan x="0" y="12" dx="0">«</tspan><tspan x="6" y="12" dx="0">O</tspan><tspan x="15" y="12" dx="0">b</tspan><tspan x="22" y="12" dx="0">j</tspan><tspan x="25" y="12" dx="0">e</tspan><tspan x="32" y="12" dx="0">c</tspan><tspan x="38" y="12" dx="0 0">tt</tspan><tspan x="46" y="12" dx="0">y</tspan><tspan x="51" y="12" dx="0">p</tspan><tspan x="58" y="12" dx="0">e</tspan><tspan x="66" y="12" dx="0">»</tspan></text><text stroke="none" fill="#000000" font-weight="700" transform="translate(697 213)"><tspan x="0" y="12" dx="0">Kaart</tspan></text><path d="M808 87 785 87" stroke="#69738C" stroke-dasharray="7 4"/><path d="M808 423 808 87" stroke="#69738C" stroke-dasharray="7 4"/><path d="M692 423 808 423" stroke="#69738C" stroke-dasharray="7 4"/><path d="M692 576 692 426" stroke="#69738C" stroke-dasharray="7 4"/><path d="M692 576 687 561M692 576 697 561" stroke="#69738C"/><path d="M475 373 525 373M525 373 525 222M525 222 638 222M638 222 623 228M638 222 623 216" stroke="#69738C" stroke-width="2"/><path d="M416 640 589 640M589 640 574 646M589 640 574 634" stroke="#69738C" stroke-width="2"/><path d="M307 499 307 575M307 575 301 560M307 575 313 560" stroke="#69738C" stroke-width="2"/><path d="M817 38 414 38" stroke="#69738C" stroke-dasharray="7 4"/><path d="M719 447 825 447" stroke="#69738C" stroke-dasharray="7 4"/><path d="M719 576 719 448" stroke="#69738C" stroke-dasharray="7 4"/><path d="M719 576 714 561M719 576 724 561" stroke="#69738C"/><path d="M475 454 656 454M656 454 656 576M656 576 650 561M656 576 662 561" stroke="#69738C" stroke-width="2"/><path d="M382 218 382 175M382 175 609 175M609 175 609 145M609 145 615 160M609 145 603 160" stroke="#69738C" stroke-width="2"/><path d="M294 218 294 126M294 126 300 141M294 126 288 141" stroke="#69738C" stroke-width="2"/><path d="M328 340 328 262M328 262 334 277M328 262 322 277" stroke="#69738C" stroke-width="2"/><path d="M475 405 564 405M564 405 564 331M564 331 642 331M642 331 627 337M642 331 627 325" stroke="#69738C" stroke-width="2"/><g transform="matrix(1 0 0 -1 322 529)"><rect x="0" y="-13" width="81" height="13" stroke="none" fill="#FFFFFF"/></g><text stroke="none" fill="#595959" font-size="10" transform="translate(322 529)"><tspan x="0" y="10" dx="0">+gebiedsaanwijzing</tspan></text><g transform="matrix(1 0 0 -1 322 542)"><rect x="0" y="-13" width="49" height="13" stroke="none" fill="#FFFFFF"/></g><text stroke="none" fill="#595959" font-size="10" transform="translate(322 542)"><tspan x="0" y="10" dx="0">«</tspan><tspan x="5" y="10" dx="0">R</tspan><tspan x="10.3333" y="10" dx="0">e</tspan><tspan x="15.3333" y="10" dx="0">l</tspan><tspan x="17.6667" y="10" dx="0">a</tspan><tspan x="22.3333" y="10" dx="0 0">ti</tspan><tspan x="28" y="10" dx="0">e</tspan><tspan x="33" y="10" dx="0">r</tspan><tspan x="36.3333" y="10" dx="0">o</tspan><tspan x="41.6667" y="10" dx="0">l</tspan><tspan x="44" y="10" dx="0">»</tspan></text><g transform="matrix(1 0 0 -1 322 556)"><rect x="0" y="-13" width="17" height="13" stroke="none" fill="#FFFFFF"/></g><text stroke="none" fill="#595959" font-size="10" transform="translate(322 556)"><tspan x="0" y="10" dx="0">0..*</tspan></text><g transform="matrix(1 0 0 -1 621 150)"><rect x="0" y="-13" width="5" height="13" stroke="none" fill="#FFFFFF"/></g><text stroke="none" fill="#595959" font-size="10" transform="translate(621 150)"><tspan x="0" y="10" dx="0">1</tspan></text><g transform="matrix(1 0 0 -1 710 483)"><rect x="0" y="-13" width="71" height="13" stroke="none" fill="#FFFFFF"/></g><text stroke="none" fill="#595959" font-size="10" transform="translate(710 483)"><tspan x="0" y="10" dx="0">+werkingsgebied</tspan></text><g transform="matrix(1 0 0 -1 700 558)"><rect x="0" y="-13" width="17" height="13" stroke="none" fill="#FFFFFF"/></g><text stroke="none" fill="#595959" font-size="10" transform="translate(700 558)"><tspan x="0" y="10" dx="0">0..*</tspan></text><g transform="matrix(1 0 0 -1 550 352)"><rect x="0" y="-13" width="87" height="13" stroke="none" fill="#FFFFFF"/></g><text stroke="none" fill="#595959" font-size="10" transform="translate(550 352)"><tspan x="0" y="10" dx="0">+hoofdlijnaanduiding</tspan></text><g transform="matrix(1 0 0 -1 588 365)"><rect x="0" y="-13" width="49" height="13" stroke="none" fill="#FFFFFF"/></g><text stroke="none" fill="#595959" font-size="10" transform="translate(588 365)"><tspan x="0" y="10" dx="0">«</tspan><tspan x="5" y="10" dx="0">R</tspan><tspan x="10.3333" y="10" dx="0">e</tspan><tspan x="15.3333" y="10" dx="0">l</tspan><tspan x="17.6667" y="10" dx="0">a</tspan><tspan x="22.3333" y="10" dx="0 0">ti</tspan><tspan x="28" y="10" dx="0">e</tspan><tspan x="33" y="10" dx="0">r</tspan><tspan x="36.3333" y="10" dx="0">o</tspan><tspan x="41.6667" y="10" dx="0">l</tspan><tspan x="44" y="10" dx="0">»</tspan></text><g transform="matrix(1 0 0 -1 621 340)"><rect x="0" y="-13" width="17" height="13" stroke="none" fill="#FFFFFF"/></g><text stroke="none" fill="#595959" font-size="10" transform="translate(621 340)"><tspan x="0" y="10" dx="0">0..*</tspan></text><g transform="matrix(1 0 0 -1 352 273)"><rect x="0" y="-13" width="77" height="13" stroke="none" fill="#FFFFFF"/></g><text stroke="none" fill="#595959" font-size="10" transform="translate(352 273)"><tspan x="0" y="10" dx="0">+divisieaanduiding</tspan></text><g transform="matrix(1 0 0 -1 352 286)"><rect x="0" y="-13" width="49" height="13" stroke="none" fill="#FFFFFF"/></g><text stroke="none" fill="#595959" font-size="10" transform="translate(352 286)"><tspan x="0" y="10" dx="0">«</tspan><tspan x="5" y="10" dx="0">R</tspan><tspan x="10.3333" y="10" dx="0">e</tspan><tspan x="15.3333" y="10" dx="0">l</tspan><tspan x="17.6667" y="10" dx="0">a</tspan><tspan x="22.3333" y="10" dx="0 0">ti</tspan><tspan x="28" y="10" dx="0">e</tspan><tspan x="33" y="10" dx="0">r</tspan><tspan x="36.3333" y="10" dx="0">o</tspan><tspan x="41.6667" y="10" dx="0">l</tspan><tspan x="44" y="10" dx="0">»</tspan></text><g transform="matrix(1 0 0 -1 340 267)"><rect x="0" y="-13" width="5" height="13" stroke="none" fill="#FFFFFF"/></g><text stroke="none" fill="#595959" font-size="10" transform="translate(340 267)"><tspan x="0" y="10" dx="0">1</tspan></text><g transform="matrix(1 0 0 -1 306 131)"><rect x="0" y="-13" width="5" height="13" stroke="none" fill="#FFFFFF"/></g><text stroke="none" fill="#595959" font-size="10" transform="translate(306 131)"><tspan x="0" y="10" dx="0">1</tspan></text><g transform="matrix(1 0 0 -1 508 657)"><rect x="0" y="-13" width="78" height="13" stroke="none" fill="#FFFFFF"/></g><text stroke="none" fill="#595959" font-size="10" transform="translate(508 657)"><tspan x="0" y="10" dx="0">+</tspan><tspan x="5.33333" y="10" dx="0">l</tspan><tspan x="7.66667" y="10" dx="0">o</tspan><tspan x="13" y="10" dx="0">c</tspan><tspan x="17.3333" y="10" dx="0">a</tspan><tspan x="22" y="10" dx="0 0">ti</tspan><tspan x="27.6667" y="10" dx="0">e</tspan><tspan x="32.6667" y="10" dx="0">a</tspan><tspan x="37.3333" y="10" dx="0">a</tspan><tspan x="42" y="10" dx="0">n</tspan><tspan x="47.3333" y="10" dx="0">d</tspan><tspan x="52.6667" y="10" dx="0">u</tspan><tspan x="58" y="10" dx="0">i</tspan><tspan x="60.3333" y="10" dx="0">d</tspan><tspan x="65.6667" y="10" dx="0">i</tspan><tspan x="68" y="10" dx="0">n</tspan><tspan x="73.3333" y="10" dx="0">g</tspan></text><g transform="matrix(1 0 0 -1 537 670)"><rect x="0" y="-13" width="49" height="13" stroke="none" fill="#FFFFFF"/></g><text stroke="none" fill="#595959" font-size="10" transform="translate(537 670)"><tspan x="0" y="10" dx="0">«</tspan><tspan x="5" y="10" dx="0">R</tspan><tspan x="10.3333" y="10" dx="0">e</tspan><tspan x="15.3333" y="10" dx="0">l</tspan><tspan x="17.6667" y="10" dx="0">a</tspan><tspan x="22.3333" y="10" dx="0 0">ti</tspan><tspan x="28" y="10" dx="0">e</tspan><tspan x="33" y="10" dx="0">r</tspan><tspan x="36.3333" y="10" dx="0">o</tspan><tspan x="41.6667" y="10" dx="0">l</tspan><tspan x="44" y="10" dx="0">»</tspan></text><g transform="matrix(1 0 0 -1 568 689)"><rect x="0" y="-13" width="17" height="13" stroke="none" fill="#FFFFFF"/></g><text stroke="none" fill="#595959" font-size="10" transform="translate(568 689)"><tspan x="0" y="10" dx="0">1..*</tspan></text><g transform="matrix(1 0 0 -1 570 527)"><rect x="0" y="-13" width="78" height="13" stroke="none" fill="#FFFFFF"/></g><text stroke="none" fill="#595959" font-size="10" transform="translate(570 527)"><tspan x="0" y="10" dx="0">+</tspan><tspan x="5.33333" y="10" dx="0">l</tspan><tspan x="7.66667" y="10" dx="0">o</tspan><tspan x="13" y="10" dx="0">c</tspan><tspan x="17.3333" y="10" dx="0">a</tspan><tspan x="22" y="10" dx="0 0">ti</tspan><tspan x="27.6667" y="10" dx="0">e</tspan><tspan x="32.6667" y="10" dx="0">a</tspan><tspan x="37.3333" y="10" dx="0">a</tspan><tspan x="42" y="10" dx="0">n</tspan><tspan x="47.3333" y="10" dx="0">d</tspan><tspan x="52.6667" y="10" dx="0">u</tspan><tspan x="58" y="10" dx="0">i</tspan><tspan x="60.3333" y="10" dx="0">d</tspan><tspan x="65.6667" y="10" dx="0">i</tspan><tspan x="68" y="10" dx="0">n</tspan><tspan x="73.3333" y="10" dx="0">g</tspan></text><g transform="matrix(1 0 0 -1 599 540)"><rect x="0" y="-13" width="49" height="13" stroke="none" fill="#FFFFFF"/></g><text stroke="none" fill="#595959" font-size="10" transform="translate(599 540)"><tspan x="0" y="10" dx="0">«</tspan><tspan x="5" y="10" dx="0">R</tspan><tspan x="10.3333" y="10" dx="0">e</tspan><tspan x="15.3333" y="10" dx="0">l</tspan><tspan x="17.6667" y="10" dx="0">a</tspan><tspan x="22.3333" y="10" dx="0 0">ti</tspan><tspan x="28" y="10" dx="0">e</tspan><tspan x="33" y="10" dx="0">r</tspan><tspan x="36.3333" y="10" dx="0">o</tspan><tspan x="41.6667" y="10" dx="0">l</tspan><tspan x="44" y="10" dx="0">»</tspan></text><g transform="matrix(1 0 0 -1 619 557)"><rect x="0" y="-13" width="17" height="13" stroke="none" fill="#FFFFFF"/></g><text stroke="none" fill="#595959" font-size="10" transform="translate(619 557)"><tspan x="0" y="10" dx="0">0..*</tspan></text><g transform="matrix(1 0 0 -1 414 43)"><rect x="0" y="-13" width="17" height="13" stroke="none" fill="#FFFFFF"/></g><text stroke="none" fill="#595959" font-size="10" transform="translate(414 43)"><tspan x="0" y="10" dx="0">0..*</tspan></text><g transform="matrix(1 0 0 -1 729 532)"><rect x="0" y="-13" width="71" height="13" stroke="none" fill="#FFFFFF"/></g><text stroke="none" fill="#595959" font-size="10" transform="translate(729 532)"><tspan x="0" y="10" dx="0">+werkingsgebied</tspan></text><g transform="matrix(1 0 0 -1 731 554)"><rect x="0" y="-13" width="17" height="13" stroke="none" fill="#FFFFFF"/></g><text stroke="none" fill="#595959" font-size="10" transform="translate(731 554)"><tspan x="0" y="10" dx="0">0..*</tspan></text><g transform="matrix(1 0 0 -1 530 232)"><rect x="0" y="-13" width="73" height="13" stroke="none" fill="#FFFFFF"/></g><text stroke="none" fill="#595959" font-size="10" transform="translate(530 232)"><tspan x="0" y="10" dx="0">+kaartaanduiding</tspan></text><g transform="matrix(1 0 0 -1 541 245)"><rect x="0" y="-13" width="49" height="13" stroke="none" fill="#FFFFFF"/></g><text stroke="none" fill="#595959" font-size="10" transform="translate(541 245)"><tspan x="0" y="10" dx="0">«</tspan><tspan x="5" y="10" dx="0">R</tspan><tspan x="10.3333" y="10" dx="0">e</tspan><tspan x="15.3333" y="10" dx="0">l</tspan><tspan x="17.6667" y="10" dx="0">a</tspan><tspan x="22.3333" y="10" dx="0 0">ti</tspan><tspan x="28" y="10" dx="0">e</tspan><tspan x="33" y="10" dx="0">r</tspan><tspan x="36.3333" y="10" dx="0">o</tspan><tspan x="41.6667" y="10" dx="0">l</tspan><tspan x="44" y="10" dx="0">»</tspan></text><g transform="matrix(1 0 0 -1 604 229)"><rect x="0" y="-13" width="17" height="13" stroke="none" fill="#FFFFFF"/></g><text stroke="none" fill="#595959" font-size="10" transform="translate(604 229)"><tspan x="0" y="10" dx="0">0..*</tspan></text></g></g></g></g></svg>