<svg width="875.78" height="652.82" viewBox="29.6077 -2.92925 656.835 489.615" xmlns="http://www.w3.org/2000/svg" xmlns:xlink="http://www.w3.org/1999/xlink" overflow="hidden"><g transform="matrix(1 0 0 -1 0 768)"><g stroke="#000000" stroke-linecap="round" stroke-linejoin="round" stroke-miterlimit="3" fill="none" fill-rule="evenodd" font-weight="400" baseline-shift="0"><g transform="matrix(0.75 0 0 0.75 0 768.2)"><g font-family="CalibriUnicode" font-size="13" transform="scale(1.00287 -1.00395)"><rect x="50" y="7" width="852" height="629" stroke="#9A8484"/><rect x="90" y="391" width="188" height="137" stroke="none" fill="#D0D0D0"/><rect x="87" y="388" width="187" height="136" stroke="none" stroke-width="2" fill="#CCFFCC"/><rect x="87" y="388" width="187" height="137" stroke="#9A8484" stroke-width="2"/><rect x="87" y="388" width="187" height="136" stroke="#9A8484" stroke-width="2"/><text stroke="none" fill="#000000" transform="translate(145 394)"><tspan x="0" y="12" dx="0">«</tspan><tspan x="6" y="12" dx="0">O</tspan><tspan x="15" y="12" dx="0">b</tspan><tspan x="22" y="12" dx="0">j</tspan><tspan x="25" y="12" dx="0">e</tspan><tspan x="32" y="12" dx="0">c</tspan><tspan x="38" y="12" dx="0 0">tt</tspan><tspan x="46" y="12" dx="0">y</tspan><tspan x="51" y="12" dx="0">p</tspan><tspan x="58" y="12" dx="0">e</tspan><tspan x="66" y="12" dx="0">»</tspan></text><text stroke="none" fill="#000000" font-weight="700" transform="translate(157 409)"><tspan x="0" y="12" dx="0">A</tspan><tspan x="7" y="12" dx="0">c</tspan><tspan x="13" y="12" dx="0 0">ti</tspan><tspan x="20" y="12" dx="0">v</tspan><tspan x="26" y="12" dx="0">i</tspan><tspan x="29" y="12" dx="0">t</tspan><tspan x="33" y="12" dx="0">e</tspan><tspan x="40" y="12" dx="0">i</tspan><tspan x="43" y="12" dx="0">t</tspan></text><path d="M87 429 274 429" stroke="#9A8484" stroke-width="2"/><text stroke="none" fill="#000000" transform="translate(100 437)"><tspan x="0" y="12" dx="0">«</tspan><tspan x="6" y="12" dx="0">A</tspan><tspan x="14" y="12" dx="0 0">tt</tspan><tspan x="22" y="12" dx="0">r</tspan><tspan x="26" y="12" dx="0">i</tspan><tspan x="30" y="12" dx="0">b</tspan><tspan x="38" y="12" dx="0">u</tspan><tspan x="45" y="12" dx="0">u</tspan><tspan x="52" y="12" dx="0">t</tspan><tspan x="56" y="12" dx="0">s</tspan><tspan x="63" y="12" dx="0">o</tspan><tspan x="70" y="12" dx="0">o</tspan><tspan x="77" y="12" dx="0">r</tspan><tspan x="81" y="12" dx="0">t</tspan><tspan x="85" y="12" dx="0">»</tspan></text><text stroke="none" fill="#66413F" transform="translate(92 452)"><tspan x="0" y="12" dx="0">+</tspan></text><text stroke="none" fill="#66413F" transform="translate(113 452)"><tspan x="0" y="12" dx="0">i</tspan><tspan x="4" y="12" dx="0">d</tspan><tspan x="11" y="12" dx="0">e</tspan><tspan x="19" y="12" dx="0">n</tspan><tspan x="26" y="12" dx="0 0">ti</tspan><tspan x="34" y="12" dx="0 0">fi</tspan><tspan x="43" y="12" dx="0">c</tspan><tspan x="48" y="12" dx="0">a</tspan><tspan x="55" y="12" dx="0 0">ti</tspan><tspan x="64" y="12" dx="0">e</tspan><tspan x="71" y="12" dx="0">:</tspan><tspan x="74" y="12" dx="0"> </tspan><tspan x="77" y="12" dx="0">N</tspan><tspan x="85" y="12" dx="0">E</tspan><tspan x="92" y="12" dx="0">N</tspan><tspan x="100" y="12" dx="0">3</tspan><tspan x="106" y="12" dx="0">6</tspan><tspan x="113" y="12" dx="0">1</tspan></text><text stroke="none" fill="#66413F" transform="translate(232 452)"><tspan x="0" y="12" dx="0">0ID {id}</tspan></text><text stroke="none" fill="#66413F" transform="translate(92 467)"><tspan x="0" y="12" dx="0">+</tspan></text><text stroke="none" fill="#66413F" transform="translate(113 467)"><tspan x="0" y="12" dx="0">naam: CharacterString</tspan></text><text stroke="none" fill="#66413F" transform="translate(92 482)"><tspan x="0" y="12" dx="0">+</tspan></text><text stroke="none" fill="#66413F" transform="translate(113 482)"><tspan x="0" y="12" dx="0">g</tspan><tspan x="6" y="12" dx="0">r</tspan><tspan x="10" y="12" dx="0">o</tspan><tspan x="18" y="12" dx="0">e</tspan><tspan x="25" y="12" dx="0">p</tspan><tspan x="32" y="12" dx="0">:</tspan><tspan x="35" y="12" dx="0"> </tspan><tspan x="39" y="12" dx="0">A</tspan><tspan x="46" y="12" dx="0">c</tspan><tspan x="51" y="12" dx="0 0">ti</tspan><tspan x="59" y="12" dx="0">v</tspan><tspan x="65" y="12" dx="0">i</tspan><tspan x="69" y="12" dx="0">t</tspan><tspan x="73" y="12" dx="0">e</tspan><tspan x="80" y="12" dx="0">i</tspan><tspan x="84" y="12" dx="0">t</tspan><tspan x="89" y="12" dx="0">e</tspan><tspan x="96" y="12" dx="0">n</tspan><tspan x="103" y="12" dx="0">g</tspan><tspan x="109" y="12" dx="0">r</tspan><tspan x="114" y="12" dx="0">o</tspan><tspan x="121" y="12" dx="0">e</tspan><tspan x="128" y="12" dx="0">p</tspan></text><rect x="88" y="27" width="225" height="157" stroke="none" fill="#D0D0D0"/><rect x="85" y="24" width="224" height="156" stroke="none" stroke-width="2" fill="#CCFFFF"/><rect x="85" y="24" width="224" height="157" stroke="#9A8484" stroke-width="2"/><rect x="85" y="24" width="224" height="156" stroke="#9A8484" stroke-width="2"/><text stroke="none" fill="#000000" transform="translate(161 30)"><tspan x="0" y="12" dx="0">«</tspan><tspan x="6" y="12" dx="0">O</tspan><tspan x="15" y="12" dx="0">b</tspan><tspan x="22" y="12" dx="0">j</tspan><tspan x="25" y="12" dx="0">e</tspan><tspan x="32" y="12" dx="0">c</tspan><tspan x="38" y="12" dx="0 0">tt</tspan><tspan x="46" y="12" dx="0">y</tspan><tspan x="51" y="12" dx="0">p</tspan><tspan x="58" y="12" dx="0">e</tspan><tspan x="66" y="12" dx="0">»</tspan></text><text stroke="none" fill="#000000" font-style="italic" font-weight="700" transform="translate(158 45)"><tspan x="0" y="12" dx="0">JuridischeRegel</tspan></text><path d="M85 65 309 65" stroke="#9A8484" stroke-width="2"/><text stroke="none" fill="#000000" transform="translate(98 73)"><tspan x="0" y="12" dx="0">«</tspan><tspan x="6" y="12" dx="0">A</tspan><tspan x="14" y="12" dx="0 0">tt</tspan><tspan x="22" y="12" dx="0">r</tspan><tspan x="26" y="12" dx="0">i</tspan><tspan x="30" y="12" dx="0">b</tspan><tspan x="38" y="12" dx="0">u</tspan><tspan x="45" y="12" dx="0">u</tspan><tspan x="52" y="12" dx="0">t</tspan><tspan x="56" y="12" dx="0">s</tspan><tspan x="63" y="12" dx="0">o</tspan><tspan x="70" y="12" dx="0">o</tspan><tspan x="77" y="12" dx="0">r</tspan><tspan x="81" y="12" dx="0">t</tspan><tspan x="85" y="12" dx="0">»</tspan></text><text stroke="none" fill="#66413F" transform="translate(90 88)"><tspan x="0" y="12" dx="0">+</tspan></text><text stroke="none" fill="#66413F" transform="translate(111 88)"><tspan x="0" y="12" dx="0">i</tspan><tspan x="4" y="12" dx="0">d</tspan><tspan x="11" y="12" dx="0">e</tspan><tspan x="19" y="12" dx="0">n</tspan><tspan x="26" y="12" dx="0 0">ti</tspan><tspan x="34" y="12" dx="0 0">fi</tspan><tspan x="43" y="12" dx="0">c</tspan><tspan x="48" y="12" dx="0">a</tspan><tspan x="55" y="12" dx="0 0">ti</tspan><tspan x="64" y="12" dx="0">e</tspan><tspan x="71" y="12" dx="0">:</tspan><tspan x="74" y="12" dx="0"> </tspan><tspan x="77" y="12" dx="0">N</tspan><tspan x="85" y="12" dx="0">E</tspan><tspan x="92" y="12" dx="0">N</tspan><tspan x="100" y="12" dx="0">3</tspan><tspan x="106" y="12" dx="0">6</tspan><tspan x="113" y="12" dx="0">1</tspan><tspan x="119" y="12" dx="0">0</tspan><tspan x="125" y="12" dx="0">I</tspan><tspan x="129" y="12" dx="0">D</tspan><tspan x="138" y="12" dx="0"> </tspan><tspan x="141" y="12" dx="0">{</tspan><tspan x="145" y="12" dx="0">i</tspan><tspan x="149" y="12" dx="0">d</tspan><tspan x="156" y="12" dx="0">}</tspan></text><text stroke="none" fill="#66413F" transform="translate(90 103)"><tspan x="0" y="12" dx="0">+</tspan></text><text stroke="none" fill="#66413F" transform="translate(111 103)"><tspan x="0" y="12" dx="0">i</tspan><tspan x="4" y="12" dx="0">d</tspan><tspan x="11" y="12" dx="0">e</tspan><tspan x="19" y="12" dx="0">a</tspan><tspan x="26" y="12" dx="0">l</tspan><tspan x="30" y="12" dx="0">i</tspan><tspan x="34" y="12" dx="0">s</tspan><tspan x="41" y="12" dx="0">a</tspan><tspan x="48" y="12" dx="0 0">ti</tspan><tspan x="56" y="12" dx="0">e</tspan><tspan x="64" y="12" dx="0">:</tspan><tspan x="67" y="12" dx="0"> </tspan><tspan x="70" y="12" dx="0">I</tspan><tspan x="74" y="12" dx="0">d</tspan><tspan x="81" y="12" dx="0">e</tspan><tspan x="89" y="12" dx="0">a</tspan><tspan x="96" y="12" dx="0">l</tspan><tspan x="100" y="12" dx="0">i</tspan><tspan x="104" y="12" dx="0">s</tspan><tspan x="110" y="12" dx="0">a</tspan><tspan x="118" y="12" dx="0 0">ti</tspan><tspan x="126" y="12" dx="0">e</tspan></text><text stroke="none" fill="#66413F" transform="translate(90 118)"><tspan x="0" y="12" dx="0">+</tspan></text><text stroke="none" fill="#66413F" transform="translate(111 118)"><tspan x="0" y="12" dx="0">thema: Thema [0..*]</tspan></text><rect x="662" y="437" width="211" height="117" stroke="none" fill="#D0D0D0"/><rect x="659" y="434" width="210" height="116" stroke="none" fill="#FFE4E1"/><rect x="659" y="434" width="210" height="117" stroke="#9A8484"/><rect x="659" y="434" width="210" height="116" stroke="#9A8484"/><text stroke="none" fill="#000000" transform="translate(728 440)"><tspan x="0" y="12" dx="0">«</tspan><tspan x="6" y="12" dx="0">O</tspan><tspan x="15" y="12" dx="0">b</tspan><tspan x="22" y="12" dx="0">j</tspan><tspan x="25" y="12" dx="0">e</tspan><tspan x="32" y="12" dx="0">c</tspan><tspan x="38" y="12" dx="0 0">tt</tspan><tspan x="46" y="12" dx="0">y</tspan><tspan x="51" y="12" dx="0">p</tspan><tspan x="58" y="12" dx="0">e</tspan><tspan x="66" y="12" dx="0">»</tspan></text><text stroke="none" fill="#000000" font-style="italic" font-weight="700" transform="translate(746 455)"><tspan x="0" y="12" dx="0">L</tspan><tspan x="5" y="12" dx="0">o</tspan><tspan x="11" y="12" dx="0">c</tspan><tspan x="17" y="12" dx="0">a</tspan><tspan x="23" y="12" dx="0 0">ti</tspan><tspan x="30" y="12" dx="0">e</tspan></text><path d="M659 475 869 475" stroke="#9A8484"/><text stroke="none" fill="#000000" transform="translate(672 483)"><tspan x="0" y="12" dx="0">«</tspan><tspan x="6" y="12" dx="0">A</tspan><tspan x="14" y="12" dx="0 0">tt</tspan><tspan x="22" y="12" dx="0">r</tspan><tspan x="26" y="12" dx="0">i</tspan><tspan x="30" y="12" dx="0">b</tspan><tspan x="38" y="12" dx="0">u</tspan><tspan x="45" y="12" dx="0">u</tspan><tspan x="52" y="12" dx="0">t</tspan><tspan x="56" y="12" dx="0">s</tspan><tspan x="63" y="12" dx="0">o</tspan><tspan x="70" y="12" dx="0">o</tspan><tspan x="77" y="12" dx="0">r</tspan><tspan x="81" y="12" dx="0">t</tspan><tspan x="85" y="12" dx="0">»</tspan></text><text stroke="none" fill="#66413F" transform="translate(664 498)"><tspan x="0" y="12" dx="0">+</tspan></text><text stroke="none" fill="#66413F" transform="translate(685 498)"><tspan x="0" y="12" dx="0">i</tspan><tspan x="4" y="12" dx="0">d</tspan><tspan x="11" y="12" dx="0">e</tspan><tspan x="19" y="12" dx="0">n</tspan><tspan x="26" y="12" dx="0 0">ti</tspan><tspan x="34" y="12" dx="0 0">fi</tspan><tspan x="43" y="12" dx="0">c</tspan><tspan x="48" y="12" dx="0">a</tspan><tspan x="55" y="12" dx="0 0">ti</tspan><tspan x="64" y="12" dx="0">e</tspan><tspan x="71" y="12" dx="0">:</tspan><tspan x="74" y="12" dx="0"> </tspan><tspan x="77" y="12" dx="0">N</tspan><tspan x="85" y="12" dx="0">E</tspan><tspan x="92" y="12" dx="0">N</tspan><tspan x="100" y="12" dx="0">3</tspan><tspan x="106" y="12" dx="0">6</tspan><tspan x="113" y="12" dx="0">1</tspan><tspan x="119" y="12" dx="0">0</tspan><tspan x="125" y="12" dx="0">I</tspan><tspan x="129" y="12" dx="0">D</tspan><tspan x="138" y="12" dx="0">_</tspan><tspan x="144" y="12" dx="0">L</tspan></text><text stroke="none" fill="#66413F" transform="translate(834 498)"><tspan x="0" y="12" dx="0">o</tspan><tspan x="7" y="12" dx="0">c</tspan><tspan x="11" y="12" dx="0">a</tspan><tspan x="17" y="12" dx="0 0">ti</tspan><tspan x="25" y="12" dx="0">e</tspan></text><text stroke="none" fill="#66413F" transform="translate(664 513)"><tspan x="0" y="12" dx="0">+</tspan></text><text stroke="none" fill="#66413F" transform="translate(685 513)"><tspan x="0" y="12" dx="0">noemer: CharacterString [0..1]</tspan></text><rect x="88" y="223" width="229" height="70" stroke="none" fill="#D0D0D0"/><rect x="85" y="220" width="228" height="69" stroke="none" fill="#CCFFFF"/><rect x="85" y="220" width="228" height="70" stroke="#9A8484"/><rect x="85" y="220" width="228" height="69" stroke="#9A8484"/><text stroke="none" fill="#000000" transform="translate(163 226)"><tspan x="0" y="12" dx="0">«</tspan><tspan x="6" y="12" dx="0">O</tspan><tspan x="15" y="12" dx="0">b</tspan><tspan x="22" y="12" dx="0">j</tspan><tspan x="25" y="12" dx="0">e</tspan><tspan x="32" y="12" dx="0">c</tspan><tspan x="38" y="12" dx="0 0">tt</tspan><tspan x="46" y="12" dx="0">y</tspan><tspan x="51" y="12" dx="0">p</tspan><tspan x="58" y="12" dx="0">e</tspan><tspan x="66" y="12" dx="0">»</tspan></text><text stroke="none" fill="#000000" font-weight="700" transform="translate(108 241)"><tspan x="0" y="12" dx="0">JuridischeRegel::RegelVoorIedereen</tspan></text><rect x="365" y="292" width="319" height="99" stroke="none" fill="#D0D0D0"/><rect x="362" y="289" width="318" height="98" stroke="none" stroke-width="2" fill="#CCFFCC"/><rect x="362" y="289" width="318" height="99" stroke="#9A8484" stroke-width="2"/><rect x="362" y="289" width="318" height="98" stroke="#9A8484" stroke-width="2"/><text stroke="none" fill="#000000" transform="translate(485 295)"><tspan x="0" y="12" dx="0">«</tspan><tspan x="6" y="12" dx="0">O</tspan><tspan x="15" y="12" dx="0">b</tspan><tspan x="22" y="12" dx="0">j</tspan><tspan x="25" y="12" dx="0">e</tspan><tspan x="32" y="12" dx="0">c</tspan><tspan x="38" y="12" dx="0 0">tt</tspan><tspan x="46" y="12" dx="0">y</tspan><tspan x="51" y="12" dx="0">p</tspan><tspan x="58" y="12" dx="0">e</tspan><tspan x="66" y="12" dx="0">»</tspan></text><text stroke="none" fill="#000000" font-weight="700" transform="translate(451 310)"><tspan x="0" y="12" dx="0">A</tspan><tspan x="7" y="12" dx="0">c</tspan><tspan x="13" y="12" dx="0 0">ti</tspan><tspan x="20" y="12" dx="0">v</tspan><tspan x="26" y="12" dx="0">i</tspan><tspan x="29" y="12" dx="0">t</tspan><tspan x="33" y="12" dx="0">e</tspan><tspan x="40" y="12" dx="0">i</tspan><tspan x="43" y="12" dx="0">t</tspan><tspan x="47" y="12" dx="0">L</tspan><tspan x="52" y="12" dx="0">o</tspan><tspan x="58" y="12" dx="0">c</tspan><tspan x="64" y="12" dx="0">a</tspan><tspan x="70" y="12" dx="0 0">ti</tspan><tspan x="77" y="12" dx="0">e</tspan><tspan x="83" y="12" dx="0">a</tspan><tspan x="90" y="12" dx="0">a</tspan><tspan x="96" y="12" dx="0">n</tspan><tspan x="102" y="12" dx="0">d</tspan><tspan x="108" y="12" dx="0">u</tspan><tspan x="115" y="12" dx="0">i</tspan><tspan x="118" y="12" dx="0">d</tspan><tspan x="124" y="12" dx="0">i</tspan><tspan x="127" y="12" dx="0">n</tspan><tspan x="133" y="12" dx="0">g</tspan></text><path d="M362 330 680 330" stroke="#9A8484" stroke-width="2"/><text stroke="none" fill="#000000" transform="translate(375 338)"><tspan x="0" y="12" dx="0">«</tspan><tspan x="6" y="12" dx="0">A</tspan><tspan x="14" y="12" dx="0 0">tt</tspan><tspan x="22" y="12" dx="0">r</tspan><tspan x="26" y="12" dx="0">i</tspan><tspan x="30" y="12" dx="0">b</tspan><tspan x="38" y="12" dx="0">u</tspan><tspan x="45" y="12" dx="0">u</tspan><tspan x="52" y="12" dx="0">t</tspan><tspan x="56" y="12" dx="0">s</tspan><tspan x="63" y="12" dx="0">o</tspan><tspan x="70" y="12" dx="0">o</tspan><tspan x="77" y="12" dx="0">r</tspan><tspan x="81" y="12" dx="0">t</tspan><tspan x="85" y="12" dx="0">»</tspan></text><text stroke="none" fill="#66413F" transform="translate(367 353)"><tspan x="0" y="12" dx="0">+</tspan></text><text stroke="none" fill="#66413F" transform="translate(388 353)"><tspan x="0" y="12" dx="0">i</tspan><tspan x="4" y="12" dx="0">d</tspan><tspan x="11" y="12" dx="0">e</tspan><tspan x="19" y="12" dx="0">n</tspan><tspan x="26" y="12" dx="0 0">ti</tspan><tspan x="34" y="12" dx="0 0">fi</tspan><tspan x="43" y="12" dx="0">c</tspan><tspan x="48" y="12" dx="0">a</tspan><tspan x="55" y="12" dx="0 0">ti</tspan><tspan x="64" y="12" dx="0">e</tspan><tspan x="71" y="12" dx="0">:</tspan><tspan x="74" y="12" dx="0"> </tspan><tspan x="77" y="12" dx="0">N</tspan><tspan x="85" y="12" dx="0">E</tspan><tspan x="92" y="12" dx="0">N</tspan><tspan x="100" y="12" dx="0">3</tspan><tspan x="106" y="12" dx="0">6</tspan><tspan x="113" y="12" dx="0">1</tspan><tspan x="119" y="12" dx="0">0</tspan><tspan x="125" y="12" dx="0">I</tspan><tspan x="129" y="12" dx="0">D</tspan></text><text stroke="none" fill="#66413F" transform="translate(367 368)"><tspan x="0" y="12" dx="0">+</tspan></text><text stroke="none" fill="#66413F" transform="translate(388 368)"><tspan x="0" y="12" dx="0">a</tspan><tspan x="7" y="12" dx="0">c</tspan><tspan x="13" y="12" dx="0 0">ti</tspan><tspan x="21" y="12" dx="0">v</tspan><tspan x="26" y="12" dx="0">i</tspan><tspan x="30" y="12" dx="0">t</tspan><tspan x="34" y="12" dx="0">e</tspan><tspan x="42" y="12" dx="0">i</tspan><tspan x="46" y="12" dx="0">t</tspan><tspan x="50" y="12" dx="0">r</tspan><tspan x="54" y="12" dx="0">e</tspan><tspan x="61" y="12" dx="0">g</tspan><tspan x="68" y="12" dx="0">e</tspan><tspan x="75" y="12" dx="0">l</tspan><tspan x="79" y="12" dx="0">k</tspan><tspan x="85" y="12" dx="0">w</tspan><tspan x="95" y="12" dx="0">a</tspan><tspan x="102" y="12" dx="0">l</tspan><tspan x="106" y="12" dx="0">i</tspan><tspan x="110" y="12" dx="0 0">fi</tspan><tspan x="119" y="12" dx="0">c</tspan><tspan x="124" y="12" dx="0">a</tspan><tspan x="131" y="12" dx="0 0">ti</tspan><tspan x="140" y="12" dx="0">e</tspan><tspan x="147" y="12" dx="0">:</tspan><tspan x="150" y="12" dx="0"> </tspan><tspan x="153" y="12" dx="0">A</tspan><tspan x="160" y="12" dx="0">c</tspan><tspan x="166" y="12" dx="0 0">ti</tspan><tspan x="174" y="12" dx="0">v</tspan><tspan x="179" y="12" dx="0">i</tspan><tspan x="183" y="12" dx="0">t</tspan><tspan x="188" y="12" dx="0">e</tspan><tspan x="195" y="12" dx="0">i</tspan></text><text stroke="none" fill="#66413F" transform="translate(587 368)"><tspan x="0" y="12" dx="0">t</tspan><tspan x="4" y="12" dx="0">r</tspan><tspan x="7" y="12" dx="0">e</tspan><tspan x="13" y="12" dx="0">g</tspan><tspan x="18" y="12" dx="0">e</tspan><tspan x="24" y="12" dx="0">l</tspan><tspan x="28" y="12" dx="0">k</tspan><tspan x="33" y="12" dx="0">w</tspan><tspan x="41" y="12" dx="0">a</tspan><tspan x="47" y="12" dx="0">l</tspan><tspan x="51" y="12" dx="0">i</tspan><tspan x="55" y="12" dx="0 0">fi</tspan><tspan x="62" y="12" dx="0">c</tspan><tspan x="66" y="12" dx="0">a</tspan><tspan x="72" y="12" dx="0 0">ti</tspan><tspan x="80" y="12" dx="0">e</tspan></text><path d="M310 97 755 97M755 97 755 434M755 434 749 419M755 434 761 419" stroke="#69738C" stroke-width="2"/><path d="M191 220 191 181" stroke="#69738C" stroke-width="2"/><path d="M197 197 185 197 191 181 197 197" stroke="#69738C" stroke-width="2" fill="#FAF1EC"/><path d="M192 290 192 387" stroke="#69738C" stroke-width="2"/><path d="M192 338 362 338" stroke="#69738C" stroke-dasharray="7 4"/><path d="M512 388 512 494M512 494 659 494M659 494 644 500M659 494 644 488" stroke="#69738C" stroke-width="2"/><path d="M106 525 106 574M106 574 160 574M160 574 160 525M160 525 166 540M160 525 154 540" stroke="#69738C" stroke-width="2"/><path d="M198 525 198 574M198 574 257 574M257 574 257 525M257 525 263 540M257 525 251 540" stroke="#69738C" stroke-width="2"/><g transform="matrix(1 0 0 -1 737 387)"><rect x="0" y="-13" width="78" height="13" stroke="none" fill="#FFFFFF"/></g><text stroke="none" fill="#595959" font-size="10" transform="translate(737 387)"><tspan x="0" y="10" dx="0">+</tspan><tspan x="5.33333" y="10" dx="0">l</tspan><tspan x="7.66667" y="10" dx="0">o</tspan><tspan x="13" y="10" dx="0">c</tspan><tspan x="17.3333" y="10" dx="0">a</tspan><tspan x="22" y="10" dx="0 0">ti</tspan><tspan x="27.6667" y="10" dx="0">e</tspan><tspan x="32.6667" y="10" dx="0">a</tspan><tspan x="37.3333" y="10" dx="0">a</tspan><tspan x="42" y="10" dx="0">n</tspan><tspan x="47.3333" y="10" dx="0">d</tspan><tspan x="52.6667" y="10" dx="0">u</tspan><tspan x="58" y="10" dx="0">i</tspan><tspan x="60.3333" y="10" dx="0">d</tspan><tspan x="65.6667" y="10" dx="0">i</tspan><tspan x="68" y="10" dx="0">n</tspan><tspan x="73.3333" y="10" dx="0">g</tspan></text><g transform="matrix(1 0 0 -1 737 400)"><rect x="0" y="-13" width="49" height="13" stroke="none" fill="#FFFFFF"/></g><text stroke="none" fill="#595959" font-size="10" transform="translate(737 400)"><tspan x="0" y="10" dx="0">«</tspan><tspan x="5" y="10" dx="0">R</tspan><tspan x="10.3333" y="10" dx="0">e</tspan><tspan x="15.3333" y="10" dx="0">l</tspan><tspan x="17.6667" y="10" dx="0">a</tspan><tspan x="22.3333" y="10" dx="0 0">ti</tspan><tspan x="28" y="10" dx="0">e</tspan><tspan x="33" y="10" dx="0">r</tspan><tspan x="36.3333" y="10" dx="0">o</tspan><tspan x="41.6667" y="10" dx="0">l</tspan><tspan x="44" y="10" dx="0">»</tspan></text><g transform="matrix(1 0 0 -1 767 416)"><rect x="0" y="-13" width="17" height="13" stroke="none" fill="#FFFFFF"/></g><text stroke="none" fill="#595959" font-size="10" transform="translate(767 416)"><tspan x="0" y="10" dx="0">1..*</tspan></text><g transform="matrix(1 0 0 -1 85 581)"><rect x="0" y="-13" width="95" height="13" stroke="none" fill="#FFFFFF"/></g><text stroke="none" fill="#595959" font-size="10" transform="translate(85 581)"><tspan x="0" y="10" dx="0">+</tspan><tspan x="5.33333" y="10" dx="0">g</tspan><tspan x="10.3333" y="10" dx="0">e</tspan><tspan x="15.6667" y="10" dx="0">r</tspan><tspan x="19" y="10" dx="0">e</tspan><tspan x="24.3333" y="10" dx="0">l</tspan><tspan x="26.6667" y="10" dx="0">a</tspan><tspan x="31.3333" y="10" dx="0">t</tspan><tspan x="34.6667" y="10" dx="0">e</tspan><tspan x="39.6667" y="10" dx="0">e</tspan><tspan x="44.6667" y="10" dx="0">r</tspan><tspan x="48" y="10" dx="0">d</tspan><tspan x="53.3333" y="10" dx="0">e</tspan><tspan x="58.3333" y="10" dx="0">A</tspan><tspan x="64" y="10" dx="0">c</tspan><tspan x="68.3333" y="10" dx="0 0">ti</tspan><tspan x="74" y="10" dx="0">v</tspan><tspan x="78.6667" y="10" dx="0">i</tspan><tspan x="81" y="10" dx="0">t</tspan><tspan x="84.3333" y="10" dx="0">e</tspan><tspan x="89.3333" y="10" dx="0">i</tspan><tspan x="91.6667" y="10" dx="0">t</tspan></text><g transform="matrix(1 0 0 -1 85 594)"><rect x="0" y="-13" width="68" height="13" stroke="none" fill="#FFFFFF"/></g><text stroke="none" fill="#595959" font-size="10" transform="translate(85 594)"><tspan x="0" y="10" dx="0">«</tspan><tspan x="5.33333" y="10" dx="0">R</tspan><tspan x="11" y="10" dx="0">e</tspan><tspan x="16.3333" y="10" dx="0">l</tspan><tspan x="18.6667" y="10" dx="0">a</tspan><tspan x="23.6667" y="10" dx="0 0">ti</tspan><tspan x="29.3333" y="10" dx="0">e</tspan><tspan x="34.3333" y="10" dx="0">r</tspan><tspan x="37.6667" y="10" dx="0">o</tspan><tspan x="43" y="10" dx="0">l</tspan><tspan x="45.3333" y="10" dx="0">»</tspan><tspan x="50.3333" y="10" dx="0"> </tspan><tspan x="52.6667" y="10" dx="0">0</tspan><tspan x="57.6667" y="10" dx="0">.</tspan><tspan x="60.3333" y="10" dx="0">.</tspan><tspan x="63" y="10" dx="0">*</tspan></text><g transform="matrix(1 0 0 -1 570 446)"><rect x="0" y="-13" width="78" height="13" stroke="none" fill="#FFFFFF"/></g><text stroke="none" fill="#595959" font-size="10" transform="translate(570 446)"><tspan x="0" y="10" dx="0">+</tspan><tspan x="5.33333" y="10" dx="0">l</tspan><tspan x="7.66667" y="10" dx="0">o</tspan><tspan x="13" y="10" dx="0">c</tspan><tspan x="17.3333" y="10" dx="0">a</tspan><tspan x="22" y="10" dx="0 0">ti</tspan><tspan x="27.6667" y="10" dx="0">e</tspan><tspan x="32.6667" y="10" dx="0">a</tspan><tspan x="37.3333" y="10" dx="0">a</tspan><tspan x="42" y="10" dx="0">n</tspan><tspan x="47.3333" y="10" dx="0">d</tspan><tspan x="52.6667" y="10" dx="0">u</tspan><tspan x="58" y="10" dx="0">i</tspan><tspan x="60.3333" y="10" dx="0">d</tspan><tspan x="65.6667" y="10" dx="0">i</tspan><tspan x="68" y="10" dx="0">n</tspan><tspan x="73.3333" y="10" dx="0">g</tspan></text><g transform="matrix(1 0 0 -1 599 459)"><rect x="0" y="-13" width="49" height="13" stroke="none" fill="#FFFFFF"/></g><text stroke="none" fill="#595959" font-size="10" transform="translate(599 459)"><tspan x="0" y="10" dx="0">«</tspan><tspan x="5" y="10" dx="0">R</tspan><tspan x="10.3333" y="10" dx="0">e</tspan><tspan x="15.3333" y="10" dx="0">l</tspan><tspan x="17.6667" y="10" dx="0">a</tspan><tspan x="22.3333" y="10" dx="0 0">ti</tspan><tspan x="28" y="10" dx="0">e</tspan><tspan x="33" y="10" dx="0">r</tspan><tspan x="36.3333" y="10" dx="0">o</tspan><tspan x="41.6667" y="10" dx="0">l</tspan><tspan x="44" y="10" dx="0">»</tspan></text><g transform="matrix(1 0 0 -1 629 510)"><rect x="0" y="-13" width="17" height="13" stroke="none" fill="#FFFFFF"/></g><text stroke="none" fill="#595959" font-size="10" transform="translate(629 510)"><tspan x="0" y="10" dx="0">1..*</tspan></text><g transform="matrix(1 0 0 -1 198 577)"><rect x="0" y="-13" width="103" height="13" stroke="none" fill="#FFFFFF"/></g><text stroke="none" fill="#595959" font-size="10" transform="translate(198 577)"><tspan x="0" y="10" dx="0">+</tspan><tspan x="5.33333" y="10" dx="0">b</tspan><tspan x="11" y="10" dx="0">o</tspan><tspan x="16.6667" y="10" dx="0">v</tspan><tspan x="21.3333" y="10" dx="0">e</tspan><tspan x="26.3333" y="10" dx="0">n</tspan><tspan x="31.6667" y="10" dx="0">l</tspan><tspan x="34" y="10" dx="0">i</tspan><tspan x="36.3333" y="10" dx="0">g</tspan><tspan x="41" y="10" dx="0">g</tspan><tspan x="45.6667" y="10" dx="0">e</tspan><tspan x="50.6667" y="10" dx="0">n</tspan><tspan x="56" y="10" dx="0">d</tspan><tspan x="61.3333" y="10" dx="0">e</tspan><tspan x="66.3333" y="10" dx="0">A</tspan><tspan x="72" y="10" dx="0">c</tspan><tspan x="76.3333" y="10" dx="0 0">ti</tspan><tspan x="82" y="10" dx="0">v</tspan><tspan x="86.6667" y="10" dx="0">i</tspan><tspan x="89" y="10" dx="0">t</tspan><tspan x="92.3333" y="10" dx="0">e</tspan><tspan x="97.3333" y="10" dx="0">i</tspan><tspan x="99.6667" y="10" dx="0">t</tspan></text><g transform="matrix(1 0 0 -1 198 590)"><rect x="0" y="-13" width="56" height="13" stroke="none" fill="#FFFFFF"/></g><text stroke="none" fill="#595959" font-size="10" transform="translate(198 590)"><tspan x="0" y="10" dx="0">«</tspan><tspan x="4.66667" y="10" dx="0">R</tspan><tspan x="10" y="10" dx="0">e</tspan><tspan x="15" y="10" dx="0">l</tspan><tspan x="17.3333" y="10" dx="0">a</tspan><tspan x="22" y="10" dx="0 0">ti</tspan><tspan x="27.6667" y="10" dx="0">e</tspan><tspan x="32.6667" y="10" dx="0">r</tspan><tspan x="36" y="10" dx="0">o</tspan><tspan x="41.3333" y="10" dx="0">l</tspan><tspan x="43.6667" y="10" dx="0">»</tspan><tspan x="48.6667" y="10" dx="0"> </tspan><tspan x="51" y="10" dx="0">1</tspan></text><g transform="matrix(1 0 0 -1 94 350)"><rect x="0" y="-13" width="86" height="13" stroke="none" fill="#FFFFFF"/></g><text stroke="none" fill="#595959" font-size="10" transform="translate(94 350)"><tspan x="0" y="10" dx="0">+</tspan><tspan x="5" y="10" dx="0">a</tspan><tspan x="9.66667" y="10" dx="0">c</tspan><tspan x="14" y="10" dx="0 0">ti</tspan><tspan x="19.6667" y="10" dx="0">v</tspan><tspan x="24.3333" y="10" dx="0">i</tspan><tspan x="26.6667" y="10" dx="0">t</tspan><tspan x="30" y="10" dx="0">e</tspan><tspan x="35" y="10" dx="0">i</tspan><tspan x="37.3333" y="10" dx="0">t</tspan><tspan x="40.6667" y="10" dx="0">a</tspan><tspan x="45.3333" y="10" dx="0">a</tspan><tspan x="50" y="10" dx="0">n</tspan><tspan x="55.3333" y="10" dx="0">d</tspan><tspan x="60.6667" y="10" dx="0">u</tspan><tspan x="66" y="10" dx="0">i</tspan><tspan x="68.3333" y="10" dx="0">d</tspan><tspan x="73.6667" y="10" dx="0">i</tspan><tspan x="76" y="10" dx="0">n</tspan><tspan x="81.3333" y="10" dx="0">g</tspan></text><g transform="matrix(1 0 0 -1 131 363)"><rect x="0" y="-13" width="49" height="13" stroke="none" fill="#FFFFFF"/></g><text stroke="none" fill="#595959" font-size="10" transform="translate(131 363)"><tspan x="0" y="10" dx="0">«</tspan><tspan x="5" y="10" dx="0">R</tspan><tspan x="10.3333" y="10" dx="0">e</tspan><tspan x="15.3333" y="10" dx="0">l</tspan><tspan x="17.6667" y="10" dx="0">a</tspan><tspan x="22.3333" y="10" dx="0 0">ti</tspan><tspan x="28" y="10" dx="0">e</tspan><tspan x="33" y="10" dx="0">r</tspan><tspan x="36.3333" y="10" dx="0">o</tspan><tspan x="41.6667" y="10" dx="0">l</tspan><tspan x="44" y="10" dx="0">»</tspan></text><g transform="matrix(1 0 0 -1 200 369)"><rect x="0" y="-13" width="17" height="13" stroke="none" fill="#FFFFFF"/></g><text stroke="none" fill="#595959" font-size="10" transform="translate(200 369)"><tspan x="0" y="10" dx="0">0..*</tspan></text></g></g></g></g></svg>