<svg width="698.296" height="401.832" viewBox="52.1744 137.875 523.722 301.374" xmlns="http://www.w3.org/2000/svg" xmlns:xlink="http://www.w3.org/1999/xlink" overflow="hidden"><g transform="matrix(1 0 0 -1 0 768)"><g stroke="#000000" stroke-linecap="round" stroke-linejoin="round" stroke-miterlimit="3" fill="none" fill-rule="evenodd" font-weight="400" baseline-shift="0"><g transform="matrix(0.75 0 0 0.75 0 768.2)"><g font-family="CalibriUnicode" font-size="13" transform="scale(1.00291 -1.00395)"><rect x="80" y="194" width="675" height="379" stroke="#9A8484"/><rect x="106" y="222" width="388" height="142" stroke="none" fill="#D0D0D0"/><rect x="103" y="219" width="387" height="141" stroke="none" stroke-width="2" fill="#87CEFA"/><rect x="103" y="219" width="387" height="142" stroke="#9A8484" stroke-width="2"/><rect x="103" y="219" width="387" height="141" stroke="#9A8484" stroke-width="2"/><text stroke="none" fill="#000000" transform="translate(261 225)"><tspan x="0" y="12" dx="0">«</tspan><tspan x="6" y="12" dx="0">O</tspan><tspan x="15" y="12" dx="0">b</tspan><tspan x="22" y="12" dx="0">j</tspan><tspan x="25" y="12" dx="0">e</tspan><tspan x="32" y="12" dx="0">c</tspan><tspan x="38" y="12" dx="0 0">tt</tspan><tspan x="46" y="12" dx="0">y</tspan><tspan x="51" y="12" dx="0">p</tspan><tspan x="58" y="12" dx="0">e</tspan><tspan x="66" y="12" dx="0">»</tspan></text><text stroke="none" fill="#000000" font-weight="700" transform="translate(269 240)"><tspan x="0" y="12" dx="0">Regeltekst</tspan></text><path d="M103 260 490 260" stroke="#9A8484" stroke-width="2"/><text stroke="none" fill="#000000" transform="translate(116 268)"><tspan x="0" y="12" dx="0">«</tspan><tspan x="6" y="12" dx="0">A</tspan><tspan x="14" y="12" dx="0 0">tt</tspan><tspan x="22" y="12" dx="0">r</tspan><tspan x="26" y="12" dx="0">i</tspan><tspan x="30" y="12" dx="0">b</tspan><tspan x="38" y="12" dx="0">u</tspan><tspan x="45" y="12" dx="0">u</tspan><tspan x="52" y="12" dx="0">t</tspan><tspan x="56" y="12" dx="0">s</tspan><tspan x="63" y="12" dx="0">o</tspan><tspan x="70" y="12" dx="0">o</tspan><tspan x="77" y="12" dx="0">r</tspan><tspan x="81" y="12" dx="0">t</tspan><tspan x="85" y="12" dx="0">»</tspan></text><text stroke="none" fill="#66413F" transform="translate(108 283)"><tspan x="0" y="12" dx="0">+</tspan></text><text stroke="none" fill="#66413F" transform="translate(129 283)"><tspan x="0" y="12" dx="0">i</tspan><tspan x="4" y="12" dx="0">d</tspan><tspan x="11" y="12" dx="0">e</tspan><tspan x="19" y="12" dx="0">n</tspan><tspan x="26" y="12" dx="0 0">ti</tspan><tspan x="34" y="12" dx="0 0">fi</tspan><tspan x="43" y="12" dx="0">c</tspan><tspan x="48" y="12" dx="0">a</tspan><tspan x="55" y="12" dx="0 0">ti</tspan><tspan x="64" y="12" dx="0">e</tspan><tspan x="71" y="12" dx="0">:</tspan><tspan x="74" y="12" dx="0"> </tspan><tspan x="77" y="12" dx="0">N</tspan><tspan x="85" y="12" dx="0">E</tspan><tspan x="92" y="12" dx="0">N</tspan><tspan x="100" y="12" dx="0">3</tspan><tspan x="106" y="12" dx="0">6</tspan><tspan x="113" y="12" dx="0">1</tspan><tspan x="119" y="12" dx="0">0</tspan><tspan x="125" y="12" dx="0">I</tspan><tspan x="129" y="12" dx="0">D</tspan><tspan x="138" y="12" dx="0"> </tspan><tspan x="141" y="12" dx="0">{</tspan><tspan x="145" y="12" dx="0">i</tspan><tspan x="149" y="12" dx="0">d</tspan><tspan x="156" y="12" dx="0">}</tspan></text><path d="M103 302 490 302" stroke="#9A8484" stroke-width="2"/><text stroke="none" fill="#000000" font-style="italic" transform="translate(268 306)"><tspan x="0" y="12" dx="0">constraints</tspan></text><text stroke="none" fill="#000000" transform="translate(108 321)"><tspan x="0" y="12" dx="0">{één type Juridische regel per Regeltekst}</tspan></text><text stroke="none" fill="#000000" transform="translate(108 336)"><tspan x="0" y="12" dx="0">{</tspan><tspan x="4" y="12" dx="0">i</tspan><tspan x="8" y="12" dx="0">n</tspan><tspan x="16" y="12" dx="0">d</tspan><tspan x="23" y="12" dx="0">i</tspan><tspan x="27" y="12" dx="0">e</tspan><tspan x="34" y="12" dx="0">n</tspan><tspan x="42" y="12" dx="0"> </tspan><tspan x="45" y="12" dx="0">A</tspan><tspan x="52" y="12" dx="0">r</tspan><tspan x="56" y="12" dx="0 0">ti</tspan><tspan x="65" y="12" dx="0">k</tspan><tspan x="71" y="12" dx="0">e</tspan><tspan x="78" y="12" dx="0">l</tspan><tspan x="82" y="12" dx="0"> </tspan><tspan x="85" y="12" dx="0">i</tspan><tspan x="90" y="12" dx="0">s</tspan><tspan x="96" y="12" dx="0"> </tspan><tspan x="99" y="12" dx="0">o</tspan><tspan x="106" y="12" dx="0">n</tspan><tspan x="114" y="12" dx="0">d</tspan><tspan x="121" y="12" dx="0">e</tspan><tspan x="128" y="12" dx="0">r</tspan></text><text stroke="none" fill="#000000" transform="translate(240 336)"><tspan x="0" y="12" dx="0">v</tspan><tspan x="5" y="12" dx="0">e</tspan><tspan x="11" y="12" dx="0">r</tspan><tspan x="14" y="12" dx="0">d</tspan><tspan x="20" y="12" dx="0">e</tspan><tspan x="26" y="12" dx="0">e</tspan><tspan x="32" y="12" dx="0">l</tspan><tspan x="36" y="12" dx="0">d</tspan><tspan x="43" y="12" dx="0"> </tspan><tspan x="46" y="12" dx="0">i</tspan><tspan x="50" y="12" dx="0">n</tspan><tspan x="57" y="12" dx="0"> </tspan><tspan x="60" y="12" dx="0">L</tspan><tspan x="64" y="12" dx="0">e</tspan><tspan x="70" y="12" dx="0">d</tspan><tspan x="76" y="12" dx="0">e</tspan><tspan x="82" y="12" dx="0">n</tspan><tspan x="89" y="12" dx="0">,</tspan><tspan x="92" y="12" dx="0"> </tspan><tspan x="95" y="12" dx="0">a</tspan><tspan x="101" y="12" dx="0">n</tspan><tspan x="107" y="12" dx="0">n</tspan><tspan x="113" y="12" dx="0">o</tspan><tspan x="119" y="12" dx="0">t</tspan><tspan x="123" y="12" dx="0">a</tspan><tspan x="129" y="12" dx="0 0">ti</tspan><tspan x="137" y="12" dx="0">e</tspan><tspan x="143" y="12" dx="0">s</tspan><tspan x="149" y="12" dx="0"> </tspan><tspan x="152" y="12" dx="0">a</tspan><tspan x="158" y="12" dx="0">l</tspan><tspan x="162" y="12" dx="0">l</tspan><tspan x="166" y="12" dx="0">e</tspan><tspan x="172" y="12" dx="0">e</tspan><tspan x="178" y="12" dx="0">n</tspan><tspan x="185" y="12" dx="0"> </tspan><tspan x="188" y="12" dx="0">o</tspan><tspan x="194" y="12" dx="0">p</tspan><tspan x="201" y="12" dx="0"> </tspan><tspan x="204" y="12" dx="0">L</tspan><tspan x="208" y="12" dx="0">e</tspan><tspan x="214" y="12" dx="0">d</tspan><tspan x="220" y="12" dx="0">e</tspan><tspan x="226" y="12" dx="0">n</tspan><tspan x="233" y="12" dx="0">}</tspan></text><rect x="171" y="433" width="211" height="117" stroke="none" fill="#D0D0D0"/><rect x="168" y="430" width="210" height="116" stroke="none" fill="#FFE4E1"/><rect x="168" y="430" width="210" height="117" stroke="#9A8484"/><rect x="168" y="430" width="210" height="116" stroke="#9A8484"/><text stroke="none" fill="#000000" transform="translate(237 436)"><tspan x="0" y="12" dx="0">«</tspan><tspan x="6" y="12" dx="0">O</tspan><tspan x="15" y="12" dx="0">b</tspan><tspan x="22" y="12" dx="0">j</tspan><tspan x="25" y="12" dx="0">e</tspan><tspan x="32" y="12" dx="0">c</tspan><tspan x="38" y="12" dx="0 0">tt</tspan><tspan x="46" y="12" dx="0">y</tspan><tspan x="51" y="12" dx="0">p</tspan><tspan x="58" y="12" dx="0">e</tspan><tspan x="66" y="12" dx="0">»</tspan></text><text stroke="none" fill="#000000" font-style="italic" font-weight="700" transform="translate(255 451)"><tspan x="0" y="12" dx="0">L</tspan><tspan x="5" y="12" dx="0">o</tspan><tspan x="11" y="12" dx="0">c</tspan><tspan x="17" y="12" dx="0">a</tspan><tspan x="23" y="12" dx="0 0">ti</tspan><tspan x="30" y="12" dx="0">e</tspan></text><path d="M168 471 378 471" stroke="#9A8484"/><text stroke="none" fill="#000000" transform="translate(181 479)"><tspan x="0" y="12" dx="0">«</tspan><tspan x="6" y="12" dx="0">A</tspan><tspan x="14" y="12" dx="0 0">tt</tspan><tspan x="22" y="12" dx="0">r</tspan><tspan x="26" y="12" dx="0">i</tspan><tspan x="30" y="12" dx="0">b</tspan><tspan x="38" y="12" dx="0">u</tspan><tspan x="45" y="12" dx="0">u</tspan><tspan x="52" y="12" dx="0">t</tspan><tspan x="56" y="12" dx="0">s</tspan><tspan x="63" y="12" dx="0">o</tspan><tspan x="70" y="12" dx="0">o</tspan><tspan x="77" y="12" dx="0">r</tspan><tspan x="81" y="12" dx="0">t</tspan><tspan x="85" y="12" dx="0">»</tspan></text><text stroke="none" fill="#66413F" transform="translate(173 494)"><tspan x="0" y="12" dx="0">+</tspan></text><text stroke="none" fill="#66413F" transform="translate(194 494)"><tspan x="0" y="12" dx="0">i</tspan><tspan x="4" y="12" dx="0">d</tspan><tspan x="11" y="12" dx="0">e</tspan><tspan x="19" y="12" dx="0">n</tspan><tspan x="26" y="12" dx="0 0">ti</tspan><tspan x="34" y="12" dx="0 0">fi</tspan><tspan x="43" y="12" dx="0">c</tspan><tspan x="48" y="12" dx="0">a</tspan><tspan x="55" y="12" dx="0 0">ti</tspan><tspan x="64" y="12" dx="0">e</tspan><tspan x="71" y="12" dx="0">:</tspan><tspan x="74" y="12" dx="0"> </tspan><tspan x="77" y="12" dx="0">N</tspan><tspan x="85" y="12" dx="0">E</tspan><tspan x="92" y="12" dx="0">N</tspan><tspan x="100" y="12" dx="0">3</tspan><tspan x="106" y="12" dx="0">6</tspan><tspan x="113" y="12" dx="0">1</tspan><tspan x="119" y="12" dx="0">0</tspan><tspan x="125" y="12" dx="0">I</tspan><tspan x="129" y="12" dx="0">D</tspan><tspan x="138" y="12" dx="0">_</tspan><tspan x="144" y="12" dx="0">L</tspan></text><text stroke="none" fill="#66413F" transform="translate(343 494)"><tspan x="0" y="12" dx="0">o</tspan><tspan x="7" y="12" dx="0">c</tspan><tspan x="11" y="12" dx="0">a</tspan><tspan x="17" y="12" dx="0 0">ti</tspan><tspan x="25" y="12" dx="0">e</tspan></text><text stroke="none" fill="#66413F" transform="translate(173 509)"><tspan x="0" y="12" dx="0">+</tspan></text><text stroke="none" fill="#66413F" transform="translate(194 509)"><tspan x="0" y="12" dx="0">noemer: CharacterString [0..1]</tspan></text><rect x="531" y="402" width="208" height="130" stroke="none" fill="#D0D0D0"/><rect x="528" y="399" width="207" height="129" stroke="none" stroke-width="2" fill="#CCFFFF"/><rect x="528" y="399" width="207" height="130" stroke="#9A8484" stroke-width="2"/><rect x="528" y="399" width="207" height="129" stroke="#9A8484" stroke-width="2"/><text stroke="none" fill="#000000" font-size="14" transform="translate(594 405)"><tspan x="0" y="13" dx="0">«</tspan><tspan x="7" y="13" dx="0">O</tspan><tspan x="17" y="13" dx="0">b</tspan><tspan x="24" y="13" dx="0">j</tspan><tspan x="28" y="13" dx="0">e</tspan><tspan x="34" y="13" dx="0">c</tspan><tspan x="41" y="13" dx="0 0">tt</tspan><tspan x="49" y="13" dx="0">y</tspan><tspan x="55" y="13" dx="0">p</tspan><tspan x="63" y="13" dx="0">e</tspan><tspan x="69" y="13" dx="0">»</tspan></text><text stroke="none" fill="#000000" font-style="italic" font-weight="700" font-size="14" transform="translate(590 422)"><tspan x="0" y="13" dx="0">JuridischeRegel</tspan></text><path d="M528 444 735 444" stroke="#9A8484" stroke-width="2"/><text stroke="none" fill="#000000" font-size="14" transform="translate(542 452)"><tspan x="0" y="13" dx="0">«</tspan><tspan x="7" y="13" dx="0">A</tspan><tspan x="15" y="13" dx="0 0">tt</tspan><tspan x="23" y="13" dx="0">r</tspan><tspan x="28" y="13" dx="0">i</tspan><tspan x="32" y="13" dx="0">b</tspan><tspan x="40" y="13" dx="0">u</tspan><tspan x="47" y="13" dx="0">u</tspan><tspan x="54" y="13" dx="0">t</tspan><tspan x="58" y="13" dx="0">s</tspan><tspan x="65" y="13" dx="0">o</tspan><tspan x="72" y="13" dx="0">o</tspan><tspan x="79" y="13" dx="0">r</tspan><tspan x="84" y="13" dx="0">t</tspan><tspan x="89" y="13" dx="0">»</tspan></text><text stroke="none" fill="#66413F" font-size="14" transform="translate(533 469)"><tspan x="0" y="13" dx="0">+</tspan></text><text stroke="none" fill="#66413F" font-size="14" transform="translate(557 469)"><tspan x="0" y="13" dx="0">i</tspan><tspan x="4" y="13" dx="0">d</tspan><tspan x="11" y="13" dx="0">e</tspan><tspan x="18" y="13" dx="0">n</tspan><tspan x="25" y="13" dx="0 0">ti</tspan><tspan x="33" y="13" dx="0 0">fi</tspan><tspan x="42" y="13" dx="0">c</tspan><tspan x="48" y="13" dx="0">a</tspan><tspan x="55" y="13" dx="0 0">ti</tspan><tspan x="64" y="13" dx="0">e</tspan><tspan x="70" y="13" dx="0">:</tspan><tspan x="73" y="13" dx="0"> </tspan><tspan x="76" y="13" dx="0">N</tspan><tspan x="84" y="13" dx="0">E</tspan><tspan x="91" y="13" dx="0">N</tspan><tspan x="99" y="13" dx="0">3</tspan><tspan x="106" y="13" dx="0">6</tspan><tspan x="114" y="13" dx="0">1</tspan><tspan x="121" y="13" dx="0">0</tspan><tspan x="128" y="13" dx="0">I</tspan><tspan x="132" y="13" dx="0">D</tspan><tspan x="141" y="13" dx="0"> </tspan><tspan x="144" y="13" dx="0">{</tspan><tspan x="148" y="13" dx="0">i</tspan><tspan x="152" y="13" dx="0">d</tspan><tspan x="159" y="13" dx="0">}</tspan></text><text stroke="none" fill="#66413F" font-size="14" transform="translate(533 486)"><tspan x="0" y="13" dx="0">+</tspan></text><text stroke="none" fill="#66413F" font-size="14" transform="translate(557 486)"><tspan x="0" y="13" dx="0">i</tspan><tspan x="4" y="13" dx="0">d</tspan><tspan x="11" y="13" dx="0">e</tspan><tspan x="18" y="13" dx="0">a</tspan><tspan x="25" y="13" dx="0">l</tspan><tspan x="29" y="13" dx="0">i</tspan><tspan x="33" y="13" dx="0">s</tspan><tspan x="40" y="13" dx="0">a</tspan><tspan x="47" y="13" dx="0 0">ti</tspan><tspan x="55" y="13" dx="0">e</tspan><tspan x="61" y="13" dx="0">:</tspan><tspan x="65" y="13" dx="0"> </tspan><tspan x="68" y="13" dx="0">I</tspan><tspan x="72" y="13" dx="0">d</tspan><tspan x="79" y="13" dx="0">e</tspan><tspan x="85" y="13" dx="0">a</tspan><tspan x="93" y="13" dx="0">l</tspan><tspan x="97" y="13" dx="0">i</tspan><tspan x="101" y="13" dx="0">s</tspan><tspan x="107" y="13" dx="0">a</tspan><tspan x="115" y="13" dx="0 0">ti</tspan><tspan x="123" y="13" dx="0">e</tspan></text><text stroke="none" fill="#66413F" font-size="14" transform="translate(533 503)"><tspan x="0" y="13" dx="0">+</tspan></text><text stroke="none" fill="#66413F" font-size="14" transform="translate(557 503)"><tspan x="0" y="13" dx="0">thema: Thema [0..*]</tspan></text><path d="M527 490 379 490M379 490 394 484M379 490 394 496" stroke="#69738C" stroke-width="2"/><path d="M272 430 272 368" stroke="#69738C" stroke-dasharray="7 4"/><path d="M272 364 271 362" stroke="#69738C"/><path d="M272 430 267 415M272 430 277 415" stroke="#69738C"/><path d="M613 399 613 304M613 304 491 304M491 304 506 298M491 304 506 310" stroke="#69738C" stroke-width="2"/><g transform="matrix(1 0 0 -1 283 381)"><rect x="0" y="-13" width="71" height="13" stroke="none" fill="#FFFFFF"/></g><text stroke="none" fill="#595959" font-size="10" transform="translate(283 381)"><tspan x="0" y="10" dx="0">+werkingsgebied</tspan></text><g transform="matrix(1 0 0 -1 280 412)"><rect x="0" y="-13" width="17" height="13" stroke="none" fill="#FFFFFF"/></g><text stroke="none" fill="#595959" font-size="10" transform="translate(280 412)"><tspan x="0" y="10" dx="0">1..*</tspan></text><g transform="matrix(1 0 0 -1 395 454)"><rect x="0" y="-13" width="78" height="13" stroke="none" fill="#FFFFFF"/></g><text stroke="none" fill="#595959" font-size="10" transform="translate(395 454)"><tspan x="0" y="10" dx="0">+</tspan><tspan x="5.33333" y="10" dx="0">l</tspan><tspan x="7.66667" y="10" dx="0">o</tspan><tspan x="13" y="10" dx="0">c</tspan><tspan x="17.3333" y="10" dx="0">a</tspan><tspan x="22" y="10" dx="0 0">ti</tspan><tspan x="27.6667" y="10" dx="0">e</tspan><tspan x="32.6667" y="10" dx="0">a</tspan><tspan x="37.3333" y="10" dx="0">a</tspan><tspan x="42" y="10" dx="0">n</tspan><tspan x="47.3333" y="10" dx="0">d</tspan><tspan x="52.6667" y="10" dx="0">u</tspan><tspan x="58" y="10" dx="0">i</tspan><tspan x="60.3333" y="10" dx="0">d</tspan><tspan x="65.6667" y="10" dx="0">i</tspan><tspan x="68" y="10" dx="0">n</tspan><tspan x="73.3333" y="10" dx="0">g</tspan></text><g transform="matrix(1 0 0 -1 395 467)"><rect x="0" y="-13" width="49" height="13" stroke="none" fill="#FFFFFF"/></g><text stroke="none" fill="#595959" font-size="10" transform="translate(395 467)"><tspan x="0" y="10" dx="0">«</tspan><tspan x="5" y="10" dx="0">R</tspan><tspan x="10.3333" y="10" dx="0">e</tspan><tspan x="15.3333" y="10" dx="0">l</tspan><tspan x="17.6667" y="10" dx="0">a</tspan><tspan x="22.3333" y="10" dx="0 0">ti</tspan><tspan x="28" y="10" dx="0">e</tspan><tspan x="33" y="10" dx="0">r</tspan><tspan x="36.3333" y="10" dx="0">o</tspan><tspan x="41.6667" y="10" dx="0">l</tspan><tspan x="44" y="10" dx="0">»</tspan></text><g transform="matrix(1 0 0 -1 386 495)"><rect x="0" y="-13" width="17" height="13" stroke="none" fill="#FFFFFF"/></g><text stroke="none" fill="#595959" font-size="10" transform="translate(386 495)"><tspan x="0" y="10" dx="0">1..*</tspan></text><g transform="matrix(1 0 0 -1 507 316)"><rect x="0" y="-13" width="53" height="13" stroke="none" fill="#FFFFFF"/></g><text stroke="none" fill="#595959" font-size="10" transform="translate(507 316)"><tspan x="0" y="10" dx="0">+</tspan><tspan x="5.33333" y="10" dx="0">a</tspan><tspan x="10.3333" y="10" dx="0">r</tspan><tspan x="13.6667" y="10" dx="0 0">ti</tspan><tspan x="19.3333" y="10" dx="0">k</tspan><tspan x="24" y="10" dx="0">e</tspan><tspan x="29" y="10" dx="0">l</tspan><tspan x="31.3333" y="10" dx="0">O</tspan><tspan x="38" y="10" dx="0">f</tspan><tspan x="41" y="10" dx="0">L</tspan><tspan x="45.3333" y="10" dx="0">i</tspan><tspan x="47.6667" y="10" dx="0">d</tspan></text><g transform="matrix(1 0 0 -1 507 329)"><rect x="0" y="-13" width="49" height="13" stroke="none" fill="#FFFFFF"/></g><text stroke="none" fill="#595959" font-size="10" transform="translate(507 329)"><tspan x="0" y="10" dx="0">«</tspan><tspan x="5" y="10" dx="0">R</tspan><tspan x="10.3333" y="10" dx="0">e</tspan><tspan x="15.3333" y="10" dx="0">l</tspan><tspan x="17.6667" y="10" dx="0">a</tspan><tspan x="22.3333" y="10" dx="0 0">ti</tspan><tspan x="28" y="10" dx="0">e</tspan><tspan x="33" y="10" dx="0">r</tspan><tspan x="36.3333" y="10" dx="0">o</tspan><tspan x="41.6667" y="10" dx="0">l</tspan><tspan x="44" y="10" dx="0">»</tspan></text><g transform="matrix(1 0 0 -1 496 320)"><rect x="0" y="-13" width="5" height="13" stroke="none" fill="#FFFFFF"/></g><text stroke="none" fill="#595959" font-size="10" transform="translate(496 320)"><tspan x="0" y="10" dx="0">1</tspan></text></g></g></g></g></svg>