<svg width="1187.84" height="951.999" viewBox="210.156 34.719 890.883 713.999" xmlns="http://www.w3.org/2000/svg" xmlns:xlink="http://www.w3.org/1999/xlink" overflow="hidden"><g transform="matrix(1 0 0 -1 0 768)"><g stroke="#000000" stroke-linecap="round" stroke-linejoin="round" stroke-miterlimit="3" fill="none" fill-rule="evenodd" font-weight="400" baseline-shift="0"><g transform="matrix(0.75 0 0 0.75 0 768.2)"><g font-family="CalibriUnicode" font-size="10" transform="scale(1.00302 -1.00395)"><rect x="290" y="57" width="1163" height="927" stroke="#9A8484"/><rect x="484" y="94" width="167" height="94" stroke="none" fill="#D0D0D0"/><rect x="481" y="91" width="166" height="93" stroke="none" stroke-width="2" fill="#87CEFA"/><rect x="481" y="91" width="166" height="94" stroke-width="2"/><rect x="481" y="91" width="166" height="93" stroke-width="2"/><text stroke="none" fill="#000000" font-size="14" transform="translate(526 97)"><tspan x="0" y="13" dx="0">«</tspan><tspan x="7" y="13" dx="0">O</tspan><tspan x="17" y="13" dx="0">b</tspan><tspan x="24" y="13" dx="0">j</tspan><tspan x="28" y="13" dx="0">e</tspan><tspan x="34" y="13" dx="0">c</tspan><tspan x="41" y="13" dx="0 0">tt</tspan><tspan x="49" y="13" dx="0">y</tspan><tspan x="55" y="13" dx="0">p</tspan><tspan x="63" y="13" dx="0">e</tspan><tspan x="69" y="13" dx="0">»</tspan></text><text stroke="none" fill="#000000" font-weight="700" font-size="14" transform="translate(534 114)"><tspan x="0" y="13" dx="0">Regeltekst</tspan></text><rect x="872" y="94" width="198" height="173" stroke="none" fill="#D0D0D0"/><rect x="869" y="91" width="197" height="172" stroke="none" stroke-width="2" fill="#CCFFFF"/><rect x="869" y="91" width="197" height="173" stroke="#9A8484" stroke-width="2"/><rect x="869" y="91" width="197" height="172" stroke="#9A8484" stroke-width="2"/><text stroke="none" fill="#000000" font-size="14" transform="translate(930 97)"><tspan x="0" y="13" dx="0">«</tspan><tspan x="7" y="13" dx="0">O</tspan><tspan x="17" y="13" dx="0">b</tspan><tspan x="24" y="13" dx="0">j</tspan><tspan x="28" y="13" dx="0">e</tspan><tspan x="34" y="13" dx="0">c</tspan><tspan x="41" y="13" dx="0 0">tt</tspan><tspan x="49" y="13" dx="0">y</tspan><tspan x="55" y="13" dx="0">p</tspan><tspan x="63" y="13" dx="0">e</tspan><tspan x="69" y="13" dx="0">»</tspan></text><text stroke="none" fill="#000000" font-style="italic" font-weight="700" font-size="14" transform="translate(926 114)"><tspan x="0" y="13" dx="0">JuridischeRegel</tspan></text><path d="M869 136 1066 136" stroke="#9A8484" stroke-width="2"/><text stroke="none" fill="#000000" font-size="14" transform="translate(883 144)"><tspan x="0" y="13" dx="0">«</tspan><tspan x="7" y="13" dx="0">A</tspan><tspan x="15" y="13" dx="0 0">tt</tspan><tspan x="23" y="13" dx="0">r</tspan><tspan x="28" y="13" dx="0">i</tspan><tspan x="32" y="13" dx="0">b</tspan><tspan x="40" y="13" dx="0">u</tspan><tspan x="47" y="13" dx="0">u</tspan><tspan x="54" y="13" dx="0">t</tspan><tspan x="58" y="13" dx="0">s</tspan><tspan x="65" y="13" dx="0">o</tspan><tspan x="72" y="13" dx="0">o</tspan><tspan x="79" y="13" dx="0">r</tspan><tspan x="84" y="13" dx="0">t</tspan><tspan x="89" y="13" dx="0">»</tspan></text><text stroke="none" fill="#66413F" font-size="14" transform="translate(874 161)"><tspan x="0" y="13" dx="0">+</tspan></text><text stroke="none" fill="#66413F" font-size="14" transform="translate(898 161)"><tspan x="0" y="13" dx="0">i</tspan><tspan x="4" y="13" dx="0">d</tspan><tspan x="11" y="13" dx="0">e</tspan><tspan x="18" y="13" dx="0">n</tspan><tspan x="25" y="13" dx="0 0">ti</tspan><tspan x="33" y="13" dx="0 0">fi</tspan><tspan x="42" y="13" dx="0">c</tspan><tspan x="48" y="13" dx="0">a</tspan><tspan x="55" y="13" dx="0 0">ti</tspan><tspan x="64" y="13" dx="0">e</tspan><tspan x="70" y="13" dx="0">:</tspan><tspan x="73" y="13" dx="0"> </tspan><tspan x="76" y="13" dx="0">N</tspan><tspan x="84" y="13" dx="0">E</tspan><tspan x="91" y="13" dx="0">N</tspan><tspan x="99" y="13" dx="0">3</tspan><tspan x="106" y="13" dx="0">6</tspan><tspan x="114" y="13" dx="0">1</tspan><tspan x="121" y="13" dx="0">0</tspan><tspan x="128" y="13" dx="0">I</tspan><tspan x="132" y="13" dx="0">D</tspan><tspan x="141" y="13" dx="0"> </tspan><tspan x="144" y="13" dx="0">{</tspan><tspan x="148" y="13" dx="0">i</tspan><tspan x="152" y="13" dx="0">d</tspan><tspan x="159" y="13" dx="0">}</tspan></text><text stroke="none" fill="#66413F" font-size="14" transform="translate(874 178)"><tspan x="0" y="13" dx="0">+</tspan></text><text stroke="none" fill="#66413F" font-size="14" transform="translate(898 178)"><tspan x="0" y="13" dx="0">i</tspan><tspan x="4" y="13" dx="0">d</tspan><tspan x="11" y="13" dx="0">e</tspan><tspan x="18" y="13" dx="0">a</tspan><tspan x="25" y="13" dx="0">l</tspan><tspan x="29" y="13" dx="0">i</tspan><tspan x="33" y="13" dx="0">s</tspan><tspan x="40" y="13" dx="0">a</tspan><tspan x="47" y="13" dx="0 0">ti</tspan><tspan x="55" y="13" dx="0">e</tspan><tspan x="61" y="13" dx="0">:</tspan><tspan x="65" y="13" dx="0"> </tspan><tspan x="68" y="13" dx="0">I</tspan><tspan x="72" y="13" dx="0">d</tspan><tspan x="79" y="13" dx="0">e</tspan><tspan x="85" y="13" dx="0">a</tspan><tspan x="93" y="13" dx="0">l</tspan><tspan x="97" y="13" dx="0">i</tspan><tspan x="101" y="13" dx="0">s</tspan><tspan x="107" y="13" dx="0">a</tspan><tspan x="115" y="13" dx="0 0">ti</tspan><tspan x="123" y="13" dx="0">e</tspan></text><text stroke="none" fill="#66413F" font-size="14" transform="translate(874 195)"><tspan x="0" y="13" dx="0">+</tspan></text><text stroke="none" fill="#66413F" font-size="14" transform="translate(898 195)"><tspan x="0" y="13" dx="0">thema: Thema [0..*]</tspan></text><rect x="1211" y="350" width="146" height="70" stroke="none" fill="#D0D0D0"/><rect x="1208" y="347" width="145" height="69" stroke="none" stroke-width="2" fill="#CCFFFF"/><rect x="1208" y="347" width="145" height="70" stroke="#9A8484" stroke-width="2"/><rect x="1208" y="347" width="145" height="69" stroke="#9A8484" stroke-width="2"/><text stroke="none" fill="#000000" font-size="14" transform="translate(1243 353)"><tspan x="0" y="13" dx="0">«</tspan><tspan x="7" y="13" dx="0">O</tspan><tspan x="17" y="13" dx="0">b</tspan><tspan x="24" y="13" dx="0">j</tspan><tspan x="28" y="13" dx="0">e</tspan><tspan x="34" y="13" dx="0">c</tspan><tspan x="41" y="13" dx="0 0">tt</tspan><tspan x="49" y="13" dx="0">y</tspan><tspan x="55" y="13" dx="0">p</tspan><tspan x="63" y="13" dx="0">e</tspan><tspan x="69" y="13" dx="0">»</tspan></text><text stroke="none" fill="#000000" font-weight="700" font-size="14" transform="translate(1233 370)"><tspan x="0" y="13" dx="0">JuridischeRegel::</tspan><tspan x="-19" y="30" dx="0">Omgevingswaarderegel</tspan></text><rect x="787" y="351" width="353" height="156" stroke="none" fill="#D0D0D0"/><rect x="784" y="348" width="352" height="155" stroke="none" stroke-width="2" fill="#CCFFFF"/><rect x="784" y="348" width="352" height="156" stroke="#9A8484" stroke-width="2"/><rect x="784" y="348" width="352" height="155" stroke="#9A8484" stroke-width="2"/><text stroke="none" fill="#000000" font-size="14" transform="translate(922 354)"><tspan x="0" y="13" dx="0">«</tspan><tspan x="7" y="13" dx="0">O</tspan><tspan x="17" y="13" dx="0">b</tspan><tspan x="24" y="13" dx="0">j</tspan><tspan x="28" y="13" dx="0">e</tspan><tspan x="34" y="13" dx="0">c</tspan><tspan x="41" y="13" dx="0 0">tt</tspan><tspan x="49" y="13" dx="0">y</tspan><tspan x="55" y="13" dx="0">p</tspan><tspan x="63" y="13" dx="0">e</tspan><tspan x="69" y="13" dx="0">»</tspan></text><text stroke="none" fill="#000000" font-weight="700" font-size="14" transform="translate(871 371)"><tspan x="0" y="13" dx="0">J</tspan><tspan x="4" y="13" dx="0">u</tspan><tspan x="11" y="13" dx="0">r</tspan><tspan x="17" y="13" dx="0">i</tspan><tspan x="20" y="13" dx="0">d</tspan><tspan x="27" y="13" dx="0">i</tspan><tspan x="30" y="13" dx="0">s</tspan><tspan x="35" y="13" dx="0">c</tspan><tspan x="41" y="13" dx="0">h</tspan><tspan x="48" y="13" dx="0">e</tspan><tspan x="55" y="13" dx="0">R</tspan><tspan x="63" y="13" dx="0">e</tspan><tspan x="70" y="13" dx="0">g</tspan><tspan x="76" y="13" dx="0">e</tspan><tspan x="83" y="13" dx="0">l</tspan><tspan x="86" y="13" dx="0">:</tspan><tspan x="91" y="13" dx="0">:</tspan><tspan x="95" y="13" dx="0">I</tspan><tspan x="98" y="13" dx="0">n</tspan><tspan x="105" y="13" dx="0">s</tspan><tspan x="110" y="13" dx="0">t</tspan><tspan x="116" y="13" dx="0">r</tspan><tspan x="121" y="13" dx="0">u</tspan><tspan x="128" y="13" dx="0">c</tspan><tspan x="133" y="13" dx="0 0">ti</tspan><tspan x="142" y="13" dx="0">e</tspan><tspan x="149" y="13" dx="0">r</tspan><tspan x="154" y="13" dx="0">e</tspan><tspan x="162" y="13" dx="0">g</tspan><tspan x="168" y="13" dx="0">e</tspan><tspan x="175" y="13" dx="0">l</tspan></text><path d="M784 393 1136 393" stroke="#9A8484" stroke-width="2"/><text stroke="none" fill="#000000" font-size="14" transform="translate(798 401)"><tspan x="0" y="13" dx="0">«</tspan><tspan x="7" y="13" dx="0">A</tspan><tspan x="15" y="13" dx="0 0">tt</tspan><tspan x="23" y="13" dx="0">r</tspan><tspan x="28" y="13" dx="0">i</tspan><tspan x="32" y="13" dx="0">b</tspan><tspan x="40" y="13" dx="0">u</tspan><tspan x="47" y="13" dx="0">u</tspan><tspan x="54" y="13" dx="0">t</tspan><tspan x="58" y="13" dx="0">s</tspan><tspan x="65" y="13" dx="0">o</tspan><tspan x="72" y="13" dx="0">o</tspan><tspan x="79" y="13" dx="0">r</tspan><tspan x="84" y="13" dx="0">t</tspan><tspan x="89" y="13" dx="0">»</tspan></text><text stroke="none" fill="#66413F" font-size="14" transform="translate(789 418)"><tspan x="0" y="13" dx="0">+</tspan></text><text stroke="none" fill="#66413F" font-size="14" transform="translate(813 418)"><tspan x="0" y="13" dx="0">i</tspan><tspan x="4" y="13" dx="0">n</tspan><tspan x="11" y="13" dx="0">s</tspan><tspan x="18" y="13" dx="0">t</tspan><tspan x="22" y="13" dx="0">r</tspan><tspan x="27" y="13" dx="0">u</tspan><tspan x="34" y="13" dx="0">c</tspan><tspan x="41" y="13" dx="0 0">ti</tspan><tspan x="49" y="13" dx="0">e</tspan><tspan x="55" y="13" dx="0">r</tspan><tspan x="60" y="13" dx="0">e</tspan><tspan x="67" y="13" dx="0">g</tspan><tspan x="73" y="13" dx="0">e</tspan><tspan x="79" y="13" dx="0">l</tspan><tspan x="83" y="13" dx="0">I</tspan><tspan x="88" y="13" dx="0">n</tspan><tspan x="95" y="13" dx="0">s</tspan><tspan x="101" y="13" dx="0">t</tspan><tspan x="105" y="13" dx="0">r</tspan><tspan x="110" y="13" dx="0">u</tspan><tspan x="118" y="13" dx="0">m</tspan><tspan x="128" y="13" dx="0">e</tspan><tspan x="134" y="13" dx="0">n</tspan><tspan x="142" y="13" dx="0">t</tspan><tspan x="146" y="13" dx="0">:</tspan><tspan x="149" y="13" dx="0"> </tspan><tspan x="152" y="13" dx="0">I</tspan><tspan x="156" y="13" dx="0">n</tspan><tspan x="164" y="13" dx="0">s</tspan><tspan x="170" y="13" dx="0">t</tspan><tspan x="174" y="13" dx="0">r</tspan><tspan x="179" y="13" dx="0">u</tspan><tspan x="187" y="13" dx="0">m</tspan><tspan x="197" y="13" dx="0">e</tspan><tspan x="203" y="13" dx="0">n</tspan><tspan x="210" y="13" dx="0">t</tspan><tspan x="215" y="13" dx="0"> </tspan><tspan x="218" y="13" dx="0">[</tspan><tspan x="222" y="13" dx="0">0</tspan><tspan x="229" y="13" dx="0">.</tspan><tspan x="232" y="13" dx="0">.</tspan><tspan x="235" y="13" dx="0">*</tspan><tspan x="242" y="13" dx="0">]</tspan></text><text stroke="none" fill="#66413F" font-size="14" transform="translate(789 435)"><tspan x="0" y="13" dx="0">+</tspan></text><text stroke="none" fill="#66413F" font-size="14" transform="translate(813 435)"><tspan x="0" y="13" dx="0">i</tspan><tspan x="4" y="13" dx="0">n</tspan><tspan x="11" y="13" dx="0">s</tspan><tspan x="18" y="13" dx="0">t</tspan><tspan x="22" y="13" dx="0">r</tspan><tspan x="27" y="13" dx="0">u</tspan><tspan x="34" y="13" dx="0">c</tspan><tspan x="41" y="13" dx="0 0">ti</tspan><tspan x="49" y="13" dx="0">e</tspan><tspan x="55" y="13" dx="0">r</tspan><tspan x="60" y="13" dx="0">e</tspan><tspan x="67" y="13" dx="0">g</tspan><tspan x="73" y="13" dx="0">e</tspan><tspan x="79" y="13" dx="0">l</tspan><tspan x="83" y="13" dx="0">T</tspan><tspan x="90" y="13" dx="0">a</tspan><tspan x="97" y="13" dx="0">a</tspan><tspan x="104" y="13" dx="0">k</tspan><tspan x="110" y="13" dx="0">u</tspan><tspan x="118" y="13" dx="0">i</tspan><tspan x="122" y="13" dx="0">t</tspan><tspan x="126" y="13" dx="0">o</tspan><tspan x="133" y="13" dx="0">e</tspan><tspan x="140" y="13" dx="0">f</tspan><tspan x="144" y="13" dx="0">e</tspan><tspan x="150" y="13" dx="0">n</tspan><tspan x="157" y="13" dx="0">i</tspan><tspan x="162" y="13" dx="0">n</tspan><tspan x="169" y="13" dx="0">g</tspan><tspan x="175" y="13" dx="0">:</tspan><tspan x="178" y="13" dx="0"> </tspan><tspan x="181" y="13" dx="0">A</tspan><tspan x="189" y="13" dx="0">d</tspan><tspan x="196" y="13" dx="0">r</tspan><tspan x="201" y="13" dx="0">e</tspan><tspan x="207" y="13" dx="0">s</tspan><tspan x="214" y="13" dx="0">s</tspan><tspan x="220" y="13" dx="0">a</tspan><tspan x="227" y="13" dx="0">a</tspan><tspan x="234" y="13" dx="0">t</tspan><tspan x="239" y="13" dx="0"> </tspan><tspan x="242" y="13" dx="0">[</tspan><tspan x="246" y="13" dx="0">0</tspan><tspan x="253" y="13" dx="0">.</tspan><tspan x="256" y="13" dx="0">.</tspan><tspan x="259" y="13" dx="0">*</tspan><tspan x="266" y="13" dx="0">]</tspan></text><path d="M784 456 1136 456" stroke="#9A8484" stroke-width="2"/><text stroke="none" fill="#000000" font-style="italic" font-size="14" transform="translate(929 460)"><tspan x="0" y="13" dx="0">constraints</tspan></text><text stroke="none" fill="#000000" font-size="14" transform="translate(789 477)"><tspan x="0" y="13" dx="0">{</tspan><tspan x="4" y="13" dx="0">i</tspan><tspan x="8" y="13" dx="0">n</tspan><tspan x="16" y="13" dx="0">s</tspan><tspan x="22" y="13" dx="0">t</tspan><tspan x="26" y="13" dx="0">r</tspan><tspan x="31" y="13" dx="0">u</tspan><tspan x="39" y="13" dx="0">c</tspan><tspan x="45" y="13" dx="0 0">ti</tspan><tspan x="53" y="13" dx="0">e</tspan><tspan x="59" y="13" dx="0">r</tspan><tspan x="65" y="13" dx="0">e</tspan><tspan x="71" y="13" dx="0">g</tspan><tspan x="77" y="13" dx="0">e</tspan><tspan x="83" y="13" dx="0">l</tspan><tspan x="88" y="13" dx="0">I</tspan><tspan x="92" y="13" dx="0">n</tspan><tspan x="99" y="13" dx="0">s</tspan><tspan x="105" y="13" dx="0">t</tspan><tspan x="109" y="13" dx="0">r</tspan><tspan x="115" y="13" dx="0">u</tspan><tspan x="122" y="13" dx="0">m</tspan><tspan x="132" y="13" dx="0">e</tspan><tspan x="139" y="13" dx="0">n</tspan><tspan x="146" y="13" dx="0">t</tspan><tspan x="150" y="13" dx="0"> </tspan><tspan x="153" y="13" dx="0">o</tspan><tspan x="160" y="13" dx="0">f</tspan><tspan x="165" y="13" dx="0"> </tspan><tspan x="168" y="13" dx="0">i</tspan><tspan x="172" y="13" dx="0">n</tspan><tspan x="179" y="13" dx="0">s</tspan><tspan x="185" y="13" dx="0">t</tspan><tspan x="190" y="13" dx="0">r</tspan><tspan x="195" y="13" dx="0">u</tspan><tspan x="202" y="13" dx="0">c</tspan><tspan x="208" y="13" dx="0 0">ti</tspan><tspan x="217" y="13" dx="0">e</tspan><tspan x="223" y="13" dx="0">r</tspan><tspan x="228" y="13" dx="0">e</tspan><tspan x="234" y="13" dx="0">g</tspan><tspan x="241" y="13" dx="0">e</tspan><tspan x="247" y="13" dx="0">l</tspan><tspan x="251" y="13" dx="0">T</tspan><tspan x="257" y="13" dx="0">a</tspan><tspan x="265" y="13" dx="0">a</tspan><tspan x="272" y="13" dx="0">k</tspan><tspan x="278" y="13" dx="0">u</tspan><tspan x="286" y="13" dx="0">i</tspan><tspan x="290" y="13" dx="0">t</tspan><tspan x="294" y="13" dx="0">o</tspan><tspan x="301" y="13" dx="0">e</tspan><tspan x="307" y="13" dx="0">f</tspan></text><text stroke="none" fill="#000000" font-size="14" transform="translate(1101 477)"><tspan x="0" y="13" dx="0">ening}</tspan></text><rect x="322" y="351" width="342" height="65" stroke="none" fill="#D0D0D0"/><rect x="319" y="348" width="341" height="64" stroke="none" stroke-width="2" fill="#CCFFFF"/><rect x="319" y="348" width="341" height="65" stroke="#9A8484" stroke-width="2"/><rect x="319" y="348" width="341" height="64" stroke="#9A8484" stroke-width="2"/><text stroke="none" fill="#000000" font-size="14" transform="translate(452 354)"><tspan x="0" y="13" dx="0">«</tspan><tspan x="7" y="13" dx="0">O</tspan><tspan x="17" y="13" dx="0">b</tspan><tspan x="24" y="13" dx="0">j</tspan><tspan x="28" y="13" dx="0">e</tspan><tspan x="34" y="13" dx="0">c</tspan><tspan x="41" y="13" dx="0 0">tt</tspan><tspan x="49" y="13" dx="0">y</tspan><tspan x="55" y="13" dx="0">p</tspan><tspan x="63" y="13" dx="0">e</tspan><tspan x="69" y="13" dx="0">»</tspan></text><text stroke="none" fill="#000000" font-weight="700" font-size="14" transform="translate(387 371)"><tspan x="0" y="13" dx="0">JuridischeRegel::RegelVoorIedereen</tspan></text><rect x="869" y="802" width="201" height="117" stroke="none" fill="#D0D0D0"/><rect x="866" y="799" width="200" height="116" stroke="none" stroke-width="2" fill="#FFE4E1"/><rect x="866" y="799" width="200" height="117" stroke="#9A8484" stroke-width="2"/><rect x="866" y="799" width="200" height="116" stroke="#9A8484" stroke-width="2"/><text stroke="none" fill="#000000" font-size="13" transform="translate(930 805)"><tspan x="0" y="12" dx="0">«</tspan><tspan x="6" y="12" dx="0">O</tspan><tspan x="15" y="12" dx="0">b</tspan><tspan x="22" y="12" dx="0">j</tspan><tspan x="25" y="12" dx="0">e</tspan><tspan x="32" y="12" dx="0">c</tspan><tspan x="38" y="12" dx="0 0">tt</tspan><tspan x="46" y="12" dx="0">y</tspan><tspan x="51" y="12" dx="0">p</tspan><tspan x="58" y="12" dx="0">e</tspan><tspan x="66" y="12" dx="0">»</tspan></text><text stroke="none" fill="#000000" font-style="italic" font-weight="700" font-size="13" transform="translate(948 820)"><tspan x="0" y="12" dx="0">L</tspan><tspan x="5" y="12" dx="0">o</tspan><tspan x="11" y="12" dx="0">c</tspan><tspan x="17" y="12" dx="0">a</tspan><tspan x="23" y="12" dx="0 0">ti</tspan><tspan x="30" y="12" dx="0">e</tspan></text><rect x="365" y="837" width="148" height="101" stroke="none" fill="#D0D0D0"/><rect x="362" y="834" width="147" height="100" stroke="none" stroke-width="2" fill="#CCFFCC"/><rect x="362" y="834" width="147" height="101" stroke="#9A8484" stroke-width="2"/><rect x="362" y="834" width="147" height="100" stroke="#9A8484" stroke-width="2"/><text stroke="none" fill="#000000" font-size="13" transform="translate(400 840)"><tspan x="0" y="12" dx="0">«</tspan><tspan x="6" y="12" dx="0">O</tspan><tspan x="15" y="12" dx="0">b</tspan><tspan x="22" y="12" dx="0">j</tspan><tspan x="25" y="12" dx="0">e</tspan><tspan x="32" y="12" dx="0">c</tspan><tspan x="38" y="12" dx="0 0">tt</tspan><tspan x="46" y="12" dx="0">y</tspan><tspan x="51" y="12" dx="0">p</tspan><tspan x="58" y="12" dx="0">e</tspan><tspan x="66" y="12" dx="0">»</tspan></text><text stroke="none" fill="#000000" font-weight="700" font-size="13" transform="translate(412 855)"><tspan x="0" y="12" dx="0">A</tspan><tspan x="7" y="12" dx="0">c</tspan><tspan x="13" y="12" dx="0 0">ti</tspan><tspan x="20" y="12" dx="0">v</tspan><tspan x="26" y="12" dx="0">i</tspan><tspan x="29" y="12" dx="0">t</tspan><tspan x="33" y="12" dx="0">e</tspan><tspan x="40" y="12" dx="0">i</tspan><tspan x="43" y="12" dx="0">t</tspan></text><rect x="975" y="640" width="160" height="92" stroke="none" fill="#D0D0D0"/><rect x="972" y="637" width="159" height="91" stroke="none" stroke-width="2" fill="#CCFFCC"/><rect x="972" y="637" width="159" height="92" stroke="#9A8484" stroke-width="2"/><rect x="972" y="637" width="159" height="91" stroke="#9A8484" stroke-width="2"/><text stroke="none" fill="#000000" font-size="13" transform="translate(1016 643)"><tspan x="0" y="12" dx="0">«</tspan><tspan x="6" y="12" dx="0">O</tspan><tspan x="15" y="12" dx="0">b</tspan><tspan x="22" y="12" dx="0">j</tspan><tspan x="25" y="12" dx="0">e</tspan><tspan x="32" y="12" dx="0">c</tspan><tspan x="38" y="12" dx="0 0">tt</tspan><tspan x="46" y="12" dx="0">y</tspan><tspan x="51" y="12" dx="0">p</tspan><tspan x="58" y="12" dx="0">e</tspan><tspan x="66" y="12" dx="0">»</tspan></text><text stroke="none" fill="#000000" font-weight="700" font-size="13" transform="translate(1009 658)"><tspan x="0" y="12" dx="0">Omgevingsnorm</tspan></text><rect x="1215" y="642" width="139" height="84" stroke="none" fill="#D0D0D0"/><rect x="1212" y="639" width="138" height="83" stroke="none" stroke-width="2" fill="#CCFFCC"/><rect x="1212" y="639" width="138" height="84" stroke="#9A8484" stroke-width="2"/><rect x="1212" y="639" width="138" height="83" stroke="#9A8484" stroke-width="2"/><text stroke="none" fill="#000000" font-size="13" transform="translate(1245 645)"><tspan x="0" y="12" dx="0">«</tspan><tspan x="6" y="12" dx="0">O</tspan><tspan x="15" y="12" dx="0">b</tspan><tspan x="22" y="12" dx="0">j</tspan><tspan x="25" y="12" dx="0">e</tspan><tspan x="32" y="12" dx="0">c</tspan><tspan x="38" y="12" dx="0 0">tt</tspan><tspan x="46" y="12" dx="0">y</tspan><tspan x="51" y="12" dx="0">p</tspan><tspan x="58" y="12" dx="0">e</tspan><tspan x="66" y="12" dx="0">»</tspan></text><text stroke="none" fill="#000000" font-weight="700" font-size="13" transform="translate(1233 660)"><tspan x="0" y="12" dx="0">Omgevingswaarde</tspan></text><rect x="618" y="610" width="160" height="50" stroke="none" fill="#D0D0D0"/><rect x="615" y="607" width="159" height="49" stroke="none" stroke-width="2" fill="#CCFFCC"/><rect x="615" y="607" width="159" height="50" stroke="#9A8484" stroke-width="2"/><rect x="615" y="607" width="159" height="49" stroke="#9A8484" stroke-width="2"/><text stroke="none" fill="#000000" font-size="13" transform="translate(659 613)"><tspan x="0" y="12" dx="0">«</tspan><tspan x="6" y="12" dx="0">O</tspan><tspan x="15" y="12" dx="0">b</tspan><tspan x="22" y="12" dx="0">j</tspan><tspan x="25" y="12" dx="0">e</tspan><tspan x="32" y="12" dx="0">c</tspan><tspan x="38" y="12" dx="0 0">tt</tspan><tspan x="46" y="12" dx="0">y</tspan><tspan x="51" y="12" dx="0">p</tspan><tspan x="58" y="12" dx="0">e</tspan><tspan x="66" y="12" dx="0">»</tspan></text><text stroke="none" fill="#000000" font-weight="700" font-size="13" transform="translate(646 628)"><tspan x="0" y="12" dx="0">Gebiedsaanwijzing</tspan></text><rect x="485" y="686" width="231" height="50" stroke="none" fill="#D0D0D0"/><rect x="482" y="683" width="230" height="49" stroke="none" stroke-width="2" fill="#CCFFCC"/><rect x="482" y="683" width="230" height="50" stroke="#9A8484" stroke-width="2"/><rect x="482" y="683" width="230" height="49" stroke="#9A8484" stroke-width="2"/><text stroke="none" fill="#000000" font-size="13" transform="translate(561 689)"><tspan x="0" y="12" dx="0">«</tspan><tspan x="6" y="12" dx="0">O</tspan><tspan x="15" y="12" dx="0">b</tspan><tspan x="22" y="12" dx="0">j</tspan><tspan x="25" y="12" dx="0">e</tspan><tspan x="32" y="12" dx="0">c</tspan><tspan x="38" y="12" dx="0 0">tt</tspan><tspan x="46" y="12" dx="0">y</tspan><tspan x="51" y="12" dx="0">p</tspan><tspan x="58" y="12" dx="0">e</tspan><tspan x="66" y="12" dx="0">»</tspan></text><text stroke="none" fill="#000000" font-weight="700" font-size="13" transform="translate(527 704)"><tspan x="0" y="12" dx="0">A</tspan><tspan x="7" y="12" dx="0">c</tspan><tspan x="13" y="12" dx="0 0">ti</tspan><tspan x="20" y="12" dx="0">v</tspan><tspan x="26" y="12" dx="0">i</tspan><tspan x="29" y="12" dx="0">t</tspan><tspan x="33" y="12" dx="0">e</tspan><tspan x="40" y="12" dx="0">i</tspan><tspan x="43" y="12" dx="0">t</tspan><tspan x="47" y="12" dx="0">L</tspan><tspan x="52" y="12" dx="0">o</tspan><tspan x="58" y="12" dx="0">c</tspan><tspan x="64" y="12" dx="0">a</tspan><tspan x="70" y="12" dx="0 0">ti</tspan><tspan x="77" y="12" dx="0">e</tspan><tspan x="83" y="12" dx="0">a</tspan><tspan x="90" y="12" dx="0">a</tspan><tspan x="96" y="12" dx="0">n</tspan><tspan x="102" y="12" dx="0">d</tspan><tspan x="108" y="12" dx="0">u</tspan><tspan x="115" y="12" dx="0">i</tspan><tspan x="118" y="12" dx="0">d</tspan><tspan x="124" y="12" dx="0">i</tspan><tspan x="127" y="12" dx="0">n</tspan><tspan x="133" y="12" dx="0">g</tspan></text><rect x="1254" y="104" width="146" height="74" stroke="none" fill="#D0D0D0"/><rect x="1251" y="101" width="145" height="73" stroke="none" fill="#FFFE99"/><rect x="1251" y="101" width="145" height="74" stroke="#9A8484"/><rect x="1251" y="101" width="145" height="73" stroke="#9A8484"/><text stroke="none" fill="#000000" font-size="13" transform="translate(1288 107)"><tspan x="0" y="12" dx="0">«</tspan><tspan x="6" y="12" dx="0">O</tspan><tspan x="15" y="12" dx="0">b</tspan><tspan x="22" y="12" dx="0">j</tspan><tspan x="25" y="12" dx="0">e</tspan><tspan x="32" y="12" dx="0">c</tspan><tspan x="38" y="12" dx="0 0">tt</tspan><tspan x="46" y="12" dx="0">y</tspan><tspan x="51" y="12" dx="0">p</tspan><tspan x="58" y="12" dx="0">e</tspan><tspan x="66" y="12" dx="0">»</tspan></text><text stroke="none" fill="#000000" font-weight="700" font-size="13" transform="translate(1310 122)"><tspan x="0" y="12" dx="0">Kaart</tspan></text><path d="M438 414 438 833" stroke="#69738C" stroke-width="2"/><path d="M438 623 445 626M449 628 456 632M460 634 467 638M471 640 478 644M482 646 489 650M493 652 500 656M504 658 511 662M515 664 522 668M526 670 533 673M537 676 544 679M548 681 550 683" stroke="#69738C"/><path d="M661 733 661 816M661 816 866 816M866 816 851 822M866 816 851 810" stroke="#69738C" stroke-width="2"/><path d="M1068 139 1251 138M1251 138 1236 144M1251 138 1236 132" stroke="#69738C"/><path d="M869 264 695 264M695 264 695 607M695 607 689 592M695 607 701 592" stroke="#69738C" stroke-width="2"/><path d="M775 633 929 633M929 633 929 799M929 799 923 784M929 799 935 784" stroke="#69738C" stroke-width="2"/><path d="M558 413 558 558M558 558 688.5 557.04C688.52 560.04 691 562.5 694 562.5 697.01 562.5 699.49 560.03 699.5 557.02M699 557 1015 558M1015 558 1015 637M1015 637 1009 622M1015 637 1021 622" stroke="#69738C" stroke-width="2"/><path d="M1067 222 1377 222M1377 222 1377 750M1377 750 1008 750M1008 750 1008 799M1008 799 1002 784M1008 799 1014 784" stroke="#69738C" stroke-width="2"/><path d="M1281 418 1281 638M1281 638 1275 623M1281 638 1287 623" stroke="#69738C" stroke-width="2"/><path d="M868 150 649 150M649 150 664 144M649 150 664 156" stroke="#69738C" stroke-width="2"/><path d="M490 347 490 314M490 314 688.5 313.03C688.51 316.03 690.99 318.5 694 318.5 697.01 318.5 699.49 316.03 699.5 313.02M699 313 968 314M968 314 968 265" stroke="#69738C" stroke-width="2"/><path d="M974 281 962 281 968 265 974 281" stroke="#69738C" stroke-width="2" fill="#FAF1EC"/><path d="M1279 346 1279 314M1279 314 968 314" stroke="#69738C" stroke-width="2"/><path d="M968 347 968 314" stroke="#69738C" stroke-width="2"/><path d="M1063 504 1063 636M1063 636 1057 621M1063 636 1069 621" stroke="#69738C" stroke-width="2"/><g transform="matrix(1 0 0 -1 663 174)"><rect x="0" y="-13" width="53" height="13" stroke="none" fill="#FFFFFF"/></g><text stroke="none" fill="#595959" transform="translate(663 174)"><tspan x="0" y="10" dx="0">+</tspan><tspan x="5.33333" y="10" dx="0">a</tspan><tspan x="10.3333" y="10" dx="0">r</tspan><tspan x="13.6667" y="10" dx="0 0">ti</tspan><tspan x="19.3333" y="10" dx="0">k</tspan><tspan x="24" y="10" dx="0">e</tspan><tspan x="29" y="10" dx="0">l</tspan><tspan x="31.3333" y="10" dx="0">O</tspan><tspan x="38" y="10" dx="0">f</tspan><tspan x="41" y="10" dx="0">L</tspan><tspan x="45.3333" y="10" dx="0">i</tspan><tspan x="47.6667" y="10" dx="0">d</tspan></text><g transform="matrix(1 0 0 -1 663 187)"><rect x="0" y="-13" width="49" height="13" stroke="none" fill="#FFFFFF"/></g><text stroke="none" fill="#595959" transform="translate(663 187)"><tspan x="0" y="10" dx="0">«</tspan><tspan x="5" y="10" dx="0">R</tspan><tspan x="10.3333" y="10" dx="0">e</tspan><tspan x="15.3333" y="10" dx="0">l</tspan><tspan x="17.6667" y="10" dx="0">a</tspan><tspan x="22.3333" y="10" dx="0 0">ti</tspan><tspan x="28" y="10" dx="0">e</tspan><tspan x="33" y="10" dx="0">r</tspan><tspan x="36.3333" y="10" dx="0">o</tspan><tspan x="41.6667" y="10" dx="0">l</tspan><tspan x="44" y="10" dx="0">»</tspan></text><g transform="matrix(1 0 0 -1 666 160)"><rect x="0" y="-13" width="5" height="13" stroke="none" fill="#FFFFFF"/></g><text stroke="none" fill="#595959" transform="translate(666 160)"><tspan x="0" y="10" dx="0">1</tspan></text><g transform="matrix(1 0 0 -1 1071 593)"><rect x="0" y="-13" width="119" height="13" stroke="none" fill="#FFFFFF"/></g><text stroke="none" fill="#595959" transform="translate(1071 593)"><tspan x="0" y="10" dx="0">+omgevingsnormaanduiding</tspan></text><g transform="matrix(1 0 0 -1 1071 606)"><rect x="0" y="-13" width="49" height="13" stroke="none" fill="#FFFFFF"/></g><text stroke="none" fill="#595959" transform="translate(1071 606)"><tspan x="0" y="10" dx="0">«</tspan><tspan x="5" y="10" dx="0">R</tspan><tspan x="10.3333" y="10" dx="0">e</tspan><tspan x="15.3333" y="10" dx="0">l</tspan><tspan x="17.6667" y="10" dx="0">a</tspan><tspan x="22.3333" y="10" dx="0 0">ti</tspan><tspan x="28" y="10" dx="0">e</tspan><tspan x="33" y="10" dx="0">r</tspan><tspan x="36.3333" y="10" dx="0">o</tspan><tspan x="41.6667" y="10" dx="0">l</tspan><tspan x="44" y="10" dx="0">»</tspan></text><g transform="matrix(1 0 0 -1 1076 619)"><rect x="0" y="-13" width="17" height="13" stroke="none" fill="#FFFFFF"/></g><text stroke="none" fill="#595959" transform="translate(1076 619)"><tspan x="0" y="10" dx="0">0..*</tspan></text><g transform="matrix(1 0 0 -1 336 782)"><rect x="0" y="-13" width="86" height="13" stroke="none" fill="#FFFFFF"/></g><text stroke="none" fill="#595959" transform="translate(336 782)"><tspan x="0" y="10" dx="0">+</tspan><tspan x="5" y="10" dx="0">a</tspan><tspan x="9.66667" y="10" dx="0">c</tspan><tspan x="14" y="10" dx="0 0">ti</tspan><tspan x="19.6667" y="10" dx="0">v</tspan><tspan x="24.3333" y="10" dx="0">i</tspan><tspan x="26.6667" y="10" dx="0">t</tspan><tspan x="30" y="10" dx="0">e</tspan><tspan x="35" y="10" dx="0">i</tspan><tspan x="37.3333" y="10" dx="0">t</tspan><tspan x="40.6667" y="10" dx="0">a</tspan><tspan x="45.3333" y="10" dx="0">a</tspan><tspan x="50" y="10" dx="0">n</tspan><tspan x="55.3333" y="10" dx="0">d</tspan><tspan x="60.6667" y="10" dx="0">u</tspan><tspan x="66" y="10" dx="0">i</tspan><tspan x="68.3333" y="10" dx="0">d</tspan><tspan x="73.6667" y="10" dx="0">i</tspan><tspan x="76" y="10" dx="0">n</tspan><tspan x="81.3333" y="10" dx="0">g</tspan></text><g transform="matrix(1 0 0 -1 373 795)"><rect x="0" y="-13" width="49" height="13" stroke="none" fill="#FFFFFF"/></g><text stroke="none" fill="#595959" transform="translate(373 795)"><tspan x="0" y="10" dx="0">«</tspan><tspan x="5" y="10" dx="0">R</tspan><tspan x="10.3333" y="10" dx="0">e</tspan><tspan x="15.3333" y="10" dx="0">l</tspan><tspan x="17.6667" y="10" dx="0">a</tspan><tspan x="22.3333" y="10" dx="0 0">ti</tspan><tspan x="28" y="10" dx="0">e</tspan><tspan x="33" y="10" dx="0">r</tspan><tspan x="36.3333" y="10" dx="0">o</tspan><tspan x="41.6667" y="10" dx="0">l</tspan><tspan x="44" y="10" dx="0">»</tspan></text><g transform="matrix(1 0 0 -1 446 815)"><rect x="0" y="-13" width="17" height="13" stroke="none" fill="#FFFFFF"/></g><text stroke="none" fill="#595959" transform="translate(446 815)"><tspan x="0" y="10" dx="0">0..*</tspan></text><g transform="matrix(1 0 0 -1 1176 105)"><rect x="0" y="-13" width="73" height="13" stroke="none" fill="#FFFFFF"/></g><text stroke="none" fill="#595959" transform="translate(1176 105)"><tspan x="0" y="10" dx="0">+kaartaanduiding</tspan></text><g transform="matrix(1 0 0 -1 1187 118)"><rect x="0" y="-13" width="49" height="13" stroke="none" fill="#FFFFFF"/></g><text stroke="none" fill="#595959" transform="translate(1187 118)"><tspan x="0" y="10" dx="0">«</tspan><tspan x="5" y="10" dx="0">R</tspan><tspan x="10.3333" y="10" dx="0">e</tspan><tspan x="15.3333" y="10" dx="0">l</tspan><tspan x="17.6667" y="10" dx="0">a</tspan><tspan x="22.3333" y="10" dx="0 0">ti</tspan><tspan x="28" y="10" dx="0">e</tspan><tspan x="33" y="10" dx="0">r</tspan><tspan x="36.3333" y="10" dx="0">o</tspan><tspan x="41.6667" y="10" dx="0">l</tspan><tspan x="44" y="10" dx="0">»</tspan></text><g transform="matrix(1 0 0 -1 1232 143)"><rect x="0" y="-13" width="17" height="13" stroke="none" fill="#FFFFFF"/></g><text stroke="none" fill="#595959" transform="translate(1232 143)"><tspan x="0" y="10" dx="0">0..*</tspan></text><g transform="matrix(1 0 0 -1 887 598)"><rect x="0" y="-13" width="119" height="13" stroke="none" fill="#FFFFFF"/></g><text stroke="none" fill="#595959" transform="translate(887 598)"><tspan x="0" y="10" dx="0">+omgevingsnormaanduiding</tspan></text><g transform="matrix(1 0 0 -1 957 611)"><rect x="0" y="-13" width="49" height="13" stroke="none" fill="#FFFFFF"/></g><text stroke="none" fill="#595959" transform="translate(957 611)"><tspan x="0" y="10" dx="0">«</tspan><tspan x="5" y="10" dx="0">R</tspan><tspan x="10.3333" y="10" dx="0">e</tspan><tspan x="15.3333" y="10" dx="0">l</tspan><tspan x="17.6667" y="10" dx="0">a</tspan><tspan x="22.3333" y="10" dx="0 0">ti</tspan><tspan x="28" y="10" dx="0">e</tspan><tspan x="33" y="10" dx="0">r</tspan><tspan x="36.3333" y="10" dx="0">o</tspan><tspan x="41.6667" y="10" dx="0">l</tspan><tspan x="44" y="10" dx="0">»</tspan></text><g transform="matrix(1 0 0 -1 1023 619)"><rect x="0" y="-13" width="17" height="13" stroke="none" fill="#FFFFFF"/></g><text stroke="none" fill="#595959" transform="translate(1023 619)"><tspan x="0" y="10" dx="0">0..*</tspan></text><g transform="matrix(1 0 0 -1 1042 767)"><rect x="0" y="-13" width="78" height="13" stroke="none" fill="#FFFFFF"/></g><text stroke="none" fill="#595959" transform="translate(1042 767)"><tspan x="0" y="10" dx="0">+</tspan><tspan x="5.33333" y="10" dx="0">l</tspan><tspan x="7.66667" y="10" dx="0">o</tspan><tspan x="13" y="10" dx="0">c</tspan><tspan x="17.3333" y="10" dx="0">a</tspan><tspan x="22" y="10" dx="0 0">ti</tspan><tspan x="27.6667" y="10" dx="0">e</tspan><tspan x="32.6667" y="10" dx="0">a</tspan><tspan x="37.3333" y="10" dx="0">a</tspan><tspan x="42" y="10" dx="0">n</tspan><tspan x="47.3333" y="10" dx="0">d</tspan><tspan x="52.6667" y="10" dx="0">u</tspan><tspan x="58" y="10" dx="0">i</tspan><tspan x="60.3333" y="10" dx="0">d</tspan><tspan x="65.6667" y="10" dx="0">i</tspan><tspan x="68" y="10" dx="0">n</tspan><tspan x="73.3333" y="10" dx="0">g</tspan></text><g transform="matrix(1 0 0 -1 1055 780)"><rect x="0" y="-13" width="49" height="13" stroke="none" fill="#FFFFFF"/></g><text stroke="none" fill="#595959" transform="translate(1055 780)"><tspan x="0" y="10" dx="0">«</tspan><tspan x="5" y="10" dx="0">R</tspan><tspan x="10.3333" y="10" dx="0">e</tspan><tspan x="15.3333" y="10" dx="0">l</tspan><tspan x="17.6667" y="10" dx="0">a</tspan><tspan x="22.3333" y="10" dx="0 0">ti</tspan><tspan x="28" y="10" dx="0">e</tspan><tspan x="33" y="10" dx="0">r</tspan><tspan x="36.3333" y="10" dx="0">o</tspan><tspan x="41.6667" y="10" dx="0">l</tspan><tspan x="44" y="10" dx="0">»</tspan></text><g transform="matrix(1 0 0 -1 1018 771)"><rect x="0" y="-13" width="17" height="13" stroke="none" fill="#FFFFFF"/></g><text stroke="none" fill="#595959" transform="translate(1018 771)"><tspan x="0" y="10" dx="0">1..*</tspan></text><g transform="matrix(1 0 0 -1 1287 594)"><rect x="0" y="-13" width="128" height="13" stroke="none" fill="#FFFFFF"/></g><text stroke="none" fill="#595959" transform="translate(1287 594)"><tspan x="0" y="10" dx="0">+omgevingswaardeaanduiding</tspan></text><g transform="matrix(1 0 0 -1 1287 607)"><rect x="0" y="-13" width="49" height="13" stroke="none" fill="#FFFFFF"/></g><text stroke="none" fill="#595959" transform="translate(1287 607)"><tspan x="0" y="10" dx="0">«</tspan><tspan x="5" y="10" dx="0">R</tspan><tspan x="10.3333" y="10" dx="0">e</tspan><tspan x="15.3333" y="10" dx="0">l</tspan><tspan x="17.6667" y="10" dx="0">a</tspan><tspan x="22.3333" y="10" dx="0 0">ti</tspan><tspan x="28" y="10" dx="0">e</tspan><tspan x="33" y="10" dx="0">r</tspan><tspan x="36.3333" y="10" dx="0">o</tspan><tspan x="41.6667" y="10" dx="0">l</tspan><tspan x="44" y="10" dx="0">»</tspan></text><g transform="matrix(1 0 0 -1 1289 620)"><rect x="0" y="-13" width="17" height="13" stroke="none" fill="#FFFFFF"/></g><text stroke="none" fill="#595959" transform="translate(1289 620)"><tspan x="0" y="10" dx="0">0..*</tspan></text><g transform="matrix(1 0 0 -1 572 571)"><rect x="0" y="-13" width="81" height="13" stroke="none" fill="#FFFFFF"/></g><text stroke="none" fill="#595959" transform="translate(572 571)"><tspan x="0" y="10" dx="0">+gebiedsaanwijzing</tspan></text><g transform="matrix(1 0 0 -1 572 584)"><rect x="0" y="-13" width="49" height="13" stroke="none" fill="#FFFFFF"/></g><text stroke="none" fill="#595959" transform="translate(572 584)"><tspan x="0" y="10" dx="0">«</tspan><tspan x="5" y="10" dx="0">R</tspan><tspan x="10.3333" y="10" dx="0">e</tspan><tspan x="15.3333" y="10" dx="0">l</tspan><tspan x="17.6667" y="10" dx="0">a</tspan><tspan x="22.3333" y="10" dx="0 0">ti</tspan><tspan x="28" y="10" dx="0">e</tspan><tspan x="33" y="10" dx="0">r</tspan><tspan x="36.3333" y="10" dx="0">o</tspan><tspan x="41.6667" y="10" dx="0">l</tspan><tspan x="44" y="10" dx="0">»</tspan></text><g transform="matrix(1 0 0 -1 703 589)"><rect x="0" y="-13" width="17" height="13" stroke="none" fill="#FFFFFF"/></g><text stroke="none" fill="#595959" transform="translate(703 589)"><tspan x="0" y="10" dx="0">0..*</tspan></text><g transform="matrix(1 0 0 -1 755 827)"><rect x="0" y="-13" width="78" height="13" stroke="none" fill="#FFFFFF"/></g><text stroke="none" fill="#595959" transform="translate(755 827)"><tspan x="0" y="10" dx="0">+</tspan><tspan x="5.33333" y="10" dx="0">l</tspan><tspan x="7.66667" y="10" dx="0">o</tspan><tspan x="13" y="10" dx="0">c</tspan><tspan x="17.3333" y="10" dx="0">a</tspan><tspan x="22" y="10" dx="0 0">ti</tspan><tspan x="27.6667" y="10" dx="0">e</tspan><tspan x="32.6667" y="10" dx="0">a</tspan><tspan x="37.3333" y="10" dx="0">a</tspan><tspan x="42" y="10" dx="0">n</tspan><tspan x="47.3333" y="10" dx="0">d</tspan><tspan x="52.6667" y="10" dx="0">u</tspan><tspan x="58" y="10" dx="0">i</tspan><tspan x="60.3333" y="10" dx="0">d</tspan><tspan x="65.6667" y="10" dx="0">i</tspan><tspan x="68" y="10" dx="0">n</tspan><tspan x="73.3333" y="10" dx="0">g</tspan></text><g transform="matrix(1 0 0 -1 784 840)"><rect x="0" y="-13" width="49" height="13" stroke="none" fill="#FFFFFF"/></g><text stroke="none" fill="#595959" transform="translate(784 840)"><tspan x="0" y="10" dx="0">«</tspan><tspan x="5" y="10" dx="0">R</tspan><tspan x="10.3333" y="10" dx="0">e</tspan><tspan x="15.3333" y="10" dx="0">l</tspan><tspan x="17.6667" y="10" dx="0">a</tspan><tspan x="22.3333" y="10" dx="0 0">ti</tspan><tspan x="28" y="10" dx="0">e</tspan><tspan x="33" y="10" dx="0">r</tspan><tspan x="36.3333" y="10" dx="0">o</tspan><tspan x="41.6667" y="10" dx="0">l</tspan><tspan x="44" y="10" dx="0">»</tspan></text><g transform="matrix(1 0 0 -1 847 821)"><rect x="0" y="-13" width="17" height="13" stroke="none" fill="#FFFFFF"/></g><text stroke="none" fill="#595959" transform="translate(847 821)"><tspan x="0" y="10" dx="0">1..*</tspan></text><g transform="matrix(1 0 0 -1 830 736)"><rect x="0" y="-13" width="78" height="13" stroke="none" fill="#FFFFFF"/></g><text stroke="none" fill="#595959" transform="translate(830 736)"><tspan x="0" y="10" dx="0">+</tspan><tspan x="5.33333" y="10" dx="0">l</tspan><tspan x="7.66667" y="10" dx="0">o</tspan><tspan x="13" y="10" dx="0">c</tspan><tspan x="17.3333" y="10" dx="0">a</tspan><tspan x="22" y="10" dx="0 0">ti</tspan><tspan x="27.6667" y="10" dx="0">e</tspan><tspan x="32.6667" y="10" dx="0">a</tspan><tspan x="37.3333" y="10" dx="0">a</tspan><tspan x="42" y="10" dx="0">n</tspan><tspan x="47.3333" y="10" dx="0">d</tspan><tspan x="52.6667" y="10" dx="0">u</tspan><tspan x="58" y="10" dx="0">i</tspan><tspan x="60.3333" y="10" dx="0">d</tspan><tspan x="65.6667" y="10" dx="0">i</tspan><tspan x="68" y="10" dx="0">n</tspan><tspan x="73.3333" y="10" dx="0">g</tspan></text><g transform="matrix(1 0 0 -1 859 749)"><rect x="0" y="-13" width="49" height="13" stroke="none" fill="#FFFFFF"/></g><text stroke="none" fill="#595959" transform="translate(859 749)"><tspan x="0" y="10" dx="0">«</tspan><tspan x="5" y="10" dx="0">R</tspan><tspan x="10.3333" y="10" dx="0">e</tspan><tspan x="15.3333" y="10" dx="0">l</tspan><tspan x="17.6667" y="10" dx="0">a</tspan><tspan x="22.3333" y="10" dx="0 0">ti</tspan><tspan x="28" y="10" dx="0">e</tspan><tspan x="33" y="10" dx="0">r</tspan><tspan x="36.3333" y="10" dx="0">o</tspan><tspan x="41.6667" y="10" dx="0">l</tspan><tspan x="44" y="10" dx="0">»</tspan></text><g transform="matrix(1 0 0 -1 943 771)"><rect x="0" y="-13" width="17" height="13" stroke="none" fill="#FFFFFF"/></g><text stroke="none" fill="#595959" transform="translate(943 771)"><tspan x="0" y="10" dx="0">1..*</tspan></text></g></g></g></g></svg>