<svg width="581.006" height="525.394" viewBox="137.675 2.64616 435.754 394.046" xmlns="http://www.w3.org/2000/svg" xmlns:xlink="http://www.w3.org/1999/xlink" overflow="hidden"><g transform="matrix(1 0 0 -1 0 841)"><g stroke="#000000" stroke-linecap="round" stroke-linejoin="round" stroke-miterlimit="3" fill="none" fill-rule="evenodd" font-weight="400" baseline-shift="0"><g transform="matrix(0.75 0 0 0.75 0 841.65)"><g font-family="CalibriUnicode" font-size="13" transform="scale(1.0012 -1.00411)"><rect x="194" y="15" width="559" height="502" stroke="#9A8484"/><rect x="212" y="351" width="203" height="136" stroke="none" fill="#D0D0D0"/><rect x="209" y="348" width="202" height="135" stroke="none" stroke-width="2" fill="#CCFFFF"/><rect x="209" y="348" width="202" height="136" stroke="#9A8484" stroke-width="2"/><rect x="209" y="348" width="202" height="135" stroke="#9A8484" stroke-width="2"/><text stroke="none" fill="#000000" transform="translate(274 354)"><tspan x="0" y="12" dx="0">«</tspan><tspan x="6" y="12" dx="0">O</tspan><tspan x="15" y="12" dx="0">b</tspan><tspan x="22" y="12" dx="0">j</tspan><tspan x="25" y="12" dx="0">e</tspan><tspan x="32" y="12" dx="0">c</tspan><tspan x="38" y="12" dx="0 0">tt</tspan><tspan x="46" y="12" dx="0">y</tspan><tspan x="51" y="12" dx="0">p</tspan><tspan x="58" y="12" dx="0">e</tspan><tspan x="66" y="12" dx="0">»</tspan></text><text stroke="none" fill="#000000" font-weight="700" transform="translate(285 369)"><tspan x="0" y="12" dx="0">Tekstdeel</tspan></text><path d="M209 389 411 389" stroke="#9A8484" stroke-width="2"/><text stroke="none" fill="#000000" transform="translate(222 397)"><tspan x="0" y="12" dx="0">«</tspan><tspan x="6" y="12" dx="0">A</tspan><tspan x="14" y="12" dx="0 0">tt</tspan><tspan x="22" y="12" dx="0">r</tspan><tspan x="26" y="12" dx="0">i</tspan><tspan x="30" y="12" dx="0">b</tspan><tspan x="38" y="12" dx="0">u</tspan><tspan x="45" y="12" dx="0">u</tspan><tspan x="52" y="12" dx="0">t</tspan><tspan x="56" y="12" dx="0">s</tspan><tspan x="63" y="12" dx="0">o</tspan><tspan x="70" y="12" dx="0">o</tspan><tspan x="77" y="12" dx="0">r</tspan><tspan x="81" y="12" dx="0">t</tspan><tspan x="86" y="12" dx="0">»</tspan></text><text stroke="none" fill="#66413F" transform="translate(214 412)"><tspan x="0" y="12" dx="0">+</tspan></text><text stroke="none" fill="#66413F" transform="translate(235 412)"><tspan x="0" y="12" dx="0">i</tspan><tspan x="4" y="12" dx="0">d</tspan><tspan x="11" y="12" dx="0">e</tspan><tspan x="19" y="12" dx="0">n</tspan><tspan x="26" y="12" dx="0 0">ti</tspan><tspan x="34" y="12" dx="0 0">fi</tspan><tspan x="43" y="12" dx="0">c</tspan><tspan x="48" y="12" dx="0">a</tspan><tspan x="55" y="12" dx="0 0">ti</tspan><tspan x="64" y="12" dx="0">e</tspan><tspan x="71" y="12" dx="0">:</tspan><tspan x="74" y="12" dx="0"> </tspan><tspan x="77" y="12" dx="0">N</tspan><tspan x="86" y="12" dx="0">E</tspan><tspan x="92" y="12" dx="0">N</tspan><tspan x="100" y="12" dx="0">3</tspan><tspan x="106" y="12" dx="0">6</tspan><tspan x="113" y="12" dx="0">1</tspan><tspan x="119" y="12" dx="0">0</tspan><tspan x="125" y="12" dx="0">I</tspan><tspan x="129" y="12" dx="0">D</tspan><tspan x="138" y="12" dx="0"> </tspan><tspan x="141" y="12" dx="0">{</tspan><tspan x="145" y="12" dx="0">i</tspan><tspan x="149" y="12" dx="0">d</tspan><tspan x="156" y="12" dx="0">}</tspan></text><text stroke="none" fill="#66413F" transform="translate(214 427)"><tspan x="0" y="12" dx="0">+</tspan></text><text stroke="none" fill="#66413F" transform="translate(235 427)"><tspan x="0" y="12" dx="0">i</tspan><tspan x="4" y="12" dx="0">d</tspan><tspan x="11" y="12" dx="0">e</tspan><tspan x="19" y="12" dx="0">a</tspan><tspan x="26" y="12" dx="0">l</tspan><tspan x="30" y="12" dx="0">i</tspan><tspan x="34" y="12" dx="0">s</tspan><tspan x="41" y="12" dx="0">a</tspan><tspan x="48" y="12" dx="0 0">ti</tspan><tspan x="56" y="12" dx="0">e</tspan><tspan x="64" y="12" dx="0">:</tspan><tspan x="67" y="12" dx="0"> </tspan><tspan x="70" y="12" dx="0">I</tspan><tspan x="74" y="12" dx="0">d</tspan><tspan x="81" y="12" dx="0">e</tspan><tspan x="89" y="12" dx="0">a</tspan><tspan x="96" y="12" dx="0">l</tspan><tspan x="100" y="12" dx="0">i</tspan><tspan x="104" y="12" dx="0">s</tspan><tspan x="111" y="12" dx="0">a</tspan><tspan x="118" y="12" dx="0 0">ti</tspan><tspan x="126" y="12" dx="0">e</tspan><tspan x="133" y="12" dx="0"> </tspan><tspan x="137" y="12" dx="0">[</tspan><tspan x="141" y="12" dx="0">0</tspan><tspan x="147" y="12" dx="0">.</tspan><tspan x="150" y="12" dx="0">.</tspan><tspan x="153" y="12" dx="0">1</tspan><tspan x="160" y="12" dx="0">]</tspan></text><text stroke="none" fill="#66413F" transform="translate(214 442)"><tspan x="0" y="12" dx="0">+</tspan></text><text stroke="none" fill="#66413F" transform="translate(235 442)"><tspan x="0" y="12" dx="0">thema: Thema [0..*]</tspan></text><rect x="214" y="29" width="203" height="102" stroke="none" fill="#D0D0D0"/><rect x="211" y="26" width="202" height="101" stroke="none" stroke-width="2" fill="#99CCFF"/><rect x="211" y="26" width="202" height="102" stroke="#9A8484" stroke-width="2"/><rect x="211" y="26" width="202" height="101" stroke="#9A8484" stroke-width="2"/><text stroke="none" fill="#000000" transform="translate(276 32)"><tspan x="0" y="12" dx="0">«</tspan><tspan x="6" y="12" dx="0">O</tspan><tspan x="15" y="12" dx="0">b</tspan><tspan x="22" y="12" dx="0">j</tspan><tspan x="25" y="12" dx="0">e</tspan><tspan x="32" y="12" dx="0">c</tspan><tspan x="38" y="12" dx="0 0">tt</tspan><tspan x="46" y="12" dx="0">y</tspan><tspan x="51" y="12" dx="0">p</tspan><tspan x="58" y="12" dx="0">e</tspan><tspan x="66" y="12" dx="0">»</tspan></text><text stroke="none" fill="#000000" font-weight="700" transform="translate(295 47)"><tspan x="0" y="12" dx="0">Divisie</tspan></text><path d="M211 67 413 67" stroke="#9A8484" stroke-width="2"/><text stroke="none" fill="#000000" transform="translate(224 75)"><tspan x="0" y="12" dx="0">«</tspan><tspan x="6" y="12" dx="0">A</tspan><tspan x="14" y="12" dx="0 0">tt</tspan><tspan x="22" y="12" dx="0">r</tspan><tspan x="26" y="12" dx="0">i</tspan><tspan x="30" y="12" dx="0">b</tspan><tspan x="38" y="12" dx="0">u</tspan><tspan x="45" y="12" dx="0">u</tspan><tspan x="52" y="12" dx="0">t</tspan><tspan x="56" y="12" dx="0">s</tspan><tspan x="63" y="12" dx="0">o</tspan><tspan x="70" y="12" dx="0">o</tspan><tspan x="77" y="12" dx="0">r</tspan><tspan x="81" y="12" dx="0">t</tspan><tspan x="86" y="12" dx="0">»</tspan></text><text stroke="none" fill="#66413F" transform="translate(216 90)"><tspan x="0" y="12" dx="0">+</tspan></text><text stroke="none" fill="#66413F" transform="translate(237 90)"><tspan x="0" y="12" dx="0">i</tspan><tspan x="4" y="12" dx="0">d</tspan><tspan x="11" y="12" dx="0">e</tspan><tspan x="19" y="12" dx="0">n</tspan><tspan x="26" y="12" dx="0 0">ti</tspan><tspan x="34" y="12" dx="0 0">fi</tspan><tspan x="43" y="12" dx="0">c</tspan><tspan x="48" y="12" dx="0">a</tspan><tspan x="55" y="12" dx="0 0">ti</tspan><tspan x="64" y="12" dx="0">e</tspan><tspan x="71" y="12" dx="0">:</tspan><tspan x="74" y="12" dx="0"> </tspan><tspan x="77" y="12" dx="0">N</tspan><tspan x="86" y="12" dx="0">E</tspan><tspan x="92" y="12" dx="0">N</tspan><tspan x="100" y="12" dx="0">3</tspan><tspan x="106" y="12" dx="0">6</tspan><tspan x="113" y="12" dx="0">1</tspan><tspan x="119" y="12" dx="0">0</tspan><tspan x="125" y="12" dx="0">I</tspan><tspan x="129" y="12" dx="0">D</tspan><tspan x="138" y="12" dx="0"> </tspan><tspan x="141" y="12" dx="0">{</tspan><tspan x="145" y="12" dx="0">i</tspan><tspan x="149" y="12" dx="0">d</tspan><tspan x="156" y="12" dx="0">}</tspan></text><rect x="524" y="341" width="212" height="146" stroke="none" fill="#D0D0D0"/><rect x="521" y="338" width="211" height="145" stroke="none" stroke-width="2" fill="#FFE4E1"/><rect x="521" y="338" width="211" height="146" stroke="#9A8484" stroke-width="2"/><rect x="521" y="338" width="211" height="145" stroke="#9A8484" stroke-width="2"/><text stroke="none" fill="#000000" transform="translate(591 344)"><tspan x="0" y="12" dx="0">«</tspan><tspan x="6" y="12" dx="0">O</tspan><tspan x="15" y="12" dx="0">b</tspan><tspan x="22" y="12" dx="0">j</tspan><tspan x="25" y="12" dx="0">e</tspan><tspan x="32" y="12" dx="0">c</tspan><tspan x="38" y="12" dx="0 0">tt</tspan><tspan x="46" y="12" dx="0">y</tspan><tspan x="51" y="12" dx="0">p</tspan><tspan x="58" y="12" dx="0">e</tspan><tspan x="66" y="12" dx="0">»</tspan></text><text stroke="none" fill="#000000" font-style="italic" font-weight="700" transform="translate(608 359)"><tspan x="0" y="12" dx="0">L</tspan><tspan x="5" y="12" dx="0">o</tspan><tspan x="11" y="12" dx="0">c</tspan><tspan x="17" y="12" dx="0">a</tspan><tspan x="23" y="12" dx="0 0">ti</tspan><tspan x="30" y="12" dx="0">e</tspan></text><path d="M521 379 732 379" stroke="#9A8484" stroke-width="2"/><text stroke="none" fill="#000000" transform="translate(534 387)"><tspan x="0" y="12" dx="0">«</tspan><tspan x="6" y="12" dx="0">A</tspan><tspan x="14" y="12" dx="0 0">tt</tspan><tspan x="22" y="12" dx="0">r</tspan><tspan x="26" y="12" dx="0">i</tspan><tspan x="30" y="12" dx="0">b</tspan><tspan x="38" y="12" dx="0">u</tspan><tspan x="45" y="12" dx="0">u</tspan><tspan x="52" y="12" dx="0">t</tspan><tspan x="56" y="12" dx="0">s</tspan><tspan x="63" y="12" dx="0">o</tspan><tspan x="70" y="12" dx="0">o</tspan><tspan x="77" y="12" dx="0">r</tspan><tspan x="81" y="12" dx="0">t</tspan><tspan x="86" y="12" dx="0">»</tspan></text><text stroke="none" fill="#66413F" transform="translate(526 402)"><tspan x="0" y="12" dx="0">+</tspan></text><text stroke="none" fill="#66413F" transform="translate(547 402)"><tspan x="0" y="12" dx="0">i</tspan><tspan x="4" y="12" dx="0">d</tspan><tspan x="11" y="12" dx="0">e</tspan><tspan x="19" y="12" dx="0">n</tspan><tspan x="26" y="12" dx="0 0">ti</tspan><tspan x="34" y="12" dx="0 0">fi</tspan><tspan x="43" y="12" dx="0">c</tspan><tspan x="48" y="12" dx="0">a</tspan><tspan x="55" y="12" dx="0 0">ti</tspan><tspan x="64" y="12" dx="0">e</tspan><tspan x="71" y="12" dx="0">:</tspan><tspan x="74" y="12" dx="0"> </tspan><tspan x="77" y="12" dx="0">N</tspan><tspan x="86" y="12" dx="0">E</tspan><tspan x="92" y="12" dx="0">N</tspan><tspan x="100" y="12" dx="0">3</tspan><tspan x="106" y="12" dx="0">6</tspan><tspan x="113" y="12" dx="0">1</tspan><tspan x="119" y="12" dx="0">0</tspan><tspan x="125" y="12" dx="0">I</tspan><tspan x="129" y="12" dx="0">D</tspan><tspan x="138" y="12" dx="0">_</tspan><tspan x="144" y="12" dx="0">L</tspan></text><text stroke="none" fill="#66413F" transform="translate(696 402)"><tspan x="0" y="12" dx="0">o</tspan><tspan x="7" y="12" dx="0">c</tspan><tspan x="11" y="12" dx="0">a</tspan><tspan x="17" y="12" dx="0 0">ti</tspan><tspan x="25" y="12" dx="0">e</tspan></text><text stroke="none" fill="#66413F" transform="translate(526 417)"><tspan x="0" y="12" dx="0">+</tspan></text><text stroke="none" fill="#66413F" transform="translate(547 417)"><tspan x="0" y="12" dx="0">noemer: CharacterString [0..1]</tspan></text><rect x="214" y="206" width="203" height="45" stroke="none" fill="#D0D0D0"/><rect x="211" y="203" width="202" height="44" stroke="none" fill="#CCFFFF"/><rect x="211" y="203" width="202" height="45" stroke="#9A8484"/><rect x="211" y="203" width="202" height="44" stroke="#9A8484"/><text stroke="none" fill="#595959" transform="translate(290 209)"><tspan x="0" y="12" dx="0">«Keuze»</tspan></text><text stroke="none" fill="#595959" font-weight="700" transform="translate(257 224)"><tspan x="0" y="12" dx="0">DivisieOfDivisietekst</tspan></text><path d="M621 78 416 78" stroke="#69738C" stroke-dasharray="7 4"/><path d="M621 338 621 78" stroke="#69738C" stroke-dasharray="7 4"/><path d="M621 338 616 323M621 338 626 323" stroke="#69738C"/><path d="M413 390 521 390M521 390 506 396M521 390 506 384" stroke="#69738C" stroke-width="2"/><path d="M312 203 312 129M312 129 318 144M312 129 306 144" stroke="#69738C" stroke-width="2"/><path d="M312 347 312 248M312 248 318 263M312 248 306 263" stroke="#69738C" stroke-width="2"/><g transform="matrix(1 0 0 -1 284 300)"><rect x="0" y="-13" width="59" height="13" stroke="none" fill="#FFFFFF"/></g><text stroke="none" fill="#595959" font-size="10" transform="translate(284 300)"><tspan x="0" y="10" dx="0">«</tspan><tspan x="4.66667" y="10" dx="0">R</tspan><tspan x="10" y="10" dx="0">e</tspan><tspan x="15" y="10" dx="0">l</tspan><tspan x="17.3333" y="10" dx="0">a</tspan><tspan x="22" y="10" dx="0 0">ti</tspan><tspan x="27.6667" y="10" dx="0">e</tspan><tspan x="32.6667" y="10" dx="0">s</tspan><tspan x="36.6667" y="10" dx="0">o</tspan><tspan x="42" y="10" dx="0">o</tspan><tspan x="47.3333" y="10" dx="0">r</tspan><tspan x="50.6667" y="10" dx="0">t</tspan><tspan x="54" y="10" dx="0">»</tspan></text><g transform="matrix(1 0 0 -1 340 258)"><rect x="0" y="-13" width="77" height="13" stroke="none" fill="#FFFFFF"/></g><text stroke="none" fill="#595959" font-size="10" transform="translate(340 258)"><tspan x="0" y="10" dx="0">+divisieaanduiding</tspan></text><g transform="matrix(1 0 0 -1 340 271)"><rect x="0" y="-13" width="49" height="13" stroke="none" fill="#FFFFFF"/></g><text stroke="none" fill="#595959" font-size="10" transform="translate(340 271)"><tspan x="0" y="10" dx="0">«</tspan><tspan x="5" y="10" dx="0">R</tspan><tspan x="10.3333" y="10" dx="0">e</tspan><tspan x="15.3333" y="10" dx="0">l</tspan><tspan x="17.6667" y="10" dx="0">a</tspan><tspan x="22.3333" y="10" dx="0 0">ti</tspan><tspan x="28" y="10" dx="0">e</tspan><tspan x="33" y="10" dx="0">r</tspan><tspan x="36.3333" y="10" dx="0">o</tspan><tspan x="41.6667" y="10" dx="0">l</tspan><tspan x="44" y="10" dx="0">»</tspan></text><g transform="matrix(1 0 0 -1 324 253)"><rect x="0" y="-13" width="5" height="13" stroke="none" fill="#FFFFFF"/></g><text stroke="none" fill="#595959" font-size="10" transform="translate(324 253)"><tspan x="0" y="10" dx="0">1</tspan></text><g transform="matrix(1 0 0 -1 544 296)"><rect x="0" y="-13" width="71" height="13" stroke="none" fill="#FFFFFF"/></g><text stroke="none" fill="#595959" font-size="10" transform="translate(544 296)"><tspan x="0" y="10" dx="0">+werkingsgebied</tspan></text><g transform="matrix(1 0 0 -1 593 311)"><rect x="0" y="-13" width="17" height="13" stroke="none" fill="#FFFFFF"/></g><text stroke="none" fill="#595959" font-size="10" transform="translate(593 311)"><tspan x="0" y="10" dx="0">0..*</tspan></text><g transform="matrix(1 0 0 -1 430 353)"><rect x="0" y="-13" width="78" height="13" stroke="none" fill="#FFFFFF"/></g><text stroke="none" fill="#595959" font-size="10" transform="translate(430 353)"><tspan x="0" y="10" dx="0">+</tspan><tspan x="5.33333" y="10" dx="0">l</tspan><tspan x="7.66667" y="10" dx="0">o</tspan><tspan x="13" y="10" dx="0">c</tspan><tspan x="17.3333" y="10" dx="0">a</tspan><tspan x="22" y="10" dx="0 0">ti</tspan><tspan x="27.6667" y="10" dx="0">e</tspan><tspan x="32.6667" y="10" dx="0">a</tspan><tspan x="37.3333" y="10" dx="0">a</tspan><tspan x="42" y="10" dx="0">n</tspan><tspan x="47.3333" y="10" dx="0">d</tspan><tspan x="52.6667" y="10" dx="0">u</tspan><tspan x="58" y="10" dx="0">i</tspan><tspan x="60.3333" y="10" dx="0">d</tspan><tspan x="65.6667" y="10" dx="0">i</tspan><tspan x="68" y="10" dx="0">n</tspan><tspan x="73.3333" y="10" dx="0">g</tspan></text><g transform="matrix(1 0 0 -1 459 366)"><rect x="0" y="-13" width="49" height="13" stroke="none" fill="#FFFFFF"/></g><text stroke="none" fill="#595959" font-size="10" transform="translate(459 366)"><tspan x="0" y="10" dx="0">«</tspan><tspan x="5" y="10" dx="0">R</tspan><tspan x="10.3333" y="10" dx="0">e</tspan><tspan x="15.3333" y="10" dx="0">l</tspan><tspan x="17.6667" y="10" dx="0">a</tspan><tspan x="22.3333" y="10" dx="0 0">ti</tspan><tspan x="28" y="10" dx="0">e</tspan><tspan x="33" y="10" dx="0">r</tspan><tspan x="36.3333" y="10" dx="0">o</tspan><tspan x="41.6667" y="10" dx="0">l</tspan><tspan x="44" y="10" dx="0">»</tspan></text><g transform="matrix(1 0 0 -1 487 400)"><rect x="0" y="-13" width="17" height="13" stroke="none" fill="#FFFFFF"/></g><text stroke="none" fill="#595959" font-size="10" transform="translate(487 400)"><tspan x="0" y="10" dx="0">0..*</tspan></text><g transform="matrix(1 0 0 -1 340 133)"><rect x="0" y="-13" width="77" height="13" stroke="none" fill="#FFFFFF"/></g><text stroke="none" fill="#595959" font-size="10" transform="translate(340 133)"><tspan x="0" y="10" dx="0">+divisieaanduiding</tspan></text><g transform="matrix(1 0 0 -1 340 146)"><rect x="0" y="-13" width="35" height="13" stroke="none" fill="#FFFFFF"/></g><text stroke="none" fill="#595959" font-size="10" transform="translate(340 146)"><tspan x="0" y="10" dx="0">«Keuze»</tspan></text><g transform="matrix(1 0 0 -1 324 134)"><rect x="0" y="-13" width="5" height="13" stroke="none" fill="#FFFFFF"/></g><text stroke="none" fill="#595959" font-size="10" transform="translate(324 134)"><tspan x="0" y="10" dx="0">1</tspan></text></g></g></g></g></svg>