<svg width="750.779" height="280.392" viewBox="103.221 71.1763 563.084 210.294" xmlns="http://www.w3.org/2000/svg" xmlns:xlink="http://www.w3.org/1999/xlink" overflow="hidden"><g transform="matrix(1 0 0 -1 0 841)"><g stroke="#000000" stroke-linecap="round" stroke-linejoin="round" stroke-miterlimit="3" fill="none" fill-rule="evenodd" font-weight="400" baseline-shift="0"><g transform="matrix(0.75 0 0 0.75 0 841.65)"><g font-family="CalibriUnicode" font-size="13" transform="scale(1.00199 -1.00411)"><rect x="148" y="106" width="728" height="258" stroke="#9A8484"/><rect x="584" y="186" width="190" height="150" stroke="none" fill="#D0D0D0"/><rect x="581" y="183" width="189" height="149" stroke="none" stroke-width="2" fill="#CCFFFF"/><rect x="581" y="183" width="189" height="150" stroke="#9A8484" stroke-width="2"/><rect x="581" y="183" width="189" height="149" stroke="#9A8484" stroke-width="2"/><text stroke="none" fill="#000000" transform="translate(640 189)"><tspan x="0" y="12" dx="0">«</tspan><tspan x="6" y="12" dx="0">O</tspan><tspan x="15" y="12" dx="0">b</tspan><tspan x="22" y="12" dx="0">j</tspan><tspan x="25" y="12" dx="0">e</tspan><tspan x="32" y="12" dx="0">c</tspan><tspan x="38" y="12" dx="0 0">tt</tspan><tspan x="46" y="12" dx="0">y</tspan><tspan x="51" y="12" dx="0">p</tspan><tspan x="58" y="12" dx="0">e</tspan><tspan x="66" y="12" dx="0">»</tspan></text><text stroke="none" fill="#000000" font-weight="700" transform="translate(652 204)"><tspan x="0" y="12" dx="0">Hoofdlijn</tspan></text><path d="M581 224 770 224" stroke="#9A8484" stroke-width="2"/><text stroke="none" fill="#000000" transform="translate(594 232)"><tspan x="0" y="12" dx="0">«</tspan><tspan x="6" y="12" dx="0">A</tspan><tspan x="14" y="12" dx="0 0">tt</tspan><tspan x="22" y="12" dx="0">r</tspan><tspan x="26" y="12" dx="0">i</tspan><tspan x="30" y="12" dx="0">b</tspan><tspan x="38" y="12" dx="0">u</tspan><tspan x="45" y="12" dx="0">u</tspan><tspan x="52" y="12" dx="0">t</tspan><tspan x="56" y="12" dx="0">s</tspan><tspan x="63" y="12" dx="0">o</tspan><tspan x="70" y="12" dx="0">o</tspan><tspan x="77" y="12" dx="0">r</tspan><tspan x="81" y="12" dx="0">t</tspan><tspan x="86" y="12" dx="0">»</tspan></text><text stroke="none" fill="#66413F" transform="translate(586 247)"><tspan x="0" y="12" dx="0">+</tspan></text><text stroke="none" fill="#66413F" transform="translate(607 247)"><tspan x="0" y="12" dx="0">i</tspan><tspan x="4" y="12" dx="0">d</tspan><tspan x="11" y="12" dx="0">e</tspan><tspan x="19" y="12" dx="0">n</tspan><tspan x="26" y="12" dx="0 0">ti</tspan><tspan x="34" y="12" dx="0 0">fi</tspan><tspan x="43" y="12" dx="0">c</tspan><tspan x="48" y="12" dx="0">a</tspan><tspan x="55" y="12" dx="0 0">ti</tspan><tspan x="64" y="12" dx="0">e</tspan><tspan x="71" y="12" dx="0">:</tspan><tspan x="74" y="12" dx="0"> </tspan><tspan x="77" y="12" dx="0">N</tspan><tspan x="86" y="12" dx="0">E</tspan><tspan x="92" y="12" dx="0">N</tspan><tspan x="100" y="12" dx="0">3</tspan><tspan x="106" y="12" dx="0">6</tspan><tspan x="113" y="12" dx="0">1</tspan><tspan x="119" y="12" dx="0">0</tspan><tspan x="125" y="12" dx="0">I</tspan><tspan x="129" y="12" dx="0">D</tspan><tspan x="138" y="12" dx="0"> </tspan><tspan x="141" y="12" dx="0">{</tspan><tspan x="145" y="12" dx="0">i</tspan><tspan x="149" y="12" dx="0">d</tspan><tspan x="156" y="12" dx="0">}</tspan></text><text stroke="none" fill="#66413F" transform="translate(586 262)"><tspan x="0" y="12" dx="0">+</tspan></text><text stroke="none" fill="#66413F" transform="translate(607 262)"><tspan x="0" y="12" dx="0">soort: CharacterString</tspan></text><text stroke="none" fill="#66413F" transform="translate(586 277)"><tspan x="0" y="12" dx="0">+</tspan></text><text stroke="none" fill="#66413F" transform="translate(607 277)"><tspan x="0" y="12" dx="0">naam: CharacterString</tspan></text><rect x="179" y="186" width="188" height="157" stroke="none" fill="#D0D0D0"/><rect x="176" y="183" width="187" height="156" stroke="none" stroke-width="2" fill="#CCFFFF"/><rect x="176" y="183" width="187" height="157" stroke="#9A8484" stroke-width="2"/><rect x="176" y="183" width="187" height="156" stroke="#9A8484" stroke-width="2"/><text stroke="none" fill="#000000" transform="translate(234 189)"><tspan x="0" y="12" dx="0">«</tspan><tspan x="6" y="12" dx="0">O</tspan><tspan x="15" y="12" dx="0">b</tspan><tspan x="22" y="12" dx="0">j</tspan><tspan x="25" y="12" dx="0">e</tspan><tspan x="32" y="12" dx="0">c</tspan><tspan x="38" y="12" dx="0 0">tt</tspan><tspan x="46" y="12" dx="0">y</tspan><tspan x="51" y="12" dx="0">p</tspan><tspan x="58" y="12" dx="0">e</tspan><tspan x="66" y="12" dx="0">»</tspan></text><text stroke="none" fill="#000000" font-weight="700" transform="translate(245 204)"><tspan x="0" y="12" dx="0">Tekstdeel</tspan></text><path d="M176 224 363 224" stroke="#9A8484" stroke-width="2"/><text stroke="none" fill="#000000" transform="translate(189 232)"><tspan x="0" y="12" dx="0">«</tspan><tspan x="6" y="12" dx="0">A</tspan><tspan x="14" y="12" dx="0 0">tt</tspan><tspan x="22" y="12" dx="0">r</tspan><tspan x="26" y="12" dx="0">i</tspan><tspan x="30" y="12" dx="0">b</tspan><tspan x="38" y="12" dx="0">u</tspan><tspan x="45" y="12" dx="0">u</tspan><tspan x="52" y="12" dx="0">t</tspan><tspan x="56" y="12" dx="0">s</tspan><tspan x="63" y="12" dx="0">o</tspan><tspan x="70" y="12" dx="0">o</tspan><tspan x="77" y="12" dx="0">r</tspan><tspan x="81" y="12" dx="0">t</tspan><tspan x="86" y="12" dx="0">»</tspan></text><text stroke="none" fill="#66413F" transform="translate(181 247)"><tspan x="0" y="12" dx="0">+</tspan></text><text stroke="none" fill="#66413F" transform="translate(202 247)"><tspan x="0" y="12" dx="0">i</tspan><tspan x="4" y="12" dx="0">d</tspan><tspan x="11" y="12" dx="0">e</tspan><tspan x="19" y="12" dx="0">n</tspan><tspan x="26" y="12" dx="0 0">ti</tspan><tspan x="34" y="12" dx="0 0">fi</tspan><tspan x="43" y="12" dx="0">c</tspan><tspan x="48" y="12" dx="0">a</tspan><tspan x="55" y="12" dx="0 0">ti</tspan><tspan x="64" y="12" dx="0">e</tspan><tspan x="71" y="12" dx="0">:</tspan><tspan x="74" y="12" dx="0"></tspan></text><text stroke="none" fill="#66413F" transform="translate(279 247)"><tspan x="0" y="12" dx="0">NEN3610ID {id}</tspan></text><text stroke="none" fill="#66413F" transform="translate(181 262)"><tspan x="0" y="12" dx="0">+</tspan></text><text stroke="none" fill="#66413F" transform="translate(202 262)"><tspan x="0" y="12" dx="0">i</tspan><tspan x="4" y="12" dx="0">d</tspan><tspan x="11" y="12" dx="0">e</tspan><tspan x="19" y="12" dx="0">a</tspan><tspan x="26" y="12" dx="0">l</tspan><tspan x="30" y="12" dx="0">i</tspan><tspan x="34" y="12" dx="0">s</tspan><tspan x="41" y="12" dx="0">a</tspan><tspan x="48" y="12" dx="0 0">ti</tspan><tspan x="56" y="12" dx="0">e</tspan><tspan x="64" y="12" dx="0">:</tspan><tspan x="67" y="12" dx="0"></tspan></text><text stroke="none" fill="#66413F" transform="translate(272 262)"><tspan x="0" y="12" dx="0">I</tspan><tspan x="4" y="12" dx="0">d</tspan><tspan x="10" y="12" dx="0">e</tspan><tspan x="16" y="12" dx="0">a</tspan><tspan x="22" y="12" dx="0">l</tspan><tspan x="26" y="12" dx="0">i</tspan><tspan x="30" y="12" dx="0">s</tspan><tspan x="35" y="12" dx="0">a</tspan><tspan x="41" y="12" dx="0 0">ti</tspan><tspan x="49" y="12" dx="0">e</tspan><tspan x="56" y="12" dx="0"> </tspan><tspan x="59" y="12" dx="0">[</tspan><tspan x="63" y="12" dx="0">0</tspan><tspan x="69" y="12" dx="0">.</tspan><tspan x="72" y="12" dx="0">.</tspan><tspan x="75" y="12" dx="0">1</tspan><tspan x="81" y="12" dx="0">]</tspan></text><text stroke="none" fill="#66413F" transform="translate(181 277)"><tspan x="0" y="12" dx="0">+</tspan></text><text stroke="none" fill="#66413F" transform="translate(202 277)"><tspan x="0" y="12" dx="0">thema: Thema [0..*]</tspan></text><path d="M365 260 580 258M580 258 565 264M580 258 565 252" stroke="#69738C" stroke-width="2"/><path d="M771 207 805 207M805 207 805 149M805 149 749 149M749 149 749 183M749 183 743 168M749 183 755 168" stroke="#69738C" stroke-width="2"/><g transform="matrix(1 0 0 -1 748 113)"><rect x="0" y="-13" width="95" height="13" stroke="none" fill="#FFFFFF"/></g><text stroke="none" fill="#595959" font-size="10" transform="translate(748 113)"><tspan x="0" y="10" dx="0">+gerelateerdeHoofdlijn</tspan></text><g transform="matrix(1 0 0 -1 748 126)"><rect x="0" y="-13" width="68" height="13" stroke="none" fill="#FFFFFF"/></g><text stroke="none" fill="#595959" font-size="10" transform="translate(748 126)"><tspan x="0" y="10" dx="0">«</tspan><tspan x="5.33333" y="10" dx="0">R</tspan><tspan x="11" y="10" dx="0">e</tspan><tspan x="16.3333" y="10" dx="0">l</tspan><tspan x="18.6667" y="10" dx="0">a</tspan><tspan x="23.6667" y="10" dx="0 0">ti</tspan><tspan x="29.3333" y="10" dx="0">e</tspan><tspan x="34.3333" y="10" dx="0">r</tspan><tspan x="37.6667" y="10" dx="0">o</tspan><tspan x="43" y="10" dx="0">l</tspan><tspan x="45.3333" y="10" dx="0">»</tspan><tspan x="50.3333" y="10" dx="0"> </tspan><tspan x="52.6667" y="10" dx="0">0</tspan><tspan x="57.6667" y="10" dx="0">.</tspan><tspan x="60.3333" y="10" dx="0">.</tspan><tspan x="63" y="10" dx="0">*</tspan></text><g transform="matrix(1 0 0 -1 466 282)"><rect x="0" y="-13" width="87" height="13" stroke="none" fill="#FFFFFF"/></g><text stroke="none" fill="#595959" font-size="10" transform="translate(466 282)"><tspan x="0" y="10" dx="0">+hoofdlijnaanduiding</tspan></text><g transform="matrix(1 0 0 -1 504 295)"><rect x="0" y="-13" width="49" height="13" stroke="none" fill="#FFFFFF"/></g><text stroke="none" fill="#595959" font-size="10" transform="translate(504 295)"><tspan x="0" y="10" dx="0">«</tspan><tspan x="5" y="10" dx="0">R</tspan><tspan x="10.3333" y="10" dx="0">e</tspan><tspan x="15.3333" y="10" dx="0">l</tspan><tspan x="17.6667" y="10" dx="0">a</tspan><tspan x="22.3333" y="10" dx="0 0">ti</tspan><tspan x="28" y="10" dx="0">e</tspan><tspan x="33" y="10" dx="0">r</tspan><tspan x="36.3333" y="10" dx="0">o</tspan><tspan x="41.6667" y="10" dx="0">l</tspan><tspan x="44" y="10" dx="0">»</tspan></text><g transform="matrix(1 0 0 -1 561 263)"><rect x="0" y="-13" width="17" height="13" stroke="none" fill="#FFFFFF"/></g><text stroke="none" fill="#595959" font-size="10" transform="translate(561 263)"><tspan x="0" y="10" dx="0">0..*</tspan></text></g></g></g></g></svg>