<svg width="1152.62" height="577.524" viewBox="9.30032 9.1182 864.468 433.143" xmlns="http://www.w3.org/2000/svg" xmlns:xlink="http://www.w3.org/1999/xlink" overflow="hidden"><g transform="matrix(1 0 0 -1 0 768)"><g stroke="#000000" stroke-linecap="round" stroke-linejoin="round" stroke-miterlimit="3" fill="none" fill-rule="evenodd" font-weight="400" baseline-shift="0"><g transform="matrix(0.75 0 0 0.75 0 768.2)"><g font-family="CalibriUnicode" font-size="13" transform="scale(1.00292 -1.00395)"><rect x="23" y="23" width="1128" height="554" stroke="#9A8484"/><rect x="440" y="43" width="188" height="157" stroke="none" fill="#D0D0D0"/><rect x="437" y="40" width="187" height="156" stroke="none" stroke-width="2" fill="#CCFFFF"/><rect x="437" y="40" width="187" height="157" stroke="#9A8484" stroke-width="2"/><rect x="437" y="40" width="187" height="156" stroke="#9A8484" stroke-width="2"/><text stroke="none" fill="#000000" transform="translate(495 46)"><tspan x="0" y="12" dx="0">«</tspan><tspan x="6" y="12" dx="0">O</tspan><tspan x="15" y="12" dx="0">b</tspan><tspan x="22" y="12" dx="0">j</tspan><tspan x="25" y="12" dx="0">e</tspan><tspan x="32" y="12" dx="0">c</tspan><tspan x="38" y="12" dx="0 0">tt</tspan><tspan x="46" y="12" dx="0">y</tspan><tspan x="51" y="12" dx="0">p</tspan><tspan x="58" y="12" dx="0">e</tspan><tspan x="66" y="12" dx="0">»</tspan></text><text stroke="none" fill="#000000" font-style="italic" font-weight="700" transform="translate(491 61)"><tspan x="0" y="12" dx="0">JuridischeRegel</tspan></text><path d="M437 81 624 81" stroke="#9A8484" stroke-width="2"/><text stroke="none" fill="#000000" transform="translate(450 89)"><tspan x="0" y="12" dx="0">«</tspan><tspan x="6" y="12" dx="0">A</tspan><tspan x="14" y="12" dx="0 0">tt</tspan><tspan x="22" y="12" dx="0">r</tspan><tspan x="26" y="12" dx="0">i</tspan><tspan x="30" y="12" dx="0">b</tspan><tspan x="38" y="12" dx="0">u</tspan><tspan x="45" y="12" dx="0">u</tspan><tspan x="52" y="12" dx="0">t</tspan><tspan x="56" y="12" dx="0">s</tspan><tspan x="63" y="12" dx="0">o</tspan><tspan x="70" y="12" dx="0">o</tspan><tspan x="77" y="12" dx="0">r</tspan><tspan x="81" y="12" dx="0">t</tspan><tspan x="85" y="12" dx="0">»</tspan></text><text stroke="none" fill="#66413F" transform="translate(442 104)"><tspan x="0" y="12" dx="0">+</tspan></text><text stroke="none" fill="#66413F" transform="translate(463 104)"><tspan x="0" y="12" dx="0">i</tspan><tspan x="4" y="12" dx="0">d</tspan><tspan x="11" y="12" dx="0">e</tspan><tspan x="19" y="12" dx="0">n</tspan><tspan x="26" y="12" dx="0 0">ti</tspan><tspan x="34" y="12" dx="0 0">fi</tspan><tspan x="43" y="12" dx="0">c</tspan><tspan x="48" y="12" dx="0">a</tspan><tspan x="55" y="12" dx="0 0">ti</tspan><tspan x="64" y="12" dx="0">e</tspan><tspan x="71" y="12" dx="0">:</tspan><tspan x="74" y="12" dx="0"> </tspan><tspan x="77" y="12" dx="0">N</tspan><tspan x="85" y="12" dx="0">E</tspan><tspan x="92" y="12" dx="0">N</tspan><tspan x="100" y="12" dx="0">3</tspan><tspan x="106" y="12" dx="0">6</tspan><tspan x="113" y="12" dx="0">1</tspan></text><text stroke="none" fill="#66413F" transform="translate(582 104)"><tspan x="0" y="12" dx="0">0ID {id}</tspan></text><text stroke="none" fill="#66413F" transform="translate(442 119)"><tspan x="0" y="12" dx="0">+</tspan></text><text stroke="none" fill="#66413F" transform="translate(463 119)"><tspan x="0" y="12" dx="0">i</tspan><tspan x="4" y="12" dx="0">d</tspan><tspan x="11" y="12" dx="0">e</tspan><tspan x="19" y="12" dx="0">a</tspan><tspan x="26" y="12" dx="0">l</tspan><tspan x="30" y="12" dx="0">i</tspan><tspan x="34" y="12" dx="0">s</tspan><tspan x="41" y="12" dx="0">a</tspan><tspan x="48" y="12" dx="0 0">ti</tspan><tspan x="56" y="12" dx="0">e</tspan><tspan x="64" y="12" dx="0">:</tspan><tspan x="67" y="12" dx="0"> </tspan><tspan x="70" y="12" dx="0">I</tspan><tspan x="74" y="12" dx="0">d</tspan><tspan x="81" y="12" dx="0">e</tspan><tspan x="89" y="12" dx="0">a</tspan><tspan x="96" y="12" dx="0">l</tspan><tspan x="100" y="12" dx="0">i</tspan><tspan x="104" y="12" dx="0">s</tspan><tspan x="110" y="12" dx="0">a</tspan><tspan x="118" y="12" dx="0 0">ti</tspan><tspan x="126" y="12" dx="0">e</tspan></text><text stroke="none" fill="#66413F" transform="translate(442 134)"><tspan x="0" y="12" dx="0">+</tspan></text><text stroke="none" fill="#66413F" transform="translate(463 134)"><tspan x="0" y="12" dx="0">thema: Thema [0..*]</tspan></text><rect x="790" y="55" width="211" height="117" stroke="none" fill="#D0D0D0"/><rect x="787" y="52" width="210" height="116" stroke="none" fill="#FFE4E1"/><rect x="787" y="52" width="210" height="117" stroke="#9A8484"/><rect x="787" y="52" width="210" height="116" stroke="#9A8484"/><text stroke="none" fill="#000000" transform="translate(856 58)"><tspan x="0" y="12" dx="0">«</tspan><tspan x="6" y="12" dx="0">O</tspan><tspan x="15" y="12" dx="0">b</tspan><tspan x="22" y="12" dx="0">j</tspan><tspan x="25" y="12" dx="0">e</tspan><tspan x="32" y="12" dx="0">c</tspan><tspan x="38" y="12" dx="0 0">tt</tspan><tspan x="46" y="12" dx="0">y</tspan><tspan x="51" y="12" dx="0">p</tspan><tspan x="58" y="12" dx="0">e</tspan><tspan x="66" y="12" dx="0">»</tspan></text><text stroke="none" fill="#000000" font-style="italic" font-weight="700" transform="translate(874 73)"><tspan x="0" y="12" dx="0">L</tspan><tspan x="5" y="12" dx="0">o</tspan><tspan x="11" y="12" dx="0">c</tspan><tspan x="17" y="12" dx="0">a</tspan><tspan x="23" y="12" dx="0 0">ti</tspan><tspan x="30" y="12" dx="0">e</tspan></text><path d="M787 93 997 93" stroke="#9A8484"/><text stroke="none" fill="#000000" transform="translate(800 101)"><tspan x="0" y="12" dx="0">«</tspan><tspan x="6" y="12" dx="0">A</tspan><tspan x="14" y="12" dx="0 0">tt</tspan><tspan x="22" y="12" dx="0">r</tspan><tspan x="26" y="12" dx="0">i</tspan><tspan x="30" y="12" dx="0">b</tspan><tspan x="38" y="12" dx="0">u</tspan><tspan x="45" y="12" dx="0">u</tspan><tspan x="52" y="12" dx="0">t</tspan><tspan x="56" y="12" dx="0">s</tspan><tspan x="63" y="12" dx="0">o</tspan><tspan x="70" y="12" dx="0">o</tspan><tspan x="77" y="12" dx="0">r</tspan><tspan x="81" y="12" dx="0">t</tspan><tspan x="85" y="12" dx="0">»</tspan></text><text stroke="none" fill="#66413F" transform="translate(792 116)"><tspan x="0" y="12" dx="0">+</tspan></text><text stroke="none" fill="#66413F" transform="translate(813 116)"><tspan x="0" y="12" dx="0">i</tspan><tspan x="4" y="12" dx="0">d</tspan><tspan x="11" y="12" dx="0">e</tspan><tspan x="19" y="12" dx="0">n</tspan><tspan x="26" y="12" dx="0 0">ti</tspan><tspan x="34" y="12" dx="0 0">fi</tspan><tspan x="43" y="12" dx="0">c</tspan><tspan x="48" y="12" dx="0">a</tspan><tspan x="55" y="12" dx="0 0">ti</tspan><tspan x="64" y="12" dx="0">e</tspan><tspan x="71" y="12" dx="0">:</tspan><tspan x="74" y="12" dx="0"> </tspan><tspan x="77" y="12" dx="0">N</tspan><tspan x="85" y="12" dx="0">E</tspan><tspan x="92" y="12" dx="0">N</tspan><tspan x="100" y="12" dx="0">3</tspan><tspan x="106" y="12" dx="0">6</tspan><tspan x="113" y="12" dx="0">1</tspan><tspan x="119" y="12" dx="0">0</tspan><tspan x="125" y="12" dx="0">I</tspan><tspan x="129" y="12" dx="0">D</tspan><tspan x="138" y="12" dx="0">_</tspan><tspan x="144" y="12" dx="0">L</tspan></text><text stroke="none" fill="#66413F" transform="translate(962 116)"><tspan x="0" y="12" dx="0">o</tspan><tspan x="7" y="12" dx="0">c</tspan><tspan x="11" y="12" dx="0">a</tspan><tspan x="17" y="12" dx="0 0">ti</tspan><tspan x="25" y="12" dx="0">e</tspan></text><text stroke="none" fill="#66413F" transform="translate(792 131)"><tspan x="0" y="12" dx="0">+</tspan></text><text stroke="none" fill="#66413F" transform="translate(813 131)"><tspan x="0" y="12" dx="0">noemer: CharacterString [0..1]</tspan></text><rect x="47" y="362" width="273" height="206" stroke="none" fill="#D0D0D0"/><rect x="44" y="359" width="272" height="205" stroke="none" stroke-width="2" fill="#CCFFCC"/><rect x="44" y="359" width="272" height="206" stroke="#9A8484" stroke-width="2"/><rect x="44" y="359" width="272" height="205" stroke="#9A8484" stroke-width="2"/><text stroke="none" fill="#000000" transform="translate(144 365)"><tspan x="0" y="12" dx="0">«</tspan><tspan x="6" y="12" dx="0">O</tspan><tspan x="15" y="12" dx="0">b</tspan><tspan x="22" y="12" dx="0">j</tspan><tspan x="25" y="12" dx="0">e</tspan><tspan x="32" y="12" dx="0">c</tspan><tspan x="38" y="12" dx="0 0">tt</tspan><tspan x="46" y="12" dx="0">y</tspan><tspan x="51" y="12" dx="0">p</tspan><tspan x="58" y="12" dx="0">e</tspan><tspan x="66" y="12" dx="0">»</tspan></text><text stroke="none" fill="#000000" font-style="italic" font-weight="700" transform="translate(166 380)"><tspan x="0" y="12" dx="0">Norm</tspan></text><path d="M44 400 316 400" stroke="#9A8484" stroke-width="2"/><text stroke="none" fill="#000000" transform="translate(57 408)"><tspan x="0" y="12" dx="0">«</tspan><tspan x="6" y="12" dx="0">A</tspan><tspan x="14" y="12" dx="0 0">tt</tspan><tspan x="22" y="12" dx="0">r</tspan><tspan x="26" y="12" dx="0">i</tspan><tspan x="30" y="12" dx="0">b</tspan><tspan x="38" y="12" dx="0">u</tspan><tspan x="45" y="12" dx="0">u</tspan><tspan x="52" y="12" dx="0">t</tspan><tspan x="56" y="12" dx="0">s</tspan><tspan x="63" y="12" dx="0">o</tspan><tspan x="70" y="12" dx="0">o</tspan><tspan x="77" y="12" dx="0">r</tspan><tspan x="81" y="12" dx="0">t</tspan><tspan x="85" y="12" dx="0">»</tspan></text><text stroke="none" fill="#66413F" transform="translate(49 423)"><tspan x="0" y="12" dx="0">+</tspan></text><text stroke="none" fill="#66413F" transform="translate(70 423)"><tspan x="0" y="12" dx="0">i</tspan><tspan x="4" y="12" dx="0">d</tspan><tspan x="11" y="12" dx="0">e</tspan><tspan x="19" y="12" dx="0">n</tspan><tspan x="26" y="12" dx="0 0">ti</tspan><tspan x="34" y="12" dx="0 0">fi</tspan><tspan x="43" y="12" dx="0">c</tspan><tspan x="48" y="12" dx="0">a</tspan><tspan x="55" y="12" dx="0 0">ti</tspan><tspan x="64" y="12" dx="0">e</tspan><tspan x="71" y="12" dx="0">:</tspan><tspan x="74" y="12" dx="0"> </tspan><tspan x="77" y="12" dx="0">N</tspan><tspan x="85" y="12" dx="0">E</tspan><tspan x="92" y="12" dx="0">N</tspan><tspan x="100" y="12" dx="0">3</tspan><tspan x="106" y="12" dx="0">6</tspan><tspan x="113" y="12" dx="0">1</tspan><tspan x="119" y="12" dx="0">0</tspan><tspan x="125" y="12" dx="0">I</tspan><tspan x="129" y="12" dx="0">D</tspan><tspan x="138" y="12" dx="0"> </tspan><tspan x="141" y="12" dx="0">{</tspan><tspan x="145" y="12" dx="0">i</tspan><tspan x="149" y="12" dx="0">d</tspan><tspan x="156" y="12" dx="0">}</tspan></text><text stroke="none" fill="#66413F" transform="translate(49 438)"><tspan x="0" y="12" dx="0">+</tspan></text><text stroke="none" fill="#66413F" transform="translate(70 438)"><tspan x="0" y="12" dx="0">naam: CharacterString</tspan></text><text stroke="none" fill="#66413F" transform="translate(49 453)"><tspan x="0" y="12" dx="0">+</tspan></text><text stroke="none" fill="#66413F" transform="translate(70 453)"><tspan x="0" y="12" dx="0">type: Typenorm</tspan></text><text stroke="none" fill="#66413F" transform="translate(49 468)"><tspan x="0" y="12" dx="0">+</tspan></text><text stroke="none" fill="#66413F" transform="translate(70 468)"><tspan x="0" y="12" dx="0">eenheid: Eenheid [0..1]</tspan></text><text stroke="none" fill="#000000" transform="translate(57 487)"><tspan x="0" y="12" dx="0">«Gegevensgroep»</tspan></text><text stroke="none" fill="#66413F" transform="translate(49 502)"><tspan x="0" y="12" dx="0">+</tspan></text><text stroke="none" fill="#66413F" transform="translate(70 502)"><tspan x="0" y="12" dx="0">normwaarde: Normwaarde [1..*]</tspan></text><path d="M44 521 316 521" stroke="#9A8484" stroke-width="2"/><text stroke="none" fill="#000000" font-style="italic" transform="translate(151 525)"><tspan x="0" y="12" dx="0">constraints</tspan></text><text stroke="none" fill="#000000" transform="translate(49 540)"><tspan x="0" y="12" dx="0">{</tspan><tspan x="4" y="12" dx="0">e</tspan><tspan x="11" y="12" dx="0">e</tspan><tspan x="19" y="12" dx="0">n</tspan><tspan x="26" y="12" dx="0">h</tspan><tspan x="33" y="12" dx="0">e</tspan><tspan x="41" y="12" dx="0">i</tspan><tspan x="45" y="12" dx="0">d</tspan><tspan x="52" y="12" dx="0"> </tspan><tspan x="55" y="12" dx="0">a</tspan><tspan x="63" y="12" dx="0">l</tspan><tspan x="67" y="12" dx="0">l</tspan><tspan x="71" y="12" dx="0">e</tspan><tspan x="78" y="12" dx="0">e</tspan><tspan x="85" y="12" dx="0">n</tspan><tspan x="93" y="12" dx="0"> </tspan><tspan x="96" y="12" dx="0">b</tspan><tspan x="103" y="12" dx="0">i</tspan><tspan x="107" y="12" dx="0">j</tspan><tspan x="110" y="12" dx="0"> </tspan><tspan x="114" y="12" dx="0">k</tspan><tspan x="120" y="12" dx="0">w</tspan><tspan x="129" y="12" dx="0">a</tspan><tspan x="137" y="12" dx="0">n</tspan><tspan x="144" y="12" dx="0 0">ti</tspan></text><text stroke="none" fill="#000000" transform="translate(201 540)"><tspan x="0" y="12" dx="0">t</tspan><tspan x="4" y="12" dx="0">a</tspan><tspan x="10" y="12" dx="0 0">ti</tspan><tspan x="18" y="12" dx="0">e</tspan><tspan x="24" y="12" dx="0">v</tspan><tspan x="28" y="12" dx="0">e</tspan><tspan x="35" y="12" dx="0"> </tspan><tspan x="38" y="12" dx="0">n</tspan><tspan x="44" y="12" dx="0">o</tspan><tspan x="50" y="12" dx="0">r</tspan><tspan x="53" y="12" dx="0">m</tspan><tspan x="62" y="12" dx="0">w</tspan><tspan x="70" y="12" dx="0">a</tspan><tspan x="76" y="12" dx="0">a</tspan><tspan x="82" y="12" dx="0">r</tspan><tspan x="85" y="12" dx="0">d</tspan><tspan x="91" y="12" dx="0">e</tspan><tspan x="97" y="12" dx="0">n</tspan><tspan x="104" y="12" dx="0">}</tspan></text><rect x="709" y="367" width="391" height="187" stroke="none" fill="#D0D0D0"/><rect x="706" y="364" width="390" height="186" stroke="none" stroke-width="2" fill="#CCFFCC"/><rect x="706" y="364" width="390" height="187" stroke="#9A8484" stroke-width="2"/><rect x="706" y="364" width="390" height="186" stroke="#9A8484" stroke-width="2"/><text stroke="none" fill="#000000" transform="translate(842 370)"><tspan x="0" y="12" dx="0">«Gegevensgroeptype»</tspan></text><text stroke="none" fill="#000000" font-weight="700" transform="translate(867 385)"><tspan x="0" y="12" dx="0">Normwaarde</tspan></text><path d="M706 405 1096 405" stroke="#9A8484" stroke-width="2"/><text stroke="none" fill="#000000" transform="translate(719 413)"><tspan x="0" y="12" dx="0">«</tspan><tspan x="6" y="12" dx="0">A</tspan><tspan x="14" y="12" dx="0 0">tt</tspan><tspan x="22" y="12" dx="0">r</tspan><tspan x="26" y="12" dx="0">i</tspan><tspan x="30" y="12" dx="0">b</tspan><tspan x="38" y="12" dx="0">u</tspan><tspan x="45" y="12" dx="0">u</tspan><tspan x="52" y="12" dx="0">t</tspan><tspan x="56" y="12" dx="0">s</tspan><tspan x="63" y="12" dx="0">o</tspan><tspan x="70" y="12" dx="0">o</tspan><tspan x="77" y="12" dx="0">r</tspan><tspan x="81" y="12" dx="0">t</tspan><tspan x="85" y="12" dx="0">»</tspan></text><text stroke="none" fill="#66413F" transform="translate(711 428)"><tspan x="0" y="12" dx="0">+</tspan></text><text stroke="none" fill="#66413F" transform="translate(732 428)"><tspan x="0" y="12" dx="0">i</tspan><tspan x="4" y="12" dx="0">d</tspan><tspan x="11" y="12" dx="0">e</tspan><tspan x="19" y="12" dx="0">n</tspan><tspan x="26" y="12" dx="0 0">ti</tspan><tspan x="34" y="12" dx="0 0">fi</tspan><tspan x="43" y="12" dx="0">c</tspan><tspan x="48" y="12" dx="0">a</tspan><tspan x="55" y="12" dx="0 0">ti</tspan><tspan x="64" y="12" dx="0">e</tspan><tspan x="71" y="12" dx="0">:</tspan><tspan x="74" y="12" dx="0"> </tspan><tspan x="77" y="12" dx="0">N</tspan><tspan x="85" y="12" dx="0">E</tspan><tspan x="92" y="12" dx="0">N</tspan><tspan x="100" y="12" dx="0">3</tspan><tspan x="106" y="12" dx="0">6</tspan><tspan x="113" y="12" dx="0">1</tspan><tspan x="119" y="12" dx="0">0</tspan><tspan x="125" y="12" dx="0">I</tspan><tspan x="129" y="12" dx="0">D</tspan><tspan x="138" y="12" dx="0"> </tspan><tspan x="141" y="12" dx="0">{</tspan><tspan x="145" y="12" dx="0">i</tspan><tspan x="149" y="12" dx="0">d</tspan><tspan x="156" y="12" dx="0">}</tspan></text><text stroke="none" fill="#66413F" transform="translate(711 443)"><tspan x="0" y="12" dx="0">+</tspan></text><text stroke="none" fill="#66413F" transform="translate(732 443)"><tspan x="0" y="12" dx="0">k</tspan><tspan x="6" y="12" dx="0">w</tspan><tspan x="16" y="12" dx="0">a</tspan><tspan x="23" y="12" dx="0">l</tspan><tspan x="27" y="12" dx="0">i</tspan><tspan x="31" y="12" dx="0">t</tspan><tspan x="35" y="12" dx="0">a</tspan><tspan x="43" y="12" dx="0 0">ti</tspan><tspan x="51" y="12" dx="0">e</tspan><tspan x="58" y="12" dx="0">v</tspan><tspan x="64" y="12" dx="0">e</tspan><tspan x="71" y="12" dx="0">W</tspan><tspan x="82" y="12" dx="0">a</tspan><tspan x="90" y="12" dx="0">a</tspan><tspan x="97" y="12" dx="0">r</tspan><tspan x="101" y="12" dx="0">d</tspan><tspan x="108" y="12" dx="0">e</tspan><tspan x="116" y="12" dx="0">:</tspan><tspan x="119" y="12" dx="0"> </tspan><tspan x="122" y="12" dx="0">C</tspan><tspan x="128" y="12" dx="0">h</tspan><tspan x="135" y="12" dx="0">a</tspan><tspan x="143" y="12" dx="0">r</tspan><tspan x="147" y="12" dx="0">a</tspan><tspan x="154" y="12" dx="0">c</tspan><tspan x="159" y="12" dx="0">t</tspan><tspan x="164" y="12" dx="0">e</tspan><tspan x="171" y="12" dx="0">r</tspan><tspan x="175" y="12" dx="0">S</tspan><tspan x="181" y="12" dx="0">t</tspan><tspan x="185" y="12" dx="0">r</tspan><tspan x="190" y="12" dx="0">i</tspan><tspan x="194" y="12" dx="0">n</tspan><tspan x="201" y="12" dx="0">g</tspan><tspan x="207" y="12" dx="0"> </tspan><tspan x="210" y="12" dx="0">[</tspan><tspan x="215" y="12" dx="0">0</tspan><tspan x="221" y="12" dx="0">.</tspan><tspan x="224" y="12" dx="0">.</tspan><tspan x="227" y="12" dx="0">1</tspan><tspan x="233" y="12" dx="0">]</tspan></text><text stroke="none" fill="#66413F" transform="translate(711 458)"><tspan x="0" y="12" dx="0">+</tspan></text><text stroke="none" fill="#66413F" transform="translate(732 458)"><tspan x="0" y="12" dx="0">k</tspan><tspan x="6" y="12" dx="0">w</tspan><tspan x="16" y="12" dx="0">a</tspan><tspan x="23" y="12" dx="0">n</tspan><tspan x="30" y="12" dx="0 0">ti</tspan><tspan x="39" y="12" dx="0">t</tspan><tspan x="43" y="12" dx="0">a</tspan><tspan x="50" y="12" dx="0 0">ti</tspan><tspan x="58" y="12" dx="0">e</tspan><tspan x="66" y="12" dx="0">v</tspan><tspan x="71" y="12" dx="0">e</tspan><tspan x="78" y="12" dx="0">W</tspan><tspan x="90" y="12" dx="0">a</tspan><tspan x="97" y="12" dx="0">a</tspan><tspan x="104" y="12" dx="0">r</tspan><tspan x="108" y="12" dx="0">d</tspan><tspan x="116" y="12" dx="0">e</tspan><tspan x="123" y="12" dx="0">:</tspan><tspan x="126" y="12" dx="0"> </tspan><tspan x="129" y="12" dx="0">R</tspan><tspan x="137" y="12" dx="0">e</tspan><tspan x="144" y="12" dx="0">a</tspan><tspan x="151" y="12" dx="0">l</tspan><tspan x="155" y="12" dx="0"> </tspan><tspan x="158" y="12" dx="0">[</tspan><tspan x="163" y="12" dx="0">0</tspan><tspan x="169" y="12" dx="0">.</tspan><tspan x="172" y="12" dx="0">.</tspan><tspan x="175" y="12" dx="0">1</tspan><tspan x="181" y="12" dx="0">]</tspan></text><text stroke="none" fill="#66413F" transform="translate(711 473)"><tspan x="0" y="12" dx="0">+</tspan></text><text stroke="none" fill="#66413F" transform="translate(732 473)"><tspan x="0" y="12" dx="0">waardeInRegeltekst: CharacterString [0..1]</tspan></text><path d="M706 492 1096 492" stroke="#9A8484" stroke-width="2"/><text stroke="none" fill="#000000" font-style="italic" transform="translate(872 496)"><tspan x="0" y="12" dx="0">constraints</tspan></text><text stroke="none" fill="#000000" transform="translate(711 511)"><tspan x="0" y="12" dx="0">{</tspan><tspan x="4" y="12" dx="0">w</tspan><tspan x="14" y="12" dx="0">a</tspan><tspan x="21" y="12" dx="0">a</tspan><tspan x="28" y="12" dx="0">r</tspan><tspan x="32" y="12" dx="0">d</tspan><tspan x="40" y="12" dx="0">e</tspan><tspan x="47" y="12" dx="0"> </tspan><tspan x="50" y="12" dx="0">i</tspan><tspan x="54" y="12" dx="0">s</tspan><tspan x="60" y="12" dx="0"> </tspan><tspan x="64" y="12" dx="0">k</tspan><tspan x="70" y="12" dx="0">w</tspan><tspan x="79" y="12" dx="0">a</tspan><tspan x="86" y="12" dx="0">l</tspan><tspan x="91" y="12" dx="0">i</tspan><tspan x="95" y="12" dx="0">t</tspan><tspan x="99" y="12" dx="0">a</tspan><tspan x="106" y="12" dx="0 0">ti</tspan><tspan x="115" y="12" dx="0">e</tspan><tspan x="122" y="12" dx="0">f</tspan><tspan x="126" y="12" dx="0"> </tspan><tspan x="129" y="12" dx="0">o</tspan><tspan x="137" y="12" dx="0">f</tspan><tspan x="141" y="12" dx="0"> </tspan><tspan x="144" y="12" dx="0">k</tspan><tspan x="150" y="12" dx="0">w</tspan><tspan x="159" y="12" dx="0">a</tspan><tspan x="167" y="12" dx="0">n</tspan><tspan x="174" y="12" dx="0 0">ti</tspan><tspan x="182" y="12" dx="0">t</tspan><tspan x="187" y="12" dx="0">a</tspan><tspan x="194" y="12" dx="0 0">ti</tspan><tspan x="202" y="12" dx="0">e</tspan><tspan x="209" y="12" dx="0">f</tspan><tspan x="214" y="12" dx="0"> </tspan><tspan x="217" y="12" dx="0">o</tspan><tspan x="224" y="12" dx="0">f</tspan><tspan x="228" y="12" dx="0"> </tspan><tspan x="231" y="12" dx="0">w</tspan><tspan x="241" y="12" dx="0">a</tspan><tspan x="248" y="12" dx="0">a</tspan><tspan x="255" y="12" dx="0">r</tspan><tspan x="259" y="12" dx="0">d</tspan><tspan x="267" y="12" dx="0">e</tspan><tspan x="274" y="12" dx="0">I</tspan><tspan x="278" y="12" dx="0">n</tspan><tspan x="286" y="12" dx="0">R</tspan><tspan x="293" y="12" dx="0">e</tspan><tspan x="300" y="12" dx="0">g</tspan><tspan x="306" y="12" dx="0">e</tspan><tspan x="314" y="12" dx="0">l</tspan><tspan x="318" y="12" dx="0">t</tspan><tspan x="322" y="12" dx="0">e</tspan><tspan x="329" y="12" dx="0">k</tspan><tspan x="336" y="12" dx="0">s</tspan><tspan x="342" y="12" dx="0">t</tspan><tspan x="346" y="12" dx="0">}</tspan></text><rect x="358" y="391" width="218" height="100" stroke="none" fill="#D0D0D0"/><rect x="355" y="388" width="217" height="99" stroke="none" stroke-width="2" fill="#CCFFCC"/><rect x="355" y="388" width="217" height="100" stroke="#9A8484" stroke-width="2"/><rect x="355" y="388" width="217" height="99" stroke="#9A8484" stroke-width="2"/><text stroke="none" fill="#000000" transform="translate(428 394)"><tspan x="0" y="12" dx="0">«</tspan><tspan x="6" y="12" dx="0">O</tspan><tspan x="15" y="12" dx="0">b</tspan><tspan x="22" y="12" dx="0">j</tspan><tspan x="25" y="12" dx="0">e</tspan><tspan x="32" y="12" dx="0">c</tspan><tspan x="38" y="12" dx="0 0">tt</tspan><tspan x="46" y="12" dx="0">y</tspan><tspan x="51" y="12" dx="0">p</tspan><tspan x="58" y="12" dx="0">e</tspan><tspan x="66" y="12" dx="0">»</tspan></text><text stroke="none" fill="#000000" font-weight="700" transform="translate(421 409)"><tspan x="0" y="12" dx="0">Omgevingsnorm</tspan></text><path d="M355 429 572 429" stroke="#9A8484" stroke-width="2"/><text stroke="none" fill="#000000" transform="translate(368 437)"><tspan x="0" y="12" dx="0">«</tspan><tspan x="6" y="12" dx="0">A</tspan><tspan x="14" y="12" dx="0 0">tt</tspan><tspan x="22" y="12" dx="0">r</tspan><tspan x="26" y="12" dx="0">i</tspan><tspan x="30" y="12" dx="0">b</tspan><tspan x="38" y="12" dx="0">u</tspan><tspan x="45" y="12" dx="0">u</tspan><tspan x="52" y="12" dx="0">t</tspan><tspan x="56" y="12" dx="0">s</tspan><tspan x="63" y="12" dx="0">o</tspan><tspan x="70" y="12" dx="0">o</tspan><tspan x="77" y="12" dx="0">r</tspan><tspan x="81" y="12" dx="0">t</tspan><tspan x="85" y="12" dx="0">»</tspan></text><text stroke="none" fill="#66413F" transform="translate(360 452)"><tspan x="0" y="12" dx="0">+</tspan></text><text stroke="none" fill="#66413F" transform="translate(381 452)"><tspan x="0" y="12" dx="0">groep: Omgevingsnormgroep</tspan></text><rect x="556" y="268" width="140" height="71" stroke="none" fill="#D0D0D0"/><rect x="553" y="265" width="139" height="70" stroke="none" fill="#CCFFFF"/><rect x="553" y="265" width="139" height="71" stroke="#9A8484"/><rect x="553" y="265" width="139" height="70" stroke="#9A8484"/><text stroke="none" fill="#000000" transform="translate(587 271)"><tspan x="0" y="12" dx="0">«</tspan><tspan x="6" y="12" dx="0">O</tspan><tspan x="15" y="12" dx="0">b</tspan><tspan x="22" y="12" dx="0">j</tspan><tspan x="25" y="12" dx="0">e</tspan><tspan x="32" y="12" dx="0">c</tspan><tspan x="38" y="12" dx="0 0">tt</tspan><tspan x="46" y="12" dx="0">y</tspan><tspan x="51" y="12" dx="0">p</tspan><tspan x="58" y="12" dx="0">e</tspan><tspan x="66" y="12" dx="0">»</tspan></text><text stroke="none" fill="#000000" font-weight="700" transform="translate(580 286)"><tspan x="0" y="12" dx="0">JuridischeRegel::</tspan></text><text stroke="none" fill="#000000" font-weight="700" transform="translate(586 301)"><tspan x="0" y="12" dx="0">I</tspan><tspan x="3" y="12" dx="0">n</tspan><tspan x="9" y="12" dx="0">s</tspan><tspan x="15" y="12" dx="0">t</tspan><tspan x="19" y="12" dx="0">r</tspan><tspan x="23" y="12" dx="0">u</tspan><tspan x="29" y="12" dx="0">c</tspan><tspan x="34" y="12" dx="0 0">ti</tspan><tspan x="42" y="12" dx="0">e</tspan><tspan x="48" y="12" dx="0">r</tspan><tspan x="52" y="12" dx="0">e</tspan><tspan x="58" y="12" dx="0">g</tspan><tspan x="65" y="12" dx="0">e</tspan><tspan x="71" y="12" dx="0">l</tspan></text><rect x="313" y="269" width="201" height="69" stroke="none" fill="#D0D0D0"/><rect x="310" y="266" width="200" height="68" stroke="none" fill="#CCFFFF"/><rect x="310" y="266" width="200" height="69" stroke="#9A8484"/><rect x="310" y="266" width="200" height="68" stroke="#9A8484"/><text stroke="none" fill="#000000" transform="translate(374 272)"><tspan x="0" y="12" dx="0">«</tspan><tspan x="6" y="12" dx="0">O</tspan><tspan x="15" y="12" dx="0">b</tspan><tspan x="22" y="12" dx="0">j</tspan><tspan x="25" y="12" dx="0">e</tspan><tspan x="32" y="12" dx="0">c</tspan><tspan x="38" y="12" dx="0 0">tt</tspan><tspan x="46" y="12" dx="0">y</tspan><tspan x="51" y="12" dx="0">p</tspan><tspan x="58" y="12" dx="0">e</tspan><tspan x="66" y="12" dx="0">»</tspan></text><text stroke="none" fill="#000000" font-weight="700" transform="translate(368 287)"><tspan x="0" y="12" dx="0">JuridischeRegel::</tspan><tspan x="-7" y="27" dx="0">RegelVoorIedereen</tspan></text><path d="M892 363 892 219M892 219 892 219M892 219 892 169M892 169 898 184M892 169 886 184" stroke="#69738C" stroke-width="2"/><path d="M626 114 787 113M787 113 772 119M787 113 772 107" stroke="#69738C" stroke-width="2"/><path d="M623 265 623 247M623 247 531 247M531 247 531 198" stroke="#69738C" stroke-width="2"/><path d="M537 214 525 214 531 198 537 214" stroke="#69738C" stroke-width="2" fill="#FAF1EC"/><path d="M410 266 410 247M410 247 531 247" stroke="#69738C" stroke-width="2"/><path d="M404 335 404 387M404 387 398 372M404 387 410 372" stroke="#69738C" stroke-width="2"/><path d="M631 336 631 437M631 437 573 437M573 437 588 431M573 437 588 443" stroke="#69738C" stroke-width="2"/><path d="M354 453 318 455" stroke="#69738C" stroke-width="2"/><path d="M334 448 334 460 318 455 334 448" stroke="#69738C" stroke-width="2" fill="#FAF1EC"/><g transform="matrix(1 0 0 -1 639 341)"><rect x="0" y="-13" width="17" height="13" stroke="none" fill="#FFFFFF"/></g><text stroke="none" fill="#595959" font-size="10" transform="translate(639 341)"><tspan x="0" y="10" dx="0">0..*</tspan></text><g transform="matrix(1 0 0 -1 577 449)"><rect x="0" y="-13" width="119" height="13" stroke="none" fill="#FFFFFF"/></g><text stroke="none" fill="#595959" font-size="10" transform="translate(577 449)"><tspan x="0" y="10" dx="0">+omgevingsnormaanduiding</tspan></text><g transform="matrix(1 0 0 -1 577 462)"><rect x="0" y="-13" width="49" height="13" stroke="none" fill="#FFFFFF"/></g><text stroke="none" fill="#595959" font-size="10" transform="translate(577 462)"><tspan x="0" y="10" dx="0">«</tspan><tspan x="5" y="10" dx="0">R</tspan><tspan x="10.3333" y="10" dx="0">e</tspan><tspan x="15.3333" y="10" dx="0">l</tspan><tspan x="17.6667" y="10" dx="0">a</tspan><tspan x="22.3333" y="10" dx="0 0">ti</tspan><tspan x="28" y="10" dx="0">e</tspan><tspan x="33" y="10" dx="0">r</tspan><tspan x="36.3333" y="10" dx="0">o</tspan><tspan x="41.6667" y="10" dx="0">l</tspan><tspan x="44" y="10" dx="0">»</tspan></text><g transform="matrix(1 0 0 -1 634 463)"><rect x="0" y="-13" width="17" height="13" stroke="none" fill="#FFFFFF"/></g><text stroke="none" fill="#595959" font-size="10" transform="translate(634 463)"><tspan x="0" y="10" dx="0">0..*</tspan></text><g transform="matrix(1 0 0 -1 412 340)"><rect x="0" y="-13" width="17" height="13" stroke="none" fill="#FFFFFF"/></g><text stroke="none" fill="#595959" font-size="10" transform="translate(412 340)"><tspan x="0" y="10" dx="0">0..*</tspan></text><g transform="matrix(1 0 0 -1 411 343)"><rect x="0" y="-13" width="119" height="13" stroke="none" fill="#FFFFFF"/></g><text stroke="none" fill="#595959" font-size="10" transform="translate(411 343)"><tspan x="0" y="10" dx="0">+omgevingsnormaanduiding</tspan></text><g transform="matrix(1 0 0 -1 411 356)"><rect x="0" y="-13" width="49" height="13" stroke="none" fill="#FFFFFF"/></g><text stroke="none" fill="#595959" font-size="10" transform="translate(411 356)"><tspan x="0" y="10" dx="0">«</tspan><tspan x="5" y="10" dx="0">R</tspan><tspan x="10.3333" y="10" dx="0">e</tspan><tspan x="15.3333" y="10" dx="0">l</tspan><tspan x="17.6667" y="10" dx="0">a</tspan><tspan x="22.3333" y="10" dx="0 0">ti</tspan><tspan x="28" y="10" dx="0">e</tspan><tspan x="33" y="10" dx="0">r</tspan><tspan x="36.3333" y="10" dx="0">o</tspan><tspan x="41.6667" y="10" dx="0">l</tspan><tspan x="44" y="10" dx="0">»</tspan></text><g transform="matrix(1 0 0 -1 412 369)"><rect x="0" y="-13" width="17" height="13" stroke="none" fill="#FFFFFF"/></g><text stroke="none" fill="#595959" font-size="10" transform="translate(412 369)"><tspan x="0" y="10" dx="0">0..*</tspan></text><g transform="matrix(1 0 0 -1 900 337)"><rect x="0" y="-13" width="17" height="13" stroke="none" fill="#FFFFFF"/></g><text stroke="none" fill="#595959" font-size="10" transform="translate(900 337)"><tspan x="0" y="10" dx="0">0..*</tspan></text><g transform="matrix(1 0 0 -1 903 241)"><rect x="0" y="-13" width="78" height="13" stroke="none" fill="#FFFFFF"/></g><text stroke="none" fill="#595959" font-size="10" transform="translate(903 241)"><tspan x="0" y="10" dx="0">+</tspan><tspan x="5.33333" y="10" dx="0">l</tspan><tspan x="7.66667" y="10" dx="0">o</tspan><tspan x="13" y="10" dx="0">c</tspan><tspan x="17.3333" y="10" dx="0">a</tspan><tspan x="22" y="10" dx="0 0">ti</tspan><tspan x="27.6667" y="10" dx="0">e</tspan><tspan x="32.6667" y="10" dx="0">a</tspan><tspan x="37.3333" y="10" dx="0">a</tspan><tspan x="42" y="10" dx="0">n</tspan><tspan x="47.3333" y="10" dx="0">d</tspan><tspan x="52.6667" y="10" dx="0">u</tspan><tspan x="58" y="10" dx="0">i</tspan><tspan x="60.3333" y="10" dx="0">d</tspan><tspan x="65.6667" y="10" dx="0">i</tspan><tspan x="68" y="10" dx="0">n</tspan><tspan x="73.3333" y="10" dx="0">g</tspan></text><g transform="matrix(1 0 0 -1 903 254)"><rect x="0" y="-13" width="49" height="13" stroke="none" fill="#FFFFFF"/></g><text stroke="none" fill="#595959" font-size="10" transform="translate(903 254)"><tspan x="0" y="10" dx="0">«</tspan><tspan x="5" y="10" dx="0">R</tspan><tspan x="10.3333" y="10" dx="0">e</tspan><tspan x="15.3333" y="10" dx="0">l</tspan><tspan x="17.6667" y="10" dx="0">a</tspan><tspan x="22.3333" y="10" dx="0 0">ti</tspan><tspan x="28" y="10" dx="0">e</tspan><tspan x="33" y="10" dx="0">r</tspan><tspan x="36.3333" y="10" dx="0">o</tspan><tspan x="41.6667" y="10" dx="0">l</tspan><tspan x="44" y="10" dx="0">»</tspan></text><g transform="matrix(1 0 0 -1 905 226)"><rect x="0" y="-13" width="17" height="13" stroke="none" fill="#FFFFFF"/></g><text stroke="none" fill="#595959" font-size="10" transform="translate(905 226)"><tspan x="0" y="10" dx="0">1..*</tspan></text><g transform="matrix(1 0 0 -1 637 121)"><rect x="0" y="-13" width="17" height="13" stroke="none" fill="#FFFFFF"/></g><text stroke="none" fill="#595959" font-size="10" transform="translate(637 121)"><tspan x="0" y="10" dx="0">0..*</tspan></text><g transform="matrix(1 0 0 -1 693 79)"><rect x="0" y="-13" width="78" height="13" stroke="none" fill="#FFFFFF"/></g><text stroke="none" fill="#595959" font-size="10" transform="translate(693 79)"><tspan x="0" y="10" dx="0">+</tspan><tspan x="5.33333" y="10" dx="0">l</tspan><tspan x="7.66667" y="10" dx="0">o</tspan><tspan x="13" y="10" dx="0">c</tspan><tspan x="17.3333" y="10" dx="0">a</tspan><tspan x="22" y="10" dx="0 0">ti</tspan><tspan x="27.6667" y="10" dx="0">e</tspan><tspan x="32.6667" y="10" dx="0">a</tspan><tspan x="37.3333" y="10" dx="0">a</tspan><tspan x="42" y="10" dx="0">n</tspan><tspan x="47.3333" y="10" dx="0">d</tspan><tspan x="52.6667" y="10" dx="0">u</tspan><tspan x="58" y="10" dx="0">i</tspan><tspan x="60.3333" y="10" dx="0">d</tspan><tspan x="65.6667" y="10" dx="0">i</tspan><tspan x="68" y="10" dx="0">n</tspan><tspan x="73.3333" y="10" dx="0">g</tspan></text><g transform="matrix(1 0 0 -1 722 92)"><rect x="0" y="-13" width="49" height="13" stroke="none" fill="#FFFFFF"/></g><text stroke="none" fill="#595959" font-size="10" transform="translate(722 92)"><tspan x="0" y="10" dx="0">«</tspan><tspan x="5" y="10" dx="0">R</tspan><tspan x="10.3333" y="10" dx="0">e</tspan><tspan x="15.3333" y="10" dx="0">l</tspan><tspan x="17.6667" y="10" dx="0">a</tspan><tspan x="22.3333" y="10" dx="0 0">ti</tspan><tspan x="28" y="10" dx="0">e</tspan><tspan x="33" y="10" dx="0">r</tspan><tspan x="36.3333" y="10" dx="0">o</tspan><tspan x="41.6667" y="10" dx="0">l</tspan><tspan x="44" y="10" dx="0">»</tspan></text><g transform="matrix(1 0 0 -1 750 119)"><rect x="0" y="-13" width="17" height="13" stroke="none" fill="#FFFFFF"/></g><text stroke="none" fill="#595959" font-size="10" transform="translate(750 119)"><tspan x="0" y="10" dx="0">1..*</tspan></text></g></g></g></g></svg>